{
    "header": {
        "format": 1,
        "numTracks": 7,
        "ticksPerBeat": 128
    },
    "tracks": [
        [
            {
                "deltaTime": 0,
                "meta": true,
                "type": "trackName",
                "text": "Bass"
            },
            {
                "deltaTime": 0,
                "meta": true,
                "type": "setTempo",
                "microsecondsPerBeat": 428571
            },
            {
                "deltaTime": 6528,
                "channel": 0,
                "type": "noteOn",
                "noteNumber": 72,
                "velocity": 50
            },
            {
                "deltaTime": 0,
                "channel": 0,
                "type": "noteOn",
                "noteNumber": 63,
                "velocity": 50
            },
            {
                "deltaTime": 192,
                "channel": 0,
                "type": "noteOff",
                "noteNumber": 63,
                "velocity": 50
            },
            {
                "deltaTime": 0,
                "channel": 0,
                "type": "noteOff",
                "noteNumber": 72,
                "velocity": 50
            },
            {
                "deltaTime": 64,
                "channel": 0,
                "type": "noteOn",
                "noteNumber": 67,
                "velocity": 50
            },
            {
                "deltaTime": 0,
                "channel": 0,
                "type": "noteOn",
                "noteNumber": 75,
                "velocity": 50
            },
            {
                "deltaTime": 64,
                "channel": 0,
                "type": "noteOn",
                "noteNumber": 79,
                "velocity": 50
            },
            {
                "deltaTime": 42,
                "channel": 0,
                "type": "noteOff",
                "noteNumber": 75,
                "velocity": 50
            },
            {
                "deltaTime": 0,
                "channel": 0,
                "type": "noteOff",
                "noteNumber": 67,
                "velocity": 50
            },
            {
                "deltaTime": 22,
                "channel": 0,
                "type": "noteOn",
                "noteNumber": 79,
                "velocity": 50
            },
            {
                "deltaTime": 10,
                "channel": 0,
                "type": "noteOn",
                "noteNumber": 87,
                "velocity": 50
            },
            {
                "deltaTime": 32,
                "channel": 0,
                "type": "noteOff",
                "noteNumber": 79,
                "velocity": 50
            },
            {
                "deltaTime": 64,
                "channel": 0,
                "type": "noteOff",
                "noteNumber": 79,
                "velocity": 50
            },
            {
                "deltaTime": 8,
                "channel": 0,
                "type": "noteOff",
                "noteNumber": 87,
                "velocity": 50
            },
            {
                "deltaTime": 142,
                "channel": 0,
                "type": "noteOn",
                "noteNumber": 86,
                "velocity": 50
            },
            {
                "deltaTime": 0,
                "channel": 0,
                "type": "noteOn",
                "noteNumber": 77,
                "velocity": 50
            },
            {
                "deltaTime": 106,
                "channel": 0,
                "type": "noteOff",
                "noteNumber": 86,
                "velocity": 50
            },
            {
                "deltaTime": 0,
                "channel": 0,
                "type": "noteOff",
                "noteNumber": 77,
                "velocity": 50
            },
            {
                "deltaTime": 22,
                "channel": 0,
                "type": "noteOn",
                "noteNumber": 82,
                "velocity": 50
            },
            {
                "deltaTime": 0,
                "channel": 0,
                "type": "noteOn",
                "noteNumber": 74,
                "velocity": 50
            },
            {
                "deltaTime": 106,
                "channel": 0,
                "type": "noteOff",
                "noteNumber": 82,
                "velocity": 50
            },
            {
                "deltaTime": 0,
                "channel": 0,
                "type": "noteOff",
                "noteNumber": 74,
                "velocity": 50
            },
            {
                "deltaTime": 86,
                "channel": 0,
                "type": "noteOn",
                "noteNumber": 72,
                "velocity": 50
            },
            {
                "deltaTime": 64,
                "channel": 0,
                "type": "noteOn",
                "noteNumber": 77,
                "velocity": 50
            },
            {
                "deltaTime": 0,
                "channel": 0,
                "type": "noteOn",
                "noteNumber": 74,
                "velocity": 50
            },
            {
                "deltaTime": 42,
                "channel": 0,
                "type": "noteOff",
                "noteNumber": 72,
                "velocity": 50
            },
            {
                "deltaTime": 64,
                "channel": 0,
                "type": "noteOff",
                "noteNumber": 77,
                "velocity": 50
            },
            {
                "deltaTime": 0,
                "channel": 0,
                "type": "noteOff",
                "noteNumber": 74,
                "velocity": 50
            },
            {
                "deltaTime": 22,
                "channel": 0,
                "type": "noteOn",
                "noteNumber": 79,
                "velocity": 50
            },
            {
                "deltaTime": 0,
                "channel": 0,
                "type": "noteOn",
                "noteNumber": 74,
                "velocity": 50
            },
            {
                "deltaTime": 106,
                "channel": 0,
                "type": "noteOff",
                "noteNumber": 74,
                "velocity": 50
            },
            {
                "deltaTime": 0,
                "channel": 0,
                "type": "noteOff",
                "noteNumber": 79,
                "velocity": 50
            },
            {
                "deltaTime": 278,
                "channel": 0,
                "type": "noteOn",
                "noteNumber": 79,
                "velocity": 50
            },
            {
                "deltaTime": 0,
                "channel": 0,
                "type": "noteOn",
                "noteNumber": 75,
                "velocity": 50
            },
            {
                "deltaTime": 106,
                "channel": 0,
                "type": "noteOff",
                "noteNumber": 79,
                "velocity": 50
            },
            {
                "deltaTime": 0,
                "channel": 0,
                "type": "noteOff",
                "noteNumber": 75,
                "velocity": 50
            },
            {
                "deltaTime": 150,
                "channel": 0,
                "type": "noteOn",
                "noteNumber": 77,
                "velocity": 50
            },
            {
                "deltaTime": 0,
                "channel": 0,
                "type": "noteOn",
                "noteNumber": 80,
                "velocity": 50
            },
            {
                "deltaTime": 64,
                "channel": 0,
                "type": "noteOn",
                "noteNumber": 82,
                "velocity": 50
            },
            {
                "deltaTime": 0,
                "channel": 0,
                "type": "noteOn",
                "noteNumber": 79,
                "velocity": 50
            },
            {
                "deltaTime": 40,
                "channel": 0,
                "type": "noteOff",
                "noteNumber": 77,
                "velocity": 50
            },
            {
                "deltaTime": 0,
                "channel": 0,
                "type": "noteOff",
                "noteNumber": 80,
                "velocity": 50
            },
            {
                "deltaTime": 24,
                "channel": 0,
                "type": "noteOn",
                "noteNumber": 77,
                "velocity": 50
            },
            {
                "deltaTime": 0,
                "channel": 0,
                "type": "noteOn",
                "noteNumber": 80,
                "velocity": 50
            },
            {
                "deltaTime": 40,
                "channel": 0,
                "type": "noteOff",
                "noteNumber": 82,
                "velocity": 50
            },
            {
                "deltaTime": 0,
                "channel": 0,
                "type": "noteOff",
                "noteNumber": 79,
                "velocity": 50
            },
            {
                "deltaTime": 152,
                "channel": 0,
                "type": "noteOff",
                "noteNumber": 80,
                "velocity": 50
            },
            {
                "deltaTime": 0,
                "channel": 0,
                "type": "noteOff",
                "noteNumber": 77,
                "velocity": 50
            },
            {
                "deltaTime": 64,
                "channel": 0,
                "type": "noteOn",
                "noteNumber": 79,
                "velocity": 50
            },
            {
                "deltaTime": 0,
                "channel": 0,
                "type": "noteOn",
                "noteNumber": 75,
                "velocity": 50
            },
            {
                "deltaTime": 104,
                "channel": 0,
                "type": "noteOff",
                "noteNumber": 79,
                "velocity": 50
            },
            {
                "deltaTime": 0,
                "channel": 0,
                "type": "noteOff",
                "noteNumber": 75,
                "velocity": 50
            },
            {
                "deltaTime": 24,
                "channel": 0,
                "type": "noteOn",
                "noteNumber": 77,
                "velocity": 50
            },
            {
                "deltaTime": 0,
                "channel": 0,
                "type": "noteOn",
                "noteNumber": 74,
                "velocity": 50
            },
            {
                "deltaTime": 64,
                "channel": 0,
                "type": "noteOn",
                "noteNumber": 72,
                "velocity": 50
            },
            {
                "deltaTime": 64,
                "channel": 0,
                "type": "noteOff",
                "noteNumber": 74,
                "velocity": 50
            },
            {
                "deltaTime": 0,
                "channel": 0,
                "type": "noteOn",
                "noteNumber": 74,
                "velocity": 50
            },
            {
                "deltaTime": 64,
                "channel": 0,
                "type": "noteOff",
                "noteNumber": 77,
                "velocity": 50
            },
            {
                "deltaTime": 0,
                "channel": 0,
                "type": "noteOff",
                "noteNumber": 72,
                "velocity": 50
            },
            {
                "deltaTime": 0,
                "channel": 0,
                "type": "noteOn",
                "noteNumber": 75,
                "velocity": 50
            },
            {
                "deltaTime": 0,
                "channel": 0,
                "type": "noteOn",
                "noteNumber": 72,
                "velocity": 50
            },
            {
                "deltaTime": 64,
                "channel": 0,
                "type": "noteOff",
                "noteNumber": 74,
                "velocity": 50
            },
            {
                "deltaTime": 0,
                "channel": 0,
                "type": "noteOn",
                "noteNumber": 70,
                "velocity": 50
            },
            {
                "deltaTime": 0,
                "channel": 0,
                "type": "noteOn",
                "noteNumber": 74,
                "velocity": 50
            },
            {
                "deltaTime": 64,
                "channel": 0,
                "type": "noteOff",
                "noteNumber": 72,
                "velocity": 50
            },
            {
                "deltaTime": 0,
                "channel": 0,
                "type": "noteOff",
                "noteNumber": 75,
                "velocity": 50
            },
            {
                "deltaTime": 0,
                "channel": 0,
                "type": "noteOn",
                "noteNumber": 75,
                "velocity": 50
            },
            {
                "deltaTime": 53,
                "channel": 0,
                "type": "noteOn",
                "noteNumber": 70,
                "velocity": 50
            },
            {
                "deltaTime": 11,
                "channel": 0,
                "type": "noteOff",
                "noteNumber": 74,
                "velocity": 50
            },
            {
                "deltaTime": 0,
                "channel": 0,
                "type": "noteOff",
                "noteNumber": 70,
                "velocity": 50
            },
            {
                "deltaTime": 21,
                "channel": 0,
                "type": "noteOn",
                "noteNumber": 74,
                "velocity": 50
            },
            {
                "deltaTime": 11,
                "channel": 0,
                "type": "noteOn",
                "noteNumber": 79,
                "velocity": 50
            },
            {
                "deltaTime": 32,
                "channel": 0,
                "type": "noteOff",
                "noteNumber": 75,
                "velocity": 50
            },
            {
                "deltaTime": 253,
                "channel": 0,
                "type": "noteOff",
                "noteNumber": 70,
                "velocity": 50
            },
            {
                "deltaTime": 0,
                "channel": 0,
                "type": "noteOff",
                "noteNumber": 74,
                "velocity": 50
            },
            {
                "deltaTime": 3,
                "channel": 0,
                "type": "noteOff",
                "noteNumber": 79,
                "velocity": 50
            },
            {
                "deltaTime": 64,
                "channel": 0,
                "type": "noteOn",
                "noteNumber": 72,
                "velocity": 50
            },
            {
                "deltaTime": 0,
                "channel": 0,
                "type": "noteOn",
                "noteNumber": 63,
                "velocity": 50
            },
            {
                "deltaTime": 192,
                "channel": 0,
                "type": "noteOff",
                "noteNumber": 72,
                "velocity": 50
            },
            {
                "deltaTime": 0,
                "channel": 0,
                "type": "noteOff",
                "noteNumber": 63,
                "velocity": 50
            },
            {
                "deltaTime": 64,
                "channel": 0,
                "type": "noteOn",
                "noteNumber": 75,
                "velocity": 50
            },
            {
                "deltaTime": 0,
                "channel": 0,
                "type": "noteOn",
                "noteNumber": 67,
                "velocity": 50
            },
            {
                "deltaTime": 64,
                "channel": 0,
                "type": "noteOn",
                "noteNumber": 79,
                "velocity": 50
            },
            {
                "deltaTime": 40,
                "channel": 0,
                "type": "noteOff",
                "noteNumber": 75,
                "velocity": 50
            },
            {
                "deltaTime": 0,
                "channel": 0,
                "type": "noteOff",
                "noteNumber": 67,
                "velocity": 50
            },
            {
                "deltaTime": 24,
                "channel": 0,
                "type": "noteOn",
                "noteNumber": 79,
                "velocity": 50
            },
            {
                "deltaTime": 10,
                "channel": 0,
                "type": "noteOn",
                "noteNumber": 87,
                "velocity": 50
            },
            {
                "deltaTime": 30,
                "channel": 0,
                "type": "noteOff",
                "noteNumber": 79,
                "velocity": 50
            },
            {
                "deltaTime": 64,
                "channel": 0,
                "type": "noteOff",
                "noteNumber": 79,
                "velocity": 50
            },
            {
                "deltaTime": 13,
                "channel": 0,
                "type": "noteOff",
                "noteNumber": 87,
                "velocity": 50
            },
            {
                "deltaTime": 139,
                "channel": 0,
                "type": "noteOn",
                "noteNumber": 86,
                "velocity": 50
            },
            {
                "deltaTime": 0,
                "channel": 0,
                "type": "noteOn",
                "noteNumber": 77,
                "velocity": 50
            },
            {
                "deltaTime": 104,
                "channel": 0,
                "type": "noteOff",
                "noteNumber": 77,
                "velocity": 50
            },
            {
                "deltaTime": 0,
                "channel": 0,
                "type": "noteOff",
                "noteNumber": 86,
                "velocity": 50
            },
            {
                "deltaTime": 24,
                "channel": 0,
                "type": "noteOn",
                "noteNumber": 82,
                "velocity": 50
            },
            {
                "deltaTime": 0,
                "channel": 0,
                "type": "noteOn",
                "noteNumber": 74,
                "velocity": 50
            },
            {
                "deltaTime": 104,
                "channel": 0,
                "type": "noteOff",
                "noteNumber": 82,
                "velocity": 50
            },
            {
                "deltaTime": 0,
                "channel": 0,
                "type": "noteOff",
                "noteNumber": 74,
                "velocity": 50
            },
            {
                "deltaTime": 88,
                "channel": 0,
                "type": "noteOn",
                "noteNumber": 72,
                "velocity": 50
            },
            {
                "deltaTime": 64,
                "channel": 0,
                "type": "noteOn",
                "noteNumber": 77,
                "velocity": 50
            },
            {
                "deltaTime": 0,
                "channel": 0,
                "type": "noteOn",
                "noteNumber": 74,
                "velocity": 50
            },
            {
                "deltaTime": 0,
                "channel": 0,
                "type": "noteOn",
                "noteNumber": 70,
                "velocity": 50
            },
            {
                "deltaTime": 40,
                "channel": 0,
                "type": "noteOff",
                "noteNumber": 72,
                "velocity": 50
            },
            {
                "deltaTime": 24,
                "channel": 0,
                "type": "noteOn",
                "noteNumber": 68,
                "velocity": 50
            },
            {
                "deltaTime": 40,
                "channel": 0,
                "type": "noteOff",
                "noteNumber": 70,
                "velocity": 50
            },
            {
                "deltaTime": 0,
                "channel": 0,
                "type": "noteOff",
                "noteNumber": 74,
                "velocity": 50
            },
            {
                "deltaTime": 0,
                "channel": 0,
                "type": "noteOff",
                "noteNumber": 77,
                "velocity": 50
            },
            {
                "deltaTime": 24,
                "channel": 0,
                "type": "noteOn",
                "noteNumber": 79,
                "velocity": 50
            },
            {
                "deltaTime": 0,
                "channel": 0,
                "type": "noteOn",
                "noteNumber": 74,
                "velocity": 50
            },
            {
                "deltaTime": 0,
                "channel": 0,
                "type": "noteOn",
                "noteNumber": 70,
                "velocity": 50
            },
            {
                "deltaTime": 40,
                "channel": 0,
                "type": "noteOff",
                "noteNumber": 68,
                "velocity": 50
            },
            {
                "deltaTime": 280,
                "channel": 0,
                "type": "noteOff",
                "noteNumber": 79,
                "velocity": 50
            },
            {
                "deltaTime": 0,
                "channel": 0,
                "type": "noteOff",
                "noteNumber": 74,
                "velocity": 50
            },
            {
                "deltaTime": 0,
                "channel": 0,
                "type": "noteOff",
                "noteNumber": 70,
                "velocity": 50
            },
            {
                "deltaTime": 64,
                "channel": 0,
                "type": "noteOn",
                "noteNumber": 79,
                "velocity": 50
            },
            {
                "deltaTime": 0,
                "channel": 0,
                "type": "noteOn",
                "noteNumber": 75,
                "velocity": 50
            },
            {
                "deltaTime": 104,
                "channel": 0,
                "type": "noteOff",
                "noteNumber": 79,
                "velocity": 50
            },
            {
                "deltaTime": 0,
                "channel": 0,
                "type": "noteOff",
                "noteNumber": 75,
                "velocity": 50
            },
            {
                "deltaTime": 24,
                "channel": 0,
                "type": "noteOn",
                "noteNumber": 77,
                "velocity": 50
            },
            {
                "deltaTime": 0,
                "channel": 0,
                "type": "noteOn",
                "noteNumber": 80,
                "velocity": 50
            },
            {
                "deltaTime": 104,
                "channel": 0,
                "type": "noteOff",
                "noteNumber": 80,
                "velocity": 50
            },
            {
                "deltaTime": 0,
                "channel": 0,
                "type": "noteOff",
                "noteNumber": 77,
                "velocity": 50
            },
            {
                "deltaTime": 66,
                "channel": 0,
                "type": "noteOn",
                "noteNumber": 82,
                "velocity": 50
            },
            {
                "deltaTime": 0,
                "channel": 0,
                "type": "noteOn",
                "noteNumber": 79,
                "velocity": 50
            },
            {
                "deltaTime": 86,
                "channel": 0,
                "type": "noteOn",
                "noteNumber": 80,
                "velocity": 50
            },
            {
                "deltaTime": 0,
                "channel": 0,
                "type": "noteOn",
                "noteNumber": 77,
                "velocity": 50
            },
            {
                "deltaTime": 21,
                "channel": 0,
                "type": "noteOff",
                "noteNumber": 82,
                "velocity": 50
            },
            {
                "deltaTime": 0,
                "channel": 0,
                "type": "noteOff",
                "noteNumber": 79,
                "velocity": 50
            },
            {
                "deltaTime": 83,
                "channel": 0,
                "type": "noteOff",
                "noteNumber": 80,
                "velocity": 50
            },
            {
                "deltaTime": 0,
                "channel": 0,
                "type": "noteOff",
                "noteNumber": 77,
                "velocity": 50
            },
            {
                "deltaTime": 152,
                "channel": 0,
                "type": "noteOn",
                "noteNumber": 79,
                "velocity": 50
            },
            {
                "deltaTime": 0,
                "channel": 0,
                "type": "noteOn",
                "noteNumber": 75,
                "velocity": 50
            },
            {
                "deltaTime": 104,
                "channel": 0,
                "type": "noteOff",
                "noteNumber": 79,
                "velocity": 50
            },
            {
                "deltaTime": 0,
                "channel": 0,
                "type": "noteOff",
                "noteNumber": 75,
                "velocity": 50
            },
            {
                "deltaTime": 24,
                "channel": 0,
                "type": "noteOn",
                "noteNumber": 77,
                "velocity": 50
            },
            {
                "deltaTime": 0,
                "channel": 0,
                "type": "noteOn",
                "noteNumber": 74,
                "velocity": 50
            },
            {
                "deltaTime": 192,
                "channel": 0,
                "type": "noteOn",
                "noteNumber": 72,
                "velocity": 50
            },
            {
                "deltaTime": 0,
                "channel": 0,
                "type": "noteOn",
                "noteNumber": 75,
                "velocity": 50
            },
            {
                "deltaTime": 40,
                "channel": 0,
                "type": "noteOff",
                "noteNumber": 74,
                "velocity": 50
            },
            {
                "deltaTime": 0,
                "channel": 0,
                "type": "noteOff",
                "noteNumber": 77,
                "velocity": 50
            },
            {
                "deltaTime": 24,
                "channel": 0,
                "type": "noteOn",
                "noteNumber": 77,
                "velocity": 50
            },
            {
                "deltaTime": 0,
                "channel": 0,
                "type": "noteOn",
                "noteNumber": 74,
                "velocity": 50
            },
            {
                "deltaTime": 40,
                "channel": 0,
                "type": "noteOff",
                "noteNumber": 75,
                "velocity": 50
            },
            {
                "deltaTime": 0,
                "channel": 0,
                "type": "noteOff",
                "noteNumber": 72,
                "velocity": 50
            },
            {
                "deltaTime": 64,
                "channel": 0,
                "type": "noteOff",
                "noteNumber": 77,
                "velocity": 50
            },
            {
                "deltaTime": 0,
                "channel": 0,
                "type": "noteOff",
                "noteNumber": 74,
                "velocity": 50
            },
            {
                "deltaTime": 24,
                "channel": 0,
                "type": "noteOn",
                "noteNumber": 79,
                "velocity": 50
            },
            {
                "deltaTime": 0,
                "channel": 0,
                "type": "noteOn",
                "noteNumber": 74,
                "velocity": 50
            },
            {
                "deltaTime": 360,
                "channel": 0,
                "type": "noteOff",
                "noteNumber": 79,
                "velocity": 50
            },
            {
                "deltaTime": 0,
                "channel": 0,
                "type": "noteOff",
                "noteNumber": 74,
                "velocity": 50
            },
            {
                "deltaTime": 24,
                "channel": 0,
                "type": "noteOn",
                "noteNumber": 72,
                "velocity": 50
            },
            {
                "deltaTime": 0,
                "channel": 0,
                "type": "noteOn",
                "noteNumber": 63,
                "velocity": 50
            },
            {
                "deltaTime": 192,
                "channel": 0,
                "type": "noteOff",
                "noteNumber": 72,
                "velocity": 50
            },
            {
                "deltaTime": 0,
                "channel": 0,
                "type": "noteOff",
                "noteNumber": 63,
                "velocity": 50
            },
            {
                "deltaTime": 64,
                "channel": 0,
                "type": "noteOn",
                "noteNumber": 67,
                "velocity": 50
            },
            {
                "deltaTime": 0,
                "channel": 0,
                "type": "noteOn",
                "noteNumber": 75,
                "velocity": 50
            },
            {
                "deltaTime": 64,
                "channel": 0,
                "type": "noteOn",
                "noteNumber": 79,
                "velocity": 50
            },
            {
                "deltaTime": 40,
                "channel": 0,
                "type": "noteOff",
                "noteNumber": 67,
                "velocity": 50
            },
            {
                "deltaTime": 0,
                "channel": 0,
                "type": "noteOff",
                "noteNumber": 75,
                "velocity": 50
            },
            {
                "deltaTime": 24,
                "channel": 0,
                "type": "noteOn",
                "noteNumber": 79,
                "velocity": 50
            },
            {
                "deltaTime": 10,
                "channel": 0,
                "type": "noteOn",
                "noteNumber": 87,
                "velocity": 50
            },
            {
                "deltaTime": 30,
                "channel": 0,
                "type": "noteOff",
                "noteNumber": 79,
                "velocity": 50
            },
            {
                "deltaTime": 64,
                "channel": 0,
                "type": "noteOff",
                "noteNumber": 79,
                "velocity": 50
            },
            {
                "deltaTime": 13,
                "channel": 0,
                "type": "noteOff",
                "noteNumber": 87,
                "velocity": 50
            },
            {
                "deltaTime": 139,
                "channel": 0,
                "type": "noteOn",
                "noteNumber": 86,
                "velocity": 50
            },
            {
                "deltaTime": 0,
                "channel": 0,
                "type": "noteOn",
                "noteNumber": 77,
                "velocity": 50
            },
            {
                "deltaTime": 104,
                "channel": 0,
                "type": "noteOff",
                "noteNumber": 77,
                "velocity": 50
            },
            {
                "deltaTime": 0,
                "channel": 0,
                "type": "noteOff",
                "noteNumber": 86,
                "velocity": 50
            },
            {
                "deltaTime": 24,
                "channel": 0,
                "type": "noteOn",
                "noteNumber": 82,
                "velocity": 50
            },
            {
                "deltaTime": 0,
                "channel": 0,
                "type": "noteOn",
                "noteNumber": 74,
                "velocity": 50
            },
            {
                "deltaTime": 104,
                "channel": 0,
                "type": "noteOff",
                "noteNumber": 82,
                "velocity": 50
            },
            {
                "deltaTime": 0,
                "channel": 0,
                "type": "noteOff",
                "noteNumber": 74,
                "velocity": 50
            },
            {
                "deltaTime": 88,
                "channel": 0,
                "type": "noteOn",
                "noteNumber": 74,
                "velocity": 50
            },
            {
                "deltaTime": 64,
                "channel": 0,
                "type": "noteOn",
                "noteNumber": 77,
                "velocity": 50
            },
            {
                "deltaTime": 0,
                "channel": 0,
                "type": "noteOn",
                "noteNumber": 72,
                "velocity": 50
            },
            {
                "deltaTime": 40,
                "channel": 0,
                "type": "noteOff",
                "noteNumber": 74,
                "velocity": 50
            },
            {
                "deltaTime": 64,
                "channel": 0,
                "type": "noteOff",
                "noteNumber": 77,
                "velocity": 50
            },
            {
                "deltaTime": 0,
                "channel": 0,
                "type": "noteOff",
                "noteNumber": 72,
                "velocity": 50
            },
            {
                "deltaTime": 24,
                "channel": 0,
                "type": "noteOn",
                "noteNumber": 79,
                "velocity": 50
            },
            {
                "deltaTime": 0,
                "channel": 0,
                "type": "noteOn",
                "noteNumber": 74,
                "velocity": 50
            },
            {
                "deltaTime": 104,
                "channel": 0,
                "type": "noteOff",
                "noteNumber": 74,
                "velocity": 50
            },
            {
                "deltaTime": 0,
                "channel": 0,
                "type": "noteOff",
                "noteNumber": 79,
                "velocity": 50
            },
            {
                "deltaTime": 280,
                "channel": 0,
                "type": "noteOn",
                "noteNumber": 79,
                "velocity": 50
            },
            {
                "deltaTime": 0,
                "channel": 0,
                "type": "noteOn",
                "noteNumber": 75,
                "velocity": 50
            },
            {
                "deltaTime": 104,
                "channel": 0,
                "type": "noteOff",
                "noteNumber": 79,
                "velocity": 50
            },
            {
                "deltaTime": 0,
                "channel": 0,
                "type": "noteOff",
                "noteNumber": 75,
                "velocity": 50
            },
            {
                "deltaTime": 152,
                "channel": 0,
                "type": "noteOn",
                "noteNumber": 80,
                "velocity": 50
            },
            {
                "deltaTime": 0,
                "channel": 0,
                "type": "noteOn",
                "noteNumber": 77,
                "velocity": 50
            },
            {
                "deltaTime": 64,
                "channel": 0,
                "type": "noteOn",
                "noteNumber": 82,
                "velocity": 50
            },
            {
                "deltaTime": 0,
                "channel": 0,
                "type": "noteOn",
                "noteNumber": 79,
                "velocity": 50
            },
            {
                "deltaTime": 40,
                "channel": 0,
                "type": "noteOff",
                "noteNumber": 77,
                "velocity": 50
            },
            {
                "deltaTime": 0,
                "channel": 0,
                "type": "noteOff",
                "noteNumber": 80,
                "velocity": 50
            },
            {
                "deltaTime": 24,
                "channel": 0,
                "type": "noteOn",
                "noteNumber": 80,
                "velocity": 50
            },
            {
                "deltaTime": 0,
                "channel": 0,
                "type": "noteOn",
                "noteNumber": 77,
                "velocity": 50
            },
            {
                "deltaTime": 40,
                "channel": 0,
                "type": "noteOff",
                "noteNumber": 82,
                "velocity": 50
            },
            {
                "deltaTime": 0,
                "channel": 0,
                "type": "noteOff",
                "noteNumber": 79,
                "velocity": 50
            },
            {
                "deltaTime": 152,
                "channel": 0,
                "type": "noteOff",
                "noteNumber": 80,
                "velocity": 50
            },
            {
                "deltaTime": 0,
                "channel": 0,
                "type": "noteOff",
                "noteNumber": 77,
                "velocity": 50
            },
            {
                "deltaTime": 64,
                "channel": 0,
                "type": "noteOn",
                "noteNumber": 79,
                "velocity": 50
            },
            {
                "deltaTime": 0,
                "channel": 0,
                "type": "noteOn",
                "noteNumber": 75,
                "velocity": 50
            },
            {
                "deltaTime": 104,
                "channel": 0,
                "type": "noteOff",
                "noteNumber": 79,
                "velocity": 50
            },
            {
                "deltaTime": 0,
                "channel": 0,
                "type": "noteOff",
                "noteNumber": 75,
                "velocity": 50
            },
            {
                "deltaTime": 24,
                "channel": 0,
                "type": "noteOn",
                "noteNumber": 77,
                "velocity": 50
            },
            {
                "deltaTime": 0,
                "channel": 0,
                "type": "noteOn",
                "noteNumber": 74,
                "velocity": 50
            },
            {
                "deltaTime": 64,
                "channel": 0,
                "type": "noteOn",
                "noteNumber": 72,
                "velocity": 50
            },
            {
                "deltaTime": 64,
                "channel": 0,
                "type": "noteOff",
                "noteNumber": 74,
                "velocity": 50
            },
            {
                "deltaTime": 0,
                "channel": 0,
                "type": "noteOn",
                "noteNumber": 74,
                "velocity": 50
            },
            {
                "deltaTime": 64,
                "channel": 0,
                "type": "noteOff",
                "noteNumber": 77,
                "velocity": 50
            },
            {
                "deltaTime": 0,
                "channel": 0,
                "type": "noteOff",
                "noteNumber": 72,
                "velocity": 50
            },
            {
                "deltaTime": 0,
                "channel": 0,
                "type": "noteOn",
                "noteNumber": 72,
                "velocity": 50
            },
            {
                "deltaTime": 0,
                "channel": 0,
                "type": "noteOn",
                "noteNumber": 75,
                "velocity": 50
            },
            {
                "deltaTime": 64,
                "channel": 0,
                "type": "noteOff",
                "noteNumber": 74,
                "velocity": 50
            },
            {
                "deltaTime": 0,
                "channel": 0,
                "type": "noteOn",
                "noteNumber": 70,
                "velocity": 50
            },
            {
                "deltaTime": 0,
                "channel": 0,
                "type": "noteOn",
                "noteNumber": 74,
                "velocity": 50
            },
            {
                "deltaTime": 64,
                "channel": 0,
                "type": "noteOff",
                "noteNumber": 72,
                "velocity": 50
            },
            {
                "deltaTime": 0,
                "channel": 0,
                "type": "noteOff",
                "noteNumber": 75,
                "velocity": 50
            },
            {
                "deltaTime": 0,
                "channel": 0,
                "type": "noteOn",
                "noteNumber": 75,
                "velocity": 50
            },
            {
                "deltaTime": 53,
                "channel": 0,
                "type": "noteOn",
                "noteNumber": 70,
                "velocity": 50
            },
            {
                "deltaTime": 11,
                "channel": 0,
                "type": "noteOff",
                "noteNumber": 70,
                "velocity": 50
            },
            {
                "deltaTime": 0,
                "channel": 0,
                "type": "noteOff",
                "noteNumber": 74,
                "velocity": 50
            },
            {
                "deltaTime": 21,
                "channel": 0,
                "type": "noteOn",
                "noteNumber": 74,
                "velocity": 50
            },
            {
                "deltaTime": 11,
                "channel": 0,
                "type": "noteOn",
                "noteNumber": 79,
                "velocity": 50
            },
            {
                "deltaTime": 32,
                "channel": 0,
                "type": "noteOff",
                "noteNumber": 75,
                "velocity": 50
            },
            {
                "deltaTime": 253,
                "channel": 0,
                "type": "noteOff",
                "noteNumber": 70,
                "velocity": 50
            },
            {
                "deltaTime": 0,
                "channel": 0,
                "type": "noteOff",
                "noteNumber": 74,
                "velocity": 50
            },
            {
                "deltaTime": 3,
                "channel": 0,
                "type": "noteOff",
                "noteNumber": 79,
                "velocity": 50
            },
            {
                "deltaTime": 64,
                "channel": 0,
                "type": "noteOn",
                "noteNumber": 63,
                "velocity": 50
            },
            {
                "deltaTime": 0,
                "channel": 0,
                "type": "noteOn",
                "noteNumber": 72,
                "velocity": 50
            },
            {
                "deltaTime": 192,
                "channel": 0,
                "type": "noteOff",
                "noteNumber": 72,
                "velocity": 50
            },
            {
                "deltaTime": 0,
                "channel": 0,
                "type": "noteOff",
                "noteNumber": 63,
                "velocity": 50
            },
            {
                "deltaTime": 64,
                "channel": 0,
                "type": "noteOn",
                "noteNumber": 75,
                "velocity": 50
            },
            {
                "deltaTime": 0,
                "channel": 0,
                "type": "noteOn",
                "noteNumber": 67,
                "velocity": 50
            },
            {
                "deltaTime": 64,
                "channel": 0,
                "type": "noteOn",
                "noteNumber": 79,
                "velocity": 50
            },
            {
                "deltaTime": 40,
                "channel": 0,
                "type": "noteOff",
                "noteNumber": 75,
                "velocity": 50
            },
            {
                "deltaTime": 0,
                "channel": 0,
                "type": "noteOff",
                "noteNumber": 67,
                "velocity": 50
            },
            {
                "deltaTime": 24,
                "channel": 0,
                "type": "noteOn",
                "noteNumber": 79,
                "velocity": 50
            },
            {
                "deltaTime": 10,
                "channel": 0,
                "type": "noteOn",
                "noteNumber": 87,
                "velocity": 50
            },
            {
                "deltaTime": 30,
                "channel": 0,
                "type": "noteOff",
                "noteNumber": 79,
                "velocity": 50
            },
            {
                "deltaTime": 64,
                "channel": 0,
                "type": "noteOff",
                "noteNumber": 79,
                "velocity": 50
            },
            {
                "deltaTime": 13,
                "channel": 0,
                "type": "noteOff",
                "noteNumber": 87,
                "velocity": 50
            },
            {
                "deltaTime": 139,
                "channel": 0,
                "type": "noteOn",
                "noteNumber": 86,
                "velocity": 50
            },
            {
                "deltaTime": 0,
                "channel": 0,
                "type": "noteOn",
                "noteNumber": 77,
                "velocity": 50
            },
            {
                "deltaTime": 106,
                "channel": 0,
                "type": "noteOff",
                "noteNumber": 77,
                "velocity": 50
            },
            {
                "deltaTime": 0,
                "channel": 0,
                "type": "noteOff",
                "noteNumber": 86,
                "velocity": 50
            },
            {
                "deltaTime": 22,
                "channel": 0,
                "type": "noteOn",
                "noteNumber": 82,
                "velocity": 50
            },
            {
                "deltaTime": 0,
                "channel": 0,
                "type": "noteOn",
                "noteNumber": 74,
                "velocity": 50
            },
            {
                "deltaTime": 106,
                "channel": 0,
                "type": "noteOff",
                "noteNumber": 74,
                "velocity": 50
            },
            {
                "deltaTime": 0,
                "channel": 0,
                "type": "noteOff",
                "noteNumber": 82,
                "velocity": 50
            },
            {
                "deltaTime": 86,
                "channel": 0,
                "type": "noteOn",
                "noteNumber": 72,
                "velocity": 50
            },
            {
                "deltaTime": 64,
                "channel": 0,
                "type": "noteOn",
                "noteNumber": 70,
                "velocity": 50
            },
            {
                "deltaTime": 0,
                "channel": 0,
                "type": "noteOn",
                "noteNumber": 77,
                "velocity": 50
            },
            {
                "deltaTime": 42,
                "channel": 0,
                "type": "noteOff",
                "noteNumber": 72,
                "velocity": 50
            },
            {
                "deltaTime": 22,
                "channel": 0,
                "type": "noteOn",
                "noteNumber": 68,
                "velocity": 50
            },
            {
                "deltaTime": 42,
                "channel": 0,
                "type": "noteOff",
                "noteNumber": 77,
                "velocity": 50
            },
            {
                "deltaTime": 0,
                "channel": 0,
                "type": "noteOff",
                "noteNumber": 70,
                "velocity": 50
            },
            {
                "deltaTime": 22,
                "channel": 0,
                "type": "noteOn",
                "noteNumber": 79,
                "velocity": 50
            },
            {
                "deltaTime": 0,
                "channel": 0,
                "type": "noteOn",
                "noteNumber": 70,
                "velocity": 50
            },
            {
                "deltaTime": 42,
                "channel": 0,
                "type": "noteOff",
                "noteNumber": 68,
                "velocity": 50
            },
            {
                "deltaTime": 342,
                "channel": 0,
                "type": "noteOn",
                "noteNumber": 79,
                "velocity": 50
            },
            {
                "deltaTime": 0,
                "channel": 0,
                "type": "noteOn",
                "noteNumber": 75,
                "velocity": 50
            },
            {
                "deltaTime": 18,
                "channel": 0,
                "type": "noteOff",
                "noteNumber": 79,
                "velocity": 50
            },
            {
                "deltaTime": 0,
                "channel": 0,
                "type": "noteOff",
                "noteNumber": 70,
                "velocity": 50
            },
            {
                "deltaTime": 88,
                "channel": 0,
                "type": "noteOff",
                "noteNumber": 79,
                "velocity": 50
            },
            {
                "deltaTime": 0,
                "channel": 0,
                "type": "noteOff",
                "noteNumber": 75,
                "velocity": 50
            },
            {
                "deltaTime": 22,
                "channel": 0,
                "type": "noteOn",
                "noteNumber": 80,
                "velocity": 50
            },
            {
                "deltaTime": 0,
                "channel": 0,
                "type": "noteOn",
                "noteNumber": 77,
                "velocity": 50
            },
            {
                "deltaTime": 192,
                "channel": 0,
                "type": "noteOff",
                "noteNumber": 80,
                "velocity": 50
            },
            {
                "deltaTime": 0,
                "channel": 0,
                "type": "noteOff",
                "noteNumber": 77,
                "velocity": 50
            },
            {
                "deltaTime": 0,
                "channel": 0,
                "type": "noteOn",
                "noteNumber": 82,
                "velocity": 50
            },
            {
                "deltaTime": 0,
                "channel": 0,
                "type": "noteOn",
                "noteNumber": 79,
                "velocity": 50
            },
            {
                "deltaTime": 64,
                "channel": 0,
                "type": "noteOn",
                "noteNumber": 80,
                "velocity": 50
            },
            {
                "deltaTime": 0,
                "channel": 0,
                "type": "noteOn",
                "noteNumber": 77,
                "velocity": 50
            },
            {
                "deltaTime": 42,
                "channel": 0,
                "type": "noteOff",
                "noteNumber": 82,
                "velocity": 50
            },
            {
                "deltaTime": 0,
                "channel": 0,
                "type": "noteOff",
                "noteNumber": 79,
                "velocity": 50
            },
            {
                "deltaTime": 214,
                "channel": 0,
                "type": "noteOn",
                "noteNumber": 75,
                "velocity": 50
            },
            {
                "deltaTime": 0,
                "channel": 0,
                "type": "noteOn",
                "noteNumber": 79,
                "velocity": 50
            },
            {
                "deltaTime": 18,
                "channel": 0,
                "type": "noteOff",
                "noteNumber": 77,
                "velocity": 50
            },
            {
                "deltaTime": 0,
                "channel": 0,
                "type": "noteOff",
                "noteNumber": 80,
                "velocity": 50
            },
            {
                "deltaTime": 88,
                "channel": 0,
                "type": "noteOff",
                "noteNumber": 75,
                "velocity": 50
            },
            {
                "deltaTime": 0,
                "channel": 0,
                "type": "noteOff",
                "noteNumber": 79,
                "velocity": 50
            },
            {
                "deltaTime": 22,
                "channel": 0,
                "type": "noteOn",
                "noteNumber": 77,
                "velocity": 50
            },
            {
                "deltaTime": 0,
                "channel": 0,
                "type": "noteOn",
                "noteNumber": 74,
                "velocity": 50
            },
            {
                "deltaTime": 192,
                "channel": 0,
                "type": "noteOn",
                "noteNumber": 75,
                "velocity": 50
            },
            {
                "deltaTime": 0,
                "channel": 0,
                "type": "noteOn",
                "noteNumber": 72,
                "velocity": 50
            },
            {
                "deltaTime": 42,
                "channel": 0,
                "type": "noteOff",
                "noteNumber": 77,
                "velocity": 50
            },
            {
                "deltaTime": 0,
                "channel": 0,
                "type": "noteOff",
                "noteNumber": 74,
                "velocity": 50
            },
            {
                "deltaTime": 22,
                "channel": 0,
                "type": "noteOn",
                "noteNumber": 77,
                "velocity": 50
            },
            {
                "deltaTime": 0,
                "channel": 0,
                "type": "noteOn",
                "noteNumber": 74,
                "velocity": 50
            },
            {
                "deltaTime": 42,
                "channel": 0,
                "type": "noteOff",
                "noteNumber": 75,
                "velocity": 50
            },
            {
                "deltaTime": 0,
                "channel": 0,
                "type": "noteOff",
                "noteNumber": 72,
                "velocity": 50
            },
            {
                "deltaTime": 64,
                "channel": 0,
                "type": "noteOff",
                "noteNumber": 74,
                "velocity": 50
            },
            {
                "deltaTime": 0,
                "channel": 0,
                "type": "noteOff",
                "noteNumber": 77,
                "velocity": 50
            },
            {
                "deltaTime": 22,
                "channel": 0,
                "type": "noteOn",
                "noteNumber": 79,
                "velocity": 50
            },
            {
                "deltaTime": 0,
                "channel": 0,
                "type": "noteOn",
                "noteNumber": 74,
                "velocity": 50
            },
            {
                "deltaTime": 448,
                "channel": 0,
                "type": "noteOff",
                "noteNumber": 79,
                "velocity": 50
            },
            {
                "deltaTime": 0,
                "channel": 0,
                "type": "noteOff",
                "noteNumber": 74,
                "velocity": 50
            },
            {
                "deltaTime": 64,
                "channel": 0,
                "type": "noteOn",
                "noteNumber": 86,
                "velocity": 16
            },
            {
                "deltaTime": 64,
                "channel": 0,
                "type": "noteOn",
                "noteNumber": 87,
                "velocity": 16
            },
            {
                "deltaTime": 64,
                "channel": 0,
                "type": "noteOff",
                "noteNumber": 86,
                "velocity": 16
            },
            {
                "deltaTime": 0,
                "channel": 0,
                "type": "noteOn",
                "noteNumber": 86,
                "velocity": 16
            },
            {
                "deltaTime": 64,
                "channel": 0,
                "type": "noteOff",
                "noteNumber": 87,
                "velocity": 16
            },
            {
                "deltaTime": 0,
                "channel": 0,
                "type": "noteOn",
                "noteNumber": 84,
                "velocity": 16
            },
            {
                "deltaTime": 64,
                "channel": 0,
                "type": "noteOff",
                "noteNumber": 86,
                "velocity": 16
            },
            {
                "deltaTime": 0,
                "channel": 0,
                "type": "noteOn",
                "noteNumber": 79,
                "velocity": 16
            },
            {
                "deltaTime": 64,
                "channel": 0,
                "type": "noteOff",
                "noteNumber": 84,
                "velocity": 16
            },
            {
                "deltaTime": 64,
                "channel": 0,
                "type": "noteOn",
                "noteNumber": 75,
                "velocity": 16
            },
            {
                "deltaTime": 64,
                "channel": 0,
                "type": "noteOff",
                "noteNumber": 79,
                "velocity": 16
            },
            {
                "deltaTime": 64,
                "channel": 0,
                "type": "noteOn",
                "noteNumber": 79,
                "velocity": 16
            },
            {
                "deltaTime": 64,
                "channel": 0,
                "type": "noteOff",
                "noteNumber": 75,
                "velocity": 16
            },
            {
                "deltaTime": 82,
                "channel": 0,
                "type": "noteOff",
                "noteNumber": 79,
                "velocity": 16
            },
            {
                "deltaTime": 110,
                "channel": 0,
                "type": "noteOn",
                "noteNumber": 86,
                "velocity": 16
            },
            {
                "deltaTime": 64,
                "channel": 0,
                "type": "noteOn",
                "noteNumber": 87,
                "velocity": 16
            },
            {
                "deltaTime": 64,
                "channel": 0,
                "type": "noteOff",
                "noteNumber": 86,
                "velocity": 16
            },
            {
                "deltaTime": 0,
                "channel": 0,
                "type": "noteOn",
                "noteNumber": 86,
                "velocity": 16
            },
            {
                "deltaTime": 64,
                "channel": 0,
                "type": "noteOff",
                "noteNumber": 87,
                "velocity": 16
            },
            {
                "deltaTime": 0,
                "channel": 0,
                "type": "noteOn",
                "noteNumber": 84,
                "velocity": 16
            },
            {
                "deltaTime": 64,
                "channel": 0,
                "type": "noteOff",
                "noteNumber": 86,
                "velocity": 16
            },
            {
                "deltaTime": 0,
                "channel": 0,
                "type": "noteOn",
                "noteNumber": 89,
                "velocity": 16
            },
            {
                "deltaTime": 64,
                "channel": 0,
                "type": "noteOff",
                "noteNumber": 84,
                "velocity": 16
            },
            {
                "deltaTime": 338,
                "channel": 0,
                "type": "noteOff",
                "noteNumber": 89,
                "velocity": 16
            },
            {
                "deltaTime": 110,
                "channel": 0,
                "type": "noteOn",
                "noteNumber": 86,
                "velocity": 16
            },
            {
                "deltaTime": 64,
                "channel": 0,
                "type": "noteOn",
                "noteNumber": 87,
                "velocity": 16
            },
            {
                "deltaTime": 64,
                "channel": 0,
                "type": "noteOff",
                "noteNumber": 86,
                "velocity": 16
            },
            {
                "deltaTime": 0,
                "channel": 0,
                "type": "noteOn",
                "noteNumber": 86,
                "velocity": 16
            },
            {
                "deltaTime": 64,
                "channel": 0,
                "type": "noteOff",
                "noteNumber": 87,
                "velocity": 16
            },
            {
                "deltaTime": 0,
                "channel": 0,
                "type": "noteOn",
                "noteNumber": 84,
                "velocity": 16
            },
            {
                "deltaTime": 64,
                "channel": 0,
                "type": "noteOff",
                "noteNumber": 86,
                "velocity": 16
            },
            {
                "deltaTime": 0,
                "channel": 0,
                "type": "noteOn",
                "noteNumber": 86,
                "velocity": 16
            },
            {
                "deltaTime": 64,
                "channel": 0,
                "type": "noteOff",
                "noteNumber": 84,
                "velocity": 16
            },
            {
                "deltaTime": 192,
                "channel": 0,
                "type": "noteOn",
                "noteNumber": 87,
                "velocity": 16
            },
            {
                "deltaTime": 18,
                "channel": 0,
                "type": "noteOff",
                "noteNumber": 86,
                "velocity": 16
            },
            {
                "deltaTime": 88,
                "channel": 0,
                "type": "noteOff",
                "noteNumber": 87,
                "velocity": 16
            },
            {
                "deltaTime": 22,
                "channel": 0,
                "type": "noteOn",
                "noteNumber": 82,
                "velocity": 16
            },
            {
                "deltaTime": 106,
                "channel": 0,
                "type": "noteOff",
                "noteNumber": 82,
                "velocity": 16
            },
            {
                "deltaTime": 11,
                "channel": 0,
                "type": "noteOn",
                "noteNumber": 81,
                "velocity": 16
            },
            {
                "deltaTime": 11,
                "channel": 0,
                "type": "noteOn",
                "noteNumber": 82,
                "velocity": 16
            },
            {
                "deltaTime": 64,
                "channel": 0,
                "type": "noteOff",
                "noteNumber": 81,
                "velocity": 16
            },
            {
                "deltaTime": 0,
                "channel": 0,
                "type": "noteOn",
                "noteNumber": 80,
                "velocity": 16
            },
            {
                "deltaTime": 64,
                "channel": 0,
                "type": "noteOff",
                "noteNumber": 82,
                "velocity": 16
            },
            {
                "deltaTime": 0,
                "channel": 0,
                "type": "noteOn",
                "noteNumber": 79,
                "velocity": 16
            },
            {
                "deltaTime": 64,
                "channel": 0,
                "type": "noteOff",
                "noteNumber": 80,
                "velocity": 16
            },
            {
                "deltaTime": 0,
                "channel": 0,
                "type": "noteOn",
                "noteNumber": 80,
                "velocity": 16
            },
            {
                "deltaTime": 64,
                "channel": 0,
                "type": "noteOff",
                "noteNumber": 79,
                "velocity": 16
            },
            {
                "deltaTime": 0,
                "channel": 0,
                "type": "noteOn",
                "noteNumber": 79,
                "velocity": 16
            },
            {
                "deltaTime": 21,
                "channel": 0,
                "type": "noteOn",
                "noteNumber": 80,
                "velocity": 16
            },
            {
                "deltaTime": 21,
                "channel": 0,
                "type": "noteOn",
                "noteNumber": 79,
                "velocity": 16
            },
            {
                "deltaTime": 22,
                "channel": 0,
                "type": "noteOff",
                "noteNumber": 80,
                "velocity": 16
            },
            {
                "deltaTime": 18,
                "channel": 0,
                "type": "noteOff",
                "noteNumber": 79,
                "velocity": 16
            },
            {
                "deltaTime": 24,
                "channel": 0,
                "type": "noteOff",
                "noteNumber": 80,
                "velocity": 16
            },
            {
                "deltaTime": 296,
                "channel": 0,
                "type": "noteOff",
                "noteNumber": 79,
                "velocity": 16
            },
            {
                "deltaTime": 110,
                "channel": 0,
                "type": "noteOn",
                "noteNumber": 79,
                "velocity": 16
            },
            {
                "deltaTime": 64,
                "channel": 0,
                "type": "noteOn",
                "noteNumber": 80,
                "velocity": 16
            },
            {
                "deltaTime": 64,
                "channel": 0,
                "type": "noteOff",
                "noteNumber": 79,
                "velocity": 16
            },
            {
                "deltaTime": 0,
                "channel": 0,
                "type": "noteOn",
                "noteNumber": 79,
                "velocity": 16
            },
            {
                "deltaTime": 64,
                "channel": 0,
                "type": "noteOff",
                "noteNumber": 80,
                "velocity": 16
            },
            {
                "deltaTime": 0,
                "channel": 0,
                "type": "noteOn",
                "noteNumber": 77,
                "velocity": 16
            },
            {
                "deltaTime": 64,
                "channel": 0,
                "type": "noteOff",
                "noteNumber": 79,
                "velocity": 16
            },
            {
                "deltaTime": 0,
                "channel": 0,
                "type": "noteOn",
                "noteNumber": 74,
                "velocity": 16
            },
            {
                "deltaTime": 64,
                "channel": 0,
                "type": "noteOff",
                "noteNumber": 77,
                "velocity": 16
            },
            {
                "deltaTime": 64,
                "channel": 0,
                "type": "noteOn",
                "noteNumber": 70,
                "velocity": 16
            },
            {
                "deltaTime": 64,
                "channel": 0,
                "type": "noteOff",
                "noteNumber": 74,
                "velocity": 16
            },
            {
                "deltaTime": 64,
                "channel": 0,
                "type": "noteOn",
                "noteNumber": 80,
                "velocity": 16
            },
            {
                "deltaTime": 18,
                "channel": 0,
                "type": "noteOff",
                "noteNumber": 70,
                "velocity": 16
            },
            {
                "deltaTime": 88,
                "channel": 0,
                "type": "noteOff",
                "noteNumber": 80,
                "velocity": 16
            },
            {
                "deltaTime": 22,
                "channel": 0,
                "type": "noteOn",
                "noteNumber": 79,
                "velocity": 16
            },
            {
                "deltaTime": 128,
                "channel": 0,
                "type": "noteOn",
                "noteNumber": 79,
                "velocity": 16
            },
            {
                "deltaTime": 18,
                "channel": 0,
                "type": "noteOff",
                "noteNumber": 79,
                "velocity": 16
            },
            {
                "deltaTime": 46,
                "channel": 0,
                "type": "noteOn",
                "noteNumber": 77,
                "velocity": 16
            },
            {
                "deltaTime": 64,
                "channel": 0,
                "type": "noteOff",
                "noteNumber": 79,
                "velocity": 16
            },
            {
                "deltaTime": 0,
                "channel": 0,
                "type": "noteOn",
                "noteNumber": 75,
                "velocity": 16
            },
            {
                "deltaTime": 64,
                "channel": 0,
                "type": "noteOff",
                "noteNumber": 77,
                "velocity": 16
            },
            {
                "deltaTime": 0,
                "channel": 0,
                "type": "noteOn",
                "noteNumber": 77,
                "velocity": 16
            },
            {
                "deltaTime": 64,
                "channel": 0,
                "type": "noteOff",
                "noteNumber": 75,
                "velocity": 16
            },
            {
                "deltaTime": 0,
                "channel": 0,
                "type": "noteOn",
                "noteNumber": 79,
                "velocity": 16
            },
            {
                "deltaTime": 64,
                "channel": 0,
                "type": "noteOff",
                "noteNumber": 77,
                "velocity": 16
            },
            {
                "deltaTime": 82,
                "channel": 0,
                "type": "noteOff",
                "noteNumber": 79,
                "velocity": 16
            },
            {
                "deltaTime": 110,
                "channel": 0,
                "type": "noteOn",
                "noteNumber": 75,
                "velocity": 16
            },
            {
                "deltaTime": 106,
                "channel": 0,
                "type": "noteOff",
                "noteNumber": 75,
                "velocity": 16
            },
            {
                "deltaTime": 22,
                "channel": 0,
                "type": "noteOn",
                "noteNumber": 78,
                "velocity": 16
            },
            {
                "deltaTime": 128,
                "channel": 0,
                "type": "noteOn",
                "noteNumber": 74,
                "velocity": 16
            },
            {
                "deltaTime": 64,
                "channel": 0,
                "type": "noteOff",
                "noteNumber": 78,
                "velocity": 16
            },
            {
                "deltaTime": 64,
                "channel": 0,
                "type": "noteOn",
                "noteNumber": 72,
                "velocity": 16
            },
            {
                "deltaTime": 64,
                "channel": 0,
                "type": "noteOff",
                "noteNumber": 74,
                "velocity": 16
            },
            {
                "deltaTime": 64,
                "channel": 0,
                "type": "noteOn",
                "noteNumber": 66,
                "velocity": 16
            },
            {
                "deltaTime": 64,
                "channel": 0,
                "type": "noteOff",
                "noteNumber": 72,
                "velocity": 16
            },
            {
                "deltaTime": 128,
                "channel": 0,
                "type": "noteOff",
                "noteNumber": 66,
                "velocity": 16
            },
            {
                "deltaTime": 64,
                "channel": 0,
                "type": "noteOn",
                "noteNumber": 78,
                "velocity": 16
            },
            {
                "deltaTime": 128,
                "channel": 0,
                "type": "noteOn",
                "noteNumber": 79,
                "velocity": 16
            },
            {
                "deltaTime": 64,
                "channel": 0,
                "type": "noteOff",
                "noteNumber": 78,
                "velocity": 16
            },
            {
                "deltaTime": 256,
                "channel": 0,
                "type": "noteOff",
                "noteNumber": 79,
                "velocity": 16
            },
            {
                "deltaTime": 576,
                "channel": 0,
                "type": "noteOn",
                "noteNumber": 86,
                "velocity": 50
            },
            {
                "deltaTime": 64,
                "channel": 0,
                "type": "noteOn",
                "noteNumber": 87,
                "velocity": 50
            },
            {
                "deltaTime": 64,
                "channel": 0,
                "type": "noteOff",
                "noteNumber": 86,
                "velocity": 50
            },
            {
                "deltaTime": 0,
                "channel": 0,
                "type": "noteOn",
                "noteNumber": 86,
                "velocity": 50
            },
            {
                "deltaTime": 64,
                "channel": 0,
                "type": "noteOff",
                "noteNumber": 87,
                "velocity": 50
            },
            {
                "deltaTime": 0,
                "channel": 0,
                "type": "noteOn",
                "noteNumber": 84,
                "velocity": 50
            },
            {
                "deltaTime": 64,
                "channel": 0,
                "type": "noteOff",
                "noteNumber": 86,
                "velocity": 50
            },
            {
                "deltaTime": 0,
                "channel": 0,
                "type": "noteOn",
                "noteNumber": 79,
                "velocity": 50
            },
            {
                "deltaTime": 64,
                "channel": 0,
                "type": "noteOff",
                "noteNumber": 84,
                "velocity": 50
            },
            {
                "deltaTime": 64,
                "channel": 0,
                "type": "noteOn",
                "noteNumber": 75,
                "velocity": 50
            },
            {
                "deltaTime": 64,
                "channel": 0,
                "type": "noteOff",
                "noteNumber": 79,
                "velocity": 50
            },
            {
                "deltaTime": 64,
                "channel": 0,
                "type": "noteOn",
                "noteNumber": 79,
                "velocity": 50
            },
            {
                "deltaTime": 64,
                "channel": 0,
                "type": "noteOff",
                "noteNumber": 75,
                "velocity": 50
            },
            {
                "deltaTime": 82,
                "channel": 0,
                "type": "noteOff",
                "noteNumber": 79,
                "velocity": 50
            },
            {
                "deltaTime": 110,
                "channel": 0,
                "type": "noteOn",
                "noteNumber": 86,
                "velocity": 50
            },
            {
                "deltaTime": 64,
                "channel": 0,
                "type": "noteOn",
                "noteNumber": 87,
                "velocity": 50
            },
            {
                "deltaTime": 64,
                "channel": 0,
                "type": "noteOff",
                "noteNumber": 86,
                "velocity": 50
            },
            {
                "deltaTime": 0,
                "channel": 0,
                "type": "noteOn",
                "noteNumber": 86,
                "velocity": 50
            },
            {
                "deltaTime": 64,
                "channel": 0,
                "type": "noteOff",
                "noteNumber": 87,
                "velocity": 50
            },
            {
                "deltaTime": 0,
                "channel": 0,
                "type": "noteOn",
                "noteNumber": 84,
                "velocity": 50
            },
            {
                "deltaTime": 64,
                "channel": 0,
                "type": "noteOff",
                "noteNumber": 86,
                "velocity": 50
            },
            {
                "deltaTime": 0,
                "channel": 0,
                "type": "noteOn",
                "noteNumber": 89,
                "velocity": 50
            },
            {
                "deltaTime": 64,
                "channel": 0,
                "type": "noteOff",
                "noteNumber": 84,
                "velocity": 50
            },
            {
                "deltaTime": 338,
                "channel": 0,
                "type": "noteOff",
                "noteNumber": 89,
                "velocity": 50
            },
            {
                "deltaTime": 110,
                "channel": 0,
                "type": "noteOn",
                "noteNumber": 86,
                "velocity": 50
            },
            {
                "deltaTime": 64,
                "channel": 0,
                "type": "noteOn",
                "noteNumber": 87,
                "velocity": 50
            },
            {
                "deltaTime": 64,
                "channel": 0,
                "type": "noteOff",
                "noteNumber": 86,
                "velocity": 50
            },
            {
                "deltaTime": 0,
                "channel": 0,
                "type": "noteOn",
                "noteNumber": 86,
                "velocity": 50
            },
            {
                "deltaTime": 64,
                "channel": 0,
                "type": "noteOff",
                "noteNumber": 87,
                "velocity": 50
            },
            {
                "deltaTime": 0,
                "channel": 0,
                "type": "noteOn",
                "noteNumber": 84,
                "velocity": 50
            },
            {
                "deltaTime": 64,
                "channel": 0,
                "type": "noteOff",
                "noteNumber": 86,
                "velocity": 50
            },
            {
                "deltaTime": 0,
                "channel": 0,
                "type": "noteOn",
                "noteNumber": 86,
                "velocity": 50
            },
            {
                "deltaTime": 64,
                "channel": 0,
                "type": "noteOff",
                "noteNumber": 84,
                "velocity": 50
            },
            {
                "deltaTime": 192,
                "channel": 0,
                "type": "noteOn",
                "noteNumber": 87,
                "velocity": 50
            },
            {
                "deltaTime": 18,
                "channel": 0,
                "type": "noteOff",
                "noteNumber": 86,
                "velocity": 50
            },
            {
                "deltaTime": 88,
                "channel": 0,
                "type": "noteOff",
                "noteNumber": 87,
                "velocity": 50
            },
            {
                "deltaTime": 22,
                "channel": 0,
                "type": "noteOn",
                "noteNumber": 82,
                "velocity": 50
            },
            {
                "deltaTime": 106,
                "channel": 0,
                "type": "noteOff",
                "noteNumber": 82,
                "velocity": 50
            },
            {
                "deltaTime": 11,
                "channel": 0,
                "type": "noteOn",
                "noteNumber": 81,
                "velocity": 50
            },
            {
                "deltaTime": 11,
                "channel": 0,
                "type": "noteOn",
                "noteNumber": 82,
                "velocity": 50
            },
            {
                "deltaTime": 64,
                "channel": 0,
                "type": "noteOff",
                "noteNumber": 81,
                "velocity": 50
            },
            {
                "deltaTime": 0,
                "channel": 0,
                "type": "noteOn",
                "noteNumber": 80,
                "velocity": 50
            },
            {
                "deltaTime": 64,
                "channel": 0,
                "type": "noteOff",
                "noteNumber": 82,
                "velocity": 50
            },
            {
                "deltaTime": 0,
                "channel": 0,
                "type": "noteOn",
                "noteNumber": 79,
                "velocity": 50
            },
            {
                "deltaTime": 64,
                "channel": 0,
                "type": "noteOff",
                "noteNumber": 80,
                "velocity": 50
            },
            {
                "deltaTime": 0,
                "channel": 0,
                "type": "noteOn",
                "noteNumber": 80,
                "velocity": 50
            },
            {
                "deltaTime": 64,
                "channel": 0,
                "type": "noteOff",
                "noteNumber": 79,
                "velocity": 50
            },
            {
                "deltaTime": 0,
                "channel": 0,
                "type": "noteOn",
                "noteNumber": 79,
                "velocity": 50
            },
            {
                "deltaTime": 21,
                "channel": 0,
                "type": "noteOn",
                "noteNumber": 80,
                "velocity": 50
            },
            {
                "deltaTime": 21,
                "channel": 0,
                "type": "noteOn",
                "noteNumber": 79,
                "velocity": 50
            },
            {
                "deltaTime": 22,
                "channel": 0,
                "type": "noteOff",
                "noteNumber": 80,
                "velocity": 50
            },
            {
                "deltaTime": 18,
                "channel": 0,
                "type": "noteOff",
                "noteNumber": 79,
                "velocity": 50
            },
            {
                "deltaTime": 24,
                "channel": 0,
                "type": "noteOff",
                "noteNumber": 80,
                "velocity": 50
            },
            {
                "deltaTime": 296,
                "channel": 0,
                "type": "noteOff",
                "noteNumber": 79,
                "velocity": 50
            },
            {
                "deltaTime": 110,
                "channel": 0,
                "type": "noteOn",
                "noteNumber": 79,
                "velocity": 50
            },
            {
                "deltaTime": 64,
                "channel": 0,
                "type": "noteOn",
                "noteNumber": 80,
                "velocity": 50
            },
            {
                "deltaTime": 64,
                "channel": 0,
                "type": "noteOff",
                "noteNumber": 79,
                "velocity": 50
            },
            {
                "deltaTime": 0,
                "channel": 0,
                "type": "noteOn",
                "noteNumber": 79,
                "velocity": 50
            },
            {
                "deltaTime": 64,
                "channel": 0,
                "type": "noteOff",
                "noteNumber": 80,
                "velocity": 50
            },
            {
                "deltaTime": 0,
                "channel": 0,
                "type": "noteOn",
                "noteNumber": 77,
                "velocity": 50
            },
            {
                "deltaTime": 64,
                "channel": 0,
                "type": "noteOff",
                "noteNumber": 79,
                "velocity": 50
            },
            {
                "deltaTime": 0,
                "channel": 0,
                "type": "noteOn",
                "noteNumber": 74,
                "velocity": 50
            },
            {
                "deltaTime": 64,
                "channel": 0,
                "type": "noteOff",
                "noteNumber": 77,
                "velocity": 50
            },
            {
                "deltaTime": 64,
                "channel": 0,
                "type": "noteOn",
                "noteNumber": 70,
                "velocity": 50
            },
            {
                "deltaTime": 64,
                "channel": 0,
                "type": "noteOff",
                "noteNumber": 74,
                "velocity": 50
            },
            {
                "deltaTime": 64,
                "channel": 0,
                "type": "noteOn",
                "noteNumber": 80,
                "velocity": 50
            },
            {
                "deltaTime": 18,
                "channel": 0,
                "type": "noteOff",
                "noteNumber": 70,
                "velocity": 50
            },
            {
                "deltaTime": 88,
                "channel": 0,
                "type": "noteOff",
                "noteNumber": 80,
                "velocity": 50
            },
            {
                "deltaTime": 22,
                "channel": 0,
                "type": "noteOn",
                "noteNumber": 79,
                "velocity": 50
            },
            {
                "deltaTime": 128,
                "channel": 0,
                "type": "noteOn",
                "noteNumber": 79,
                "velocity": 50
            },
            {
                "deltaTime": 18,
                "channel": 0,
                "type": "noteOff",
                "noteNumber": 79,
                "velocity": 50
            },
            {
                "deltaTime": 46,
                "channel": 0,
                "type": "noteOn",
                "noteNumber": 77,
                "velocity": 50
            },
            {
                "deltaTime": 64,
                "channel": 0,
                "type": "noteOff",
                "noteNumber": 79,
                "velocity": 50
            },
            {
                "deltaTime": 0,
                "channel": 0,
                "type": "noteOn",
                "noteNumber": 75,
                "velocity": 50
            },
            {
                "deltaTime": 64,
                "channel": 0,
                "type": "noteOff",
                "noteNumber": 77,
                "velocity": 50
            },
            {
                "deltaTime": 0,
                "channel": 0,
                "type": "noteOn",
                "noteNumber": 77,
                "velocity": 50
            },
            {
                "deltaTime": 64,
                "channel": 0,
                "type": "noteOff",
                "noteNumber": 75,
                "velocity": 50
            },
            {
                "deltaTime": 0,
                "channel": 0,
                "type": "noteOn",
                "noteNumber": 79,
                "velocity": 50
            },
            {
                "deltaTime": 64,
                "channel": 0,
                "type": "noteOff",
                "noteNumber": 77,
                "velocity": 50
            },
            {
                "deltaTime": 82,
                "channel": 0,
                "type": "noteOff",
                "noteNumber": 79,
                "velocity": 50
            },
            {
                "deltaTime": 110,
                "channel": 0,
                "type": "noteOn",
                "noteNumber": 75,
                "velocity": 50
            },
            {
                "deltaTime": 106,
                "channel": 0,
                "type": "noteOff",
                "noteNumber": 75,
                "velocity": 50
            },
            {
                "deltaTime": 22,
                "channel": 0,
                "type": "noteOn",
                "noteNumber": 78,
                "velocity": 50
            },
            {
                "deltaTime": 128,
                "channel": 0,
                "type": "noteOn",
                "noteNumber": 74,
                "velocity": 50
            },
            {
                "deltaTime": 64,
                "channel": 0,
                "type": "noteOff",
                "noteNumber": 78,
                "velocity": 50
            },
            {
                "deltaTime": 64,
                "channel": 0,
                "type": "noteOn",
                "noteNumber": 72,
                "velocity": 50
            },
            {
                "deltaTime": 64,
                "channel": 0,
                "type": "noteOff",
                "noteNumber": 74,
                "velocity": 50
            },
            {
                "deltaTime": 64,
                "channel": 0,
                "type": "noteOn",
                "noteNumber": 66,
                "velocity": 50
            },
            {
                "deltaTime": 64,
                "channel": 0,
                "type": "noteOff",
                "noteNumber": 72,
                "velocity": 50
            },
            {
                "deltaTime": 128,
                "channel": 0,
                "type": "noteOff",
                "noteNumber": 66,
                "velocity": 50
            },
            {
                "deltaTime": 64,
                "channel": 0,
                "type": "noteOn",
                "noteNumber": 78,
                "velocity": 50
            },
            {
                "deltaTime": 128,
                "channel": 0,
                "type": "noteOn",
                "noteNumber": 79,
                "velocity": 50
            },
            {
                "deltaTime": 64,
                "channel": 0,
                "type": "noteOff",
                "noteNumber": 78,
                "velocity": 50
            },
            {
                "deltaTime": 256,
                "channel": 0,
                "type": "noteOff",
                "noteNumber": 79,
                "velocity": 50
            },
            {
                "deltaTime": 0,
                "meta": true,
                "type": "endOfTrack"
            }
        ],
        [
            {
                "deltaTime": 0,
                "meta": true,
                "type": "trackName",
                "text": "Flute"
            },
            {
                "deltaTime": 0,
                "meta": true,
                "type": "setTempo",
                "microsecondsPerBeat": 428571
            },
            {
                "deltaTime": 12672,
                "channel": 0,
                "type": "noteOn",
                "noteNumber": 63,
                "velocity": 50
            },
            {
                "deltaTime": 384,
                "channel": 0,
                "type": "noteOff",
                "noteNumber": 63,
                "velocity": 50
            },
            {
                "deltaTime": 0,
                "channel": 0,
                "type": "noteOn",
                "noteNumber": 68,
                "velocity": 50
            },
            {
                "deltaTime": 0,
                "channel": 0,
                "type": "noteOn",
                "noteNumber": 63,
                "velocity": 50
            },
            {
                "deltaTime": 384,
                "channel": 0,
                "type": "noteOff",
                "noteNumber": 68,
                "velocity": 50
            },
            {
                "deltaTime": 0,
                "channel": 0,
                "type": "noteOff",
                "noteNumber": 63,
                "velocity": 50
            },
            {
                "deltaTime": 0,
                "channel": 0,
                "type": "noteOn",
                "noteNumber": 70,
                "velocity": 50
            },
            {
                "deltaTime": 384,
                "channel": 0,
                "type": "noteOff",
                "noteNumber": 70,
                "velocity": 50
            },
            {
                "deltaTime": 0,
                "channel": 0,
                "type": "noteOn",
                "noteNumber": 67,
                "velocity": 50
            },
            {
                "deltaTime": 0,
                "channel": 0,
                "type": "noteOn",
                "noteNumber": 62,
                "velocity": 50
            },
            {
                "deltaTime": 384,
                "channel": 0,
                "type": "noteOff",
                "noteNumber": 67,
                "velocity": 50
            },
            {
                "deltaTime": 0,
                "channel": 0,
                "type": "noteOff",
                "noteNumber": 62,
                "velocity": 50
            },
            {
                "deltaTime": 0,
                "channel": 0,
                "type": "noteOn",
                "noteNumber": 62,
                "velocity": 50
            },
            {
                "deltaTime": 384,
                "channel": 0,
                "type": "noteOff",
                "noteNumber": 62,
                "velocity": 50
            },
            {
                "deltaTime": 0,
                "channel": 0,
                "type": "noteOn",
                "noteNumber": 68,
                "velocity": 50
            },
            {
                "deltaTime": 0,
                "channel": 0,
                "type": "noteOn",
                "noteNumber": 62,
                "velocity": 50
            },
            {
                "deltaTime": 384,
                "channel": 0,
                "type": "noteOff",
                "noteNumber": 68,
                "velocity": 50
            },
            {
                "deltaTime": 0,
                "channel": 0,
                "type": "noteOff",
                "noteNumber": 62,
                "velocity": 50
            },
            {
                "deltaTime": 0,
                "channel": 0,
                "type": "noteOn",
                "noteNumber": 70,
                "velocity": 50
            },
            {
                "deltaTime": 0,
                "channel": 0,
                "type": "noteOn",
                "noteNumber": 65,
                "velocity": 50
            },
            {
                "deltaTime": 128,
                "channel": 0,
                "type": "noteOff",
                "noteNumber": 70,
                "velocity": 50
            },
            {
                "deltaTime": 0,
                "channel": 0,
                "type": "noteOff",
                "noteNumber": 65,
                "velocity": 50
            },
            {
                "deltaTime": 0,
                "channel": 0,
                "type": "noteOn",
                "noteNumber": 68,
                "velocity": 50
            },
            {
                "deltaTime": 0,
                "channel": 0,
                "type": "noteOn",
                "noteNumber": 63,
                "velocity": 50
            },
            {
                "deltaTime": 128,
                "channel": 0,
                "type": "noteOff",
                "noteNumber": 68,
                "velocity": 50
            },
            {
                "deltaTime": 0,
                "channel": 0,
                "type": "noteOff",
                "noteNumber": 63,
                "velocity": 50
            },
            {
                "deltaTime": 0,
                "channel": 0,
                "type": "noteOn",
                "noteNumber": 65,
                "velocity": 50
            },
            {
                "deltaTime": 0,
                "channel": 0,
                "type": "noteOn",
                "noteNumber": 62,
                "velocity": 50
            },
            {
                "deltaTime": 128,
                "channel": 0,
                "type": "noteOff",
                "noteNumber": 65,
                "velocity": 50
            },
            {
                "deltaTime": 0,
                "channel": 0,
                "type": "noteOff",
                "noteNumber": 62,
                "velocity": 50
            },
            {
                "deltaTime": 0,
                "channel": 0,
                "type": "noteOn",
                "noteNumber": 67,
                "velocity": 50
            },
            {
                "deltaTime": 0,
                "channel": 0,
                "type": "noteOn",
                "noteNumber": 63,
                "velocity": 50
            },
            {
                "deltaTime": 128,
                "channel": 0,
                "type": "noteOff",
                "noteNumber": 63,
                "velocity": 50
            },
            {
                "deltaTime": 0,
                "channel": 0,
                "type": "noteOn",
                "noteNumber": 62,
                "velocity": 50
            },
            {
                "deltaTime": 128,
                "channel": 0,
                "type": "noteOff",
                "noteNumber": 62,
                "velocity": 50
            },
            {
                "deltaTime": 0,
                "channel": 0,
                "type": "noteOn",
                "noteNumber": 60,
                "velocity": 50
            },
            {
                "deltaTime": 128,
                "channel": 0,
                "type": "noteOff",
                "noteNumber": 67,
                "velocity": 50
            },
            {
                "deltaTime": 0,
                "channel": 0,
                "type": "noteOff",
                "noteNumber": 60,
                "velocity": 50
            },
            {
                "deltaTime": 0,
                "channel": 0,
                "type": "noteOn",
                "noteNumber": 63,
                "velocity": 50
            },
            {
                "deltaTime": 384,
                "channel": 0,
                "type": "noteOff",
                "noteNumber": 63,
                "velocity": 50
            },
            {
                "deltaTime": 0,
                "channel": 0,
                "type": "noteOn",
                "noteNumber": 68,
                "velocity": 50
            },
            {
                "deltaTime": 0,
                "channel": 0,
                "type": "noteOn",
                "noteNumber": 63,
                "velocity": 50
            },
            {
                "deltaTime": 384,
                "channel": 0,
                "type": "noteOff",
                "noteNumber": 68,
                "velocity": 50
            },
            {
                "deltaTime": 0,
                "channel": 0,
                "type": "noteOff",
                "noteNumber": 63,
                "velocity": 50
            },
            {
                "deltaTime": 0,
                "channel": 0,
                "type": "noteOn",
                "noteNumber": 70,
                "velocity": 50
            },
            {
                "deltaTime": 384,
                "channel": 0,
                "type": "noteOff",
                "noteNumber": 70,
                "velocity": 50
            },
            {
                "deltaTime": 0,
                "channel": 0,
                "type": "noteOn",
                "noteNumber": 67,
                "velocity": 50
            },
            {
                "deltaTime": 0,
                "channel": 0,
                "type": "noteOn",
                "noteNumber": 62,
                "velocity": 50
            },
            {
                "deltaTime": 384,
                "channel": 0,
                "type": "noteOff",
                "noteNumber": 67,
                "velocity": 50
            },
            {
                "deltaTime": 0,
                "channel": 0,
                "type": "noteOff",
                "noteNumber": 62,
                "velocity": 50
            },
            {
                "deltaTime": 0,
                "channel": 0,
                "type": "noteOn",
                "noteNumber": 67,
                "velocity": 50
            },
            {
                "deltaTime": 0,
                "channel": 0,
                "type": "noteOn",
                "noteNumber": 63,
                "velocity": 50
            },
            {
                "deltaTime": 384,
                "channel": 0,
                "type": "noteOff",
                "noteNumber": 67,
                "velocity": 50
            },
            {
                "deltaTime": 0,
                "channel": 0,
                "type": "noteOff",
                "noteNumber": 63,
                "velocity": 50
            },
            {
                "deltaTime": 0,
                "channel": 0,
                "type": "noteOn",
                "noteNumber": 65,
                "velocity": 50
            },
            {
                "deltaTime": 0,
                "channel": 0,
                "type": "noteOn",
                "noteNumber": 68,
                "velocity": 50
            },
            {
                "deltaTime": 384,
                "channel": 0,
                "type": "noteOff",
                "noteNumber": 68,
                "velocity": 50
            },
            {
                "deltaTime": 0,
                "channel": 0,
                "type": "noteOff",
                "noteNumber": 65,
                "velocity": 50
            },
            {
                "deltaTime": 0,
                "channel": 0,
                "type": "noteOn",
                "noteNumber": 65,
                "velocity": 50
            },
            {
                "deltaTime": 0,
                "channel": 0,
                "type": "noteOn",
                "noteNumber": 62,
                "velocity": 50
            },
            {
                "deltaTime": 384,
                "channel": 0,
                "type": "noteOff",
                "noteNumber": 65,
                "velocity": 50
            },
            {
                "deltaTime": 0,
                "channel": 0,
                "type": "noteOff",
                "noteNumber": 62,
                "velocity": 50
            },
            {
                "deltaTime": 0,
                "channel": 0,
                "type": "noteOn",
                "noteNumber": 67,
                "velocity": 50
            },
            {
                "deltaTime": 0,
                "channel": 0,
                "type": "noteOn",
                "noteNumber": 62,
                "velocity": 50
            },
            {
                "deltaTime": 384,
                "channel": 0,
                "type": "noteOff",
                "noteNumber": 67,
                "velocity": 50
            },
            {
                "deltaTime": 0,
                "channel": 0,
                "type": "noteOff",
                "noteNumber": 62,
                "velocity": 50
            },
            {
                "deltaTime": 0,
                "meta": true,
                "type": "endOfTrack"
            }
        ],
        [
            {
                "deltaTime": 0,
                "meta": true,
                "type": "trackName",
                "text": "Flute"
            },
            {
                "deltaTime": 0,
                "meta": true,
                "type": "setTempo",
                "microsecondsPerBeat": 428571
            },
            {
                "deltaTime": 12672,
                "channel": 0,
                "type": "noteOn",
                "noteNumber": 51,
                "velocity": 50
            },
            {
                "deltaTime": 384,
                "channel": 0,
                "type": "noteOff",
                "noteNumber": 51,
                "velocity": 50
            },
            {
                "deltaTime": 0,
                "channel": 0,
                "type": "noteOn",
                "noteNumber": 56,
                "velocity": 50
            },
            {
                "deltaTime": 0,
                "channel": 0,
                "type": "noteOn",
                "noteNumber": 51,
                "velocity": 50
            },
            {
                "deltaTime": 384,
                "channel": 0,
                "type": "noteOff",
                "noteNumber": 56,
                "velocity": 50
            },
            {
                "deltaTime": 0,
                "channel": 0,
                "type": "noteOff",
                "noteNumber": 51,
                "velocity": 50
            },
            {
                "deltaTime": 0,
                "channel": 0,
                "type": "noteOn",
                "noteNumber": 58,
                "velocity": 50
            },
            {
                "deltaTime": 384,
                "channel": 0,
                "type": "noteOff",
                "noteNumber": 58,
                "velocity": 50
            },
            {
                "deltaTime": 0,
                "channel": 0,
                "type": "noteOn",
                "noteNumber": 55,
                "velocity": 50
            },
            {
                "deltaTime": 0,
                "channel": 0,
                "type": "noteOn",
                "noteNumber": 50,
                "velocity": 50
            },
            {
                "deltaTime": 384,
                "channel": 0,
                "type": "noteOff",
                "noteNumber": 55,
                "velocity": 50
            },
            {
                "deltaTime": 0,
                "channel": 0,
                "type": "noteOff",
                "noteNumber": 50,
                "velocity": 50
            },
            {
                "deltaTime": 0,
                "channel": 0,
                "type": "noteOn",
                "noteNumber": 50,
                "velocity": 50
            },
            {
                "deltaTime": 384,
                "channel": 0,
                "type": "noteOff",
                "noteNumber": 50,
                "velocity": 50
            },
            {
                "deltaTime": 0,
                "channel": 0,
                "type": "noteOn",
                "noteNumber": 56,
                "velocity": 50
            },
            {
                "deltaTime": 0,
                "channel": 0,
                "type": "noteOn",
                "noteNumber": 50,
                "velocity": 50
            },
            {
                "deltaTime": 384,
                "channel": 0,
                "type": "noteOff",
                "noteNumber": 56,
                "velocity": 50
            },
            {
                "deltaTime": 0,
                "channel": 0,
                "type": "noteOff",
                "noteNumber": 50,
                "velocity": 50
            },
            {
                "deltaTime": 0,
                "channel": 0,
                "type": "noteOn",
                "noteNumber": 58,
                "velocity": 50
            },
            {
                "deltaTime": 0,
                "channel": 0,
                "type": "noteOn",
                "noteNumber": 53,
                "velocity": 50
            },
            {
                "deltaTime": 128,
                "channel": 0,
                "type": "noteOff",
                "noteNumber": 58,
                "velocity": 50
            },
            {
                "deltaTime": 0,
                "channel": 0,
                "type": "noteOff",
                "noteNumber": 53,
                "velocity": 50
            },
            {
                "deltaTime": 0,
                "channel": 0,
                "type": "noteOn",
                "noteNumber": 56,
                "velocity": 50
            },
            {
                "deltaTime": 0,
                "channel": 0,
                "type": "noteOn",
                "noteNumber": 51,
                "velocity": 50
            },
            {
                "deltaTime": 128,
                "channel": 0,
                "type": "noteOff",
                "noteNumber": 56,
                "velocity": 50
            },
            {
                "deltaTime": 0,
                "channel": 0,
                "type": "noteOff",
                "noteNumber": 51,
                "velocity": 50
            },
            {
                "deltaTime": 0,
                "channel": 0,
                "type": "noteOn",
                "noteNumber": 53,
                "velocity": 50
            },
            {
                "deltaTime": 0,
                "channel": 0,
                "type": "noteOn",
                "noteNumber": 50,
                "velocity": 50
            },
            {
                "deltaTime": 128,
                "channel": 0,
                "type": "noteOff",
                "noteNumber": 53,
                "velocity": 50
            },
            {
                "deltaTime": 0,
                "channel": 0,
                "type": "noteOff",
                "noteNumber": 50,
                "velocity": 50
            },
            {
                "deltaTime": 0,
                "channel": 0,
                "type": "noteOn",
                "noteNumber": 55,
                "velocity": 50
            },
            {
                "deltaTime": 0,
                "channel": 0,
                "type": "noteOn",
                "noteNumber": 51,
                "velocity": 50
            },
            {
                "deltaTime": 128,
                "channel": 0,
                "type": "noteOff",
                "noteNumber": 51,
                "velocity": 50
            },
            {
                "deltaTime": 0,
                "channel": 0,
                "type": "noteOn",
                "noteNumber": 50,
                "velocity": 50
            },
            {
                "deltaTime": 128,
                "channel": 0,
                "type": "noteOff",
                "noteNumber": 50,
                "velocity": 50
            },
            {
                "deltaTime": 0,
                "channel": 0,
                "type": "noteOn",
                "noteNumber": 48,
                "velocity": 50
            },
            {
                "deltaTime": 128,
                "channel": 0,
                "type": "noteOff",
                "noteNumber": 55,
                "velocity": 50
            },
            {
                "deltaTime": 0,
                "channel": 0,
                "type": "noteOff",
                "noteNumber": 48,
                "velocity": 50
            },
            {
                "deltaTime": 0,
                "channel": 0,
                "type": "noteOn",
                "noteNumber": 51,
                "velocity": 50
            },
            {
                "deltaTime": 384,
                "channel": 0,
                "type": "noteOff",
                "noteNumber": 51,
                "velocity": 50
            },
            {
                "deltaTime": 0,
                "channel": 0,
                "type": "noteOn",
                "noteNumber": 56,
                "velocity": 50
            },
            {
                "deltaTime": 0,
                "channel": 0,
                "type": "noteOn",
                "noteNumber": 51,
                "velocity": 50
            },
            {
                "deltaTime": 384,
                "channel": 0,
                "type": "noteOff",
                "noteNumber": 56,
                "velocity": 50
            },
            {
                "deltaTime": 0,
                "channel": 0,
                "type": "noteOff",
                "noteNumber": 51,
                "velocity": 50
            },
            {
                "deltaTime": 0,
                "channel": 0,
                "type": "noteOn",
                "noteNumber": 58,
                "velocity": 50
            },
            {
                "deltaTime": 384,
                "channel": 0,
                "type": "noteOff",
                "noteNumber": 58,
                "velocity": 50
            },
            {
                "deltaTime": 0,
                "channel": 0,
                "type": "noteOn",
                "noteNumber": 55,
                "velocity": 50
            },
            {
                "deltaTime": 0,
                "channel": 0,
                "type": "noteOn",
                "noteNumber": 50,
                "velocity": 50
            },
            {
                "deltaTime": 384,
                "channel": 0,
                "type": "noteOff",
                "noteNumber": 55,
                "velocity": 50
            },
            {
                "deltaTime": 0,
                "channel": 0,
                "type": "noteOff",
                "noteNumber": 50,
                "velocity": 50
            },
            {
                "deltaTime": 0,
                "channel": 0,
                "type": "noteOn",
                "noteNumber": 55,
                "velocity": 50
            },
            {
                "deltaTime": 0,
                "channel": 0,
                "type": "noteOn",
                "noteNumber": 51,
                "velocity": 50
            },
            {
                "deltaTime": 384,
                "channel": 0,
                "type": "noteOff",
                "noteNumber": 55,
                "velocity": 50
            },
            {
                "deltaTime": 0,
                "channel": 0,
                "type": "noteOff",
                "noteNumber": 51,
                "velocity": 50
            },
            {
                "deltaTime": 0,
                "channel": 0,
                "type": "noteOn",
                "noteNumber": 53,
                "velocity": 50
            },
            {
                "deltaTime": 0,
                "channel": 0,
                "type": "noteOn",
                "noteNumber": 56,
                "velocity": 50
            },
            {
                "deltaTime": 384,
                "channel": 0,
                "type": "noteOff",
                "noteNumber": 56,
                "velocity": 50
            },
            {
                "deltaTime": 0,
                "channel": 0,
                "type": "noteOff",
                "noteNumber": 53,
                "velocity": 50
            },
            {
                "deltaTime": 0,
                "channel": 0,
                "type": "noteOn",
                "noteNumber": 53,
                "velocity": 50
            },
            {
                "deltaTime": 0,
                "channel": 0,
                "type": "noteOn",
                "noteNumber": 50,
                "velocity": 50
            },
            {
                "deltaTime": 384,
                "channel": 0,
                "type": "noteOff",
                "noteNumber": 53,
                "velocity": 50
            },
            {
                "deltaTime": 0,
                "channel": 0,
                "type": "noteOff",
                "noteNumber": 50,
                "velocity": 50
            },
            {
                "deltaTime": 0,
                "channel": 0,
                "type": "noteOn",
                "noteNumber": 55,
                "velocity": 50
            },
            {
                "deltaTime": 0,
                "channel": 0,
                "type": "noteOn",
                "noteNumber": 50,
                "velocity": 50
            },
            {
                "deltaTime": 384,
                "channel": 0,
                "type": "noteOff",
                "noteNumber": 55,
                "velocity": 50
            },
            {
                "deltaTime": 0,
                "channel": 0,
                "type": "noteOff",
                "noteNumber": 50,
                "velocity": 50
            },
            {
                "deltaTime": 0,
                "meta": true,
                "type": "endOfTrack"
            }
        ],
        [
            {
                "deltaTime": 0,
                "meta": true,
                "type": "trackName",
                "text": "Bell"
            },
            {
                "deltaTime": 0,
                "meta": true,
                "type": "setTempo",
                "microsecondsPerBeat": 428571
            },
            {
                "deltaTime": 24960,
                "channel": 0,
                "type": "noteOn",
                "noteNumber": 60,
                "velocity": 50
            },
            {
                "deltaTime": 0,
                "channel": 0,
                "type": "noteOn",
                "noteNumber": 63,
                "velocity": 50
            },
            {
                "deltaTime": 768,
                "channel": 0,
                "type": "noteOff",
                "noteNumber": 60,
                "velocity": 50
            },
            {
                "deltaTime": 0,
                "channel": 0,
                "type": "noteOff",
                "noteNumber": 63,
                "velocity": 50
            },
            {
                "deltaTime": 0,
                "channel": 0,
                "type": "noteOn",
                "noteNumber": 62,
                "velocity": 50
            },
            {
                "deltaTime": 0,
                "channel": 0,
                "type": "noteOn",
                "noteNumber": 58,
                "velocity": 50
            },
            {
                "deltaTime": 768,
                "channel": 0,
                "type": "noteOff",
                "noteNumber": 62,
                "velocity": 50
            },
            {
                "deltaTime": 0,
                "channel": 0,
                "type": "noteOff",
                "noteNumber": 58,
                "velocity": 50
            },
            {
                "deltaTime": 0,
                "channel": 0,
                "type": "noteOn",
                "noteNumber": 60,
                "velocity": 50
            },
            {
                "deltaTime": 0,
                "channel": 0,
                "type": "noteOn",
                "noteNumber": 56,
                "velocity": 50
            },
            {
                "deltaTime": 384,
                "channel": 0,
                "type": "noteOff",
                "noteNumber": 60,
                "velocity": 50
            },
            {
                "deltaTime": 0,
                "channel": 0,
                "type": "noteOff",
                "noteNumber": 56,
                "velocity": 50
            },
            {
                "deltaTime": 0,
                "channel": 0,
                "type": "noteOn",
                "noteNumber": 62,
                "velocity": 50
            },
            {
                "deltaTime": 0,
                "channel": 0,
                "type": "noteOn",
                "noteNumber": 58,
                "velocity": 50
            },
            {
                "deltaTime": 384,
                "channel": 0,
                "type": "noteOff",
                "noteNumber": 62,
                "velocity": 50
            },
            {
                "deltaTime": 0,
                "channel": 0,
                "type": "noteOff",
                "noteNumber": 58,
                "velocity": 50
            },
            {
                "deltaTime": 0,
                "channel": 0,
                "type": "noteOn",
                "noteNumber": 67,
                "velocity": 50
            },
            {
                "deltaTime": 0,
                "channel": 0,
                "type": "noteOn",
                "noteNumber": 63,
                "velocity": 50
            },
            {
                "deltaTime": 384,
                "channel": 0,
                "type": "noteOff",
                "noteNumber": 63,
                "velocity": 50
            },
            {
                "deltaTime": 0,
                "channel": 0,
                "type": "noteOn",
                "noteNumber": 64,
                "velocity": 50
            },
            {
                "deltaTime": 384,
                "channel": 0,
                "type": "noteOff",
                "noteNumber": 64,
                "velocity": 50
            },
            {
                "deltaTime": 0,
                "channel": 0,
                "type": "noteOff",
                "noteNumber": 67,
                "velocity": 50
            },
            {
                "deltaTime": 0,
                "channel": 0,
                "type": "noteOn",
                "noteNumber": 68,
                "velocity": 50
            },
            {
                "deltaTime": 0,
                "channel": 0,
                "type": "noteOn",
                "noteNumber": 65,
                "velocity": 50
            },
            {
                "deltaTime": 384,
                "channel": 0,
                "type": "noteOff",
                "noteNumber": 68,
                "velocity": 50
            },
            {
                "deltaTime": 0,
                "channel": 0,
                "type": "noteOff",
                "noteNumber": 65,
                "velocity": 50
            },
            {
                "deltaTime": 0,
                "channel": 0,
                "type": "noteOn",
                "noteNumber": 65,
                "velocity": 50
            },
            {
                "deltaTime": 0,
                "channel": 0,
                "type": "noteOn",
                "noteNumber": 62,
                "velocity": 50
            },
            {
                "deltaTime": 384,
                "channel": 0,
                "type": "noteOff",
                "noteNumber": 65,
                "velocity": 50
            },
            {
                "deltaTime": 0,
                "channel": 0,
                "type": "noteOff",
                "noteNumber": 62,
                "velocity": 50
            },
            {
                "deltaTime": 0,
                "channel": 0,
                "type": "noteOn",
                "noteNumber": 60,
                "velocity": 50
            },
            {
                "deltaTime": 0,
                "channel": 0,
                "type": "noteOn",
                "noteNumber": 63,
                "velocity": 50
            },
            {
                "deltaTime": 384,
                "channel": 0,
                "type": "noteOff",
                "noteNumber": 63,
                "velocity": 50
            },
            {
                "deltaTime": 0,
                "channel": 0,
                "type": "noteOff",
                "noteNumber": 60,
                "velocity": 50
            },
            {
                "deltaTime": 0,
                "channel": 0,
                "type": "noteOn",
                "noteNumber": 60,
                "velocity": 50
            },
            {
                "deltaTime": 384,
                "channel": 0,
                "type": "noteOff",
                "noteNumber": 60,
                "velocity": 50
            },
            {
                "deltaTime": 0,
                "channel": 0,
                "type": "noteOn",
                "noteNumber": 62,
                "velocity": 50
            },
            {
                "deltaTime": 384,
                "channel": 0,
                "type": "noteOff",
                "noteNumber": 62,
                "velocity": 50
            },
            {
                "deltaTime": 0,
                "channel": 0,
                "type": "noteOn",
                "noteNumber": 66,
                "velocity": 50
            },
            {
                "deltaTime": 384,
                "channel": 0,
                "type": "noteOff",
                "noteNumber": 66,
                "velocity": 50
            },
            {
                "deltaTime": 0,
                "channel": 0,
                "type": "noteOn",
                "noteNumber": 67,
                "velocity": 50
            },
            {
                "deltaTime": 0,
                "channel": 0,
                "type": "noteOn",
                "noteNumber": 59,
                "velocity": 50
            },
            {
                "deltaTime": 384,
                "channel": 0,
                "type": "noteOff",
                "noteNumber": 67,
                "velocity": 50
            },
            {
                "deltaTime": 384,
                "channel": 0,
                "type": "noteOff",
                "noteNumber": 59,
                "velocity": 50
            },
            {
                "deltaTime": 0,
                "meta": true,
                "type": "endOfTrack"
            }
        ],
        [
            {
                "deltaTime": 0,
                "meta": true,
                "type": "trackName",
                "text": "Chimes"
            },
            {
                "deltaTime": 0,
                "meta": true,
                "type": "setTempo",
                "microsecondsPerBeat": 428571
            },
            {
                "deltaTime": 25088,
                "channel": 0,
                "type": "noteOn",
                "noteNumber": 86,
                "velocity": 50
            },
            {
                "deltaTime": 64,
                "channel": 0,
                "type": "noteOn",
                "noteNumber": 87,
                "velocity": 50
            },
            {
                "deltaTime": 64,
                "channel": 0,
                "type": "noteOff",
                "noteNumber": 86,
                "velocity": 50
            },
            {
                "deltaTime": 0,
                "channel": 0,
                "type": "noteOn",
                "noteNumber": 86,
                "velocity": 50
            },
            {
                "deltaTime": 64,
                "channel": 0,
                "type": "noteOff",
                "noteNumber": 87,
                "velocity": 50
            },
            {
                "deltaTime": 0,
                "channel": 0,
                "type": "noteOn",
                "noteNumber": 84,
                "velocity": 50
            },
            {
                "deltaTime": 64,
                "channel": 0,
                "type": "noteOff",
                "noteNumber": 86,
                "velocity": 50
            },
            {
                "deltaTime": 0,
                "channel": 0,
                "type": "noteOn",
                "noteNumber": 79,
                "velocity": 50
            },
            {
                "deltaTime": 64,
                "channel": 0,
                "type": "noteOff",
                "noteNumber": 84,
                "velocity": 50
            },
            {
                "deltaTime": 64,
                "channel": 0,
                "type": "noteOn",
                "noteNumber": 75,
                "velocity": 50
            },
            {
                "deltaTime": 64,
                "channel": 0,
                "type": "noteOff",
                "noteNumber": 79,
                "velocity": 50
            },
            {
                "deltaTime": 64,
                "channel": 0,
                "type": "noteOn",
                "noteNumber": 79,
                "velocity": 50
            },
            {
                "deltaTime": 64,
                "channel": 0,
                "type": "noteOff",
                "noteNumber": 75,
                "velocity": 50
            },
            {
                "deltaTime": 82,
                "channel": 0,
                "type": "noteOff",
                "noteNumber": 79,
                "velocity": 50
            },
            {
                "deltaTime": 110,
                "channel": 0,
                "type": "noteOn",
                "noteNumber": 86,
                "velocity": 50
            },
            {
                "deltaTime": 64,
                "channel": 0,
                "type": "noteOn",
                "noteNumber": 87,
                "velocity": 50
            },
            {
                "deltaTime": 64,
                "channel": 0,
                "type": "noteOff",
                "noteNumber": 86,
                "velocity": 50
            },
            {
                "deltaTime": 0,
                "channel": 0,
                "type": "noteOn",
                "noteNumber": 86,
                "velocity": 50
            },
            {
                "deltaTime": 64,
                "channel": 0,
                "type": "noteOff",
                "noteNumber": 87,
                "velocity": 50
            },
            {
                "deltaTime": 0,
                "channel": 0,
                "type": "noteOn",
                "noteNumber": 84,
                "velocity": 50
            },
            {
                "deltaTime": 64,
                "channel": 0,
                "type": "noteOff",
                "noteNumber": 86,
                "velocity": 50
            },
            {
                "deltaTime": 0,
                "channel": 0,
                "type": "noteOn",
                "noteNumber": 89,
                "velocity": 50
            },
            {
                "deltaTime": 64,
                "channel": 0,
                "type": "noteOff",
                "noteNumber": 84,
                "velocity": 50
            },
            {
                "deltaTime": 338,
                "channel": 0,
                "type": "noteOff",
                "noteNumber": 89,
                "velocity": 50
            },
            {
                "deltaTime": 110,
                "channel": 0,
                "type": "noteOn",
                "noteNumber": 86,
                "velocity": 50
            },
            {
                "deltaTime": 64,
                "channel": 0,
                "type": "noteOn",
                "noteNumber": 87,
                "velocity": 50
            },
            {
                "deltaTime": 64,
                "channel": 0,
                "type": "noteOff",
                "noteNumber": 86,
                "velocity": 50
            },
            {
                "deltaTime": 0,
                "channel": 0,
                "type": "noteOn",
                "noteNumber": 86,
                "velocity": 50
            },
            {
                "deltaTime": 64,
                "channel": 0,
                "type": "noteOff",
                "noteNumber": 87,
                "velocity": 50
            },
            {
                "deltaTime": 0,
                "channel": 0,
                "type": "noteOn",
                "noteNumber": 84,
                "velocity": 50
            },
            {
                "deltaTime": 64,
                "channel": 0,
                "type": "noteOff",
                "noteNumber": 86,
                "velocity": 50
            },
            {
                "deltaTime": 0,
                "channel": 0,
                "type": "noteOn",
                "noteNumber": 86,
                "velocity": 50
            },
            {
                "deltaTime": 64,
                "channel": 0,
                "type": "noteOff",
                "noteNumber": 84,
                "velocity": 50
            },
            {
                "deltaTime": 192,
                "channel": 0,
                "type": "noteOn",
                "noteNumber": 87,
                "velocity": 50
            },
            {
                "deltaTime": 18,
                "channel": 0,
                "type": "noteOff",
                "noteNumber": 86,
                "velocity": 50
            },
            {
                "deltaTime": 88,
                "channel": 0,
                "type": "noteOff",
                "noteNumber": 87,
                "velocity": 50
            },
            {
                "deltaTime": 22,
                "channel": 0,
                "type": "noteOn",
                "noteNumber": 82,
                "velocity": 50
            },
            {
                "deltaTime": 106,
                "channel": 0,
                "type": "noteOff",
                "noteNumber": 82,
                "velocity": 50
            },
            {
                "deltaTime": 11,
                "channel": 0,
                "type": "noteOn",
                "noteNumber": 81,
                "velocity": 50
            },
            {
                "deltaTime": 11,
                "channel": 0,
                "type": "noteOn",
                "noteNumber": 82,
                "velocity": 50
            },
            {
                "deltaTime": 64,
                "channel": 0,
                "type": "noteOff",
                "noteNumber": 81,
                "velocity": 50
            },
            {
                "deltaTime": 0,
                "channel": 0,
                "type": "noteOn",
                "noteNumber": 80,
                "velocity": 50
            },
            {
                "deltaTime": 64,
                "channel": 0,
                "type": "noteOff",
                "noteNumber": 82,
                "velocity": 50
            },
            {
                "deltaTime": 0,
                "channel": 0,
                "type": "noteOn",
                "noteNumber": 79,
                "velocity": 50
            },
            {
                "deltaTime": 64,
                "channel": 0,
                "type": "noteOff",
                "noteNumber": 80,
                "velocity": 50
            },
            {
                "deltaTime": 0,
                "channel": 0,
                "type": "noteOn",
                "noteNumber": 80,
                "velocity": 50
            },
            {
                "deltaTime": 64,
                "channel": 0,
                "type": "noteOff",
                "noteNumber": 79,
                "velocity": 50
            },
            {
                "deltaTime": 0,
                "channel": 0,
                "type": "noteOn",
                "noteNumber": 79,
                "velocity": 50
            },
            {
                "deltaTime": 21,
                "channel": 0,
                "type": "noteOn",
                "noteNumber": 80,
                "velocity": 50
            },
            {
                "deltaTime": 21,
                "channel": 0,
                "type": "noteOn",
                "noteNumber": 79,
                "velocity": 50
            },
            {
                "deltaTime": 22,
                "channel": 0,
                "type": "noteOff",
                "noteNumber": 80,
                "velocity": 50
            },
            {
                "deltaTime": 18,
                "channel": 0,
                "type": "noteOff",
                "noteNumber": 79,
                "velocity": 50
            },
            {
                "deltaTime": 24,
                "channel": 0,
                "type": "noteOff",
                "noteNumber": 80,
                "velocity": 50
            },
            {
                "deltaTime": 296,
                "channel": 0,
                "type": "noteOff",
                "noteNumber": 79,
                "velocity": 50
            },
            {
                "deltaTime": 110,
                "channel": 0,
                "type": "noteOn",
                "noteNumber": 79,
                "velocity": 50
            },
            {
                "deltaTime": 64,
                "channel": 0,
                "type": "noteOn",
                "noteNumber": 80,
                "velocity": 50
            },
            {
                "deltaTime": 64,
                "channel": 0,
                "type": "noteOff",
                "noteNumber": 79,
                "velocity": 50
            },
            {
                "deltaTime": 0,
                "channel": 0,
                "type": "noteOn",
                "noteNumber": 79,
                "velocity": 50
            },
            {
                "deltaTime": 64,
                "channel": 0,
                "type": "noteOff",
                "noteNumber": 80,
                "velocity": 50
            },
            {
                "deltaTime": 0,
                "channel": 0,
                "type": "noteOn",
                "noteNumber": 77,
                "velocity": 50
            },
            {
                "deltaTime": 64,
                "channel": 0,
                "type": "noteOff",
                "noteNumber": 79,
                "velocity": 50
            },
            {
                "deltaTime": 0,
                "channel": 0,
                "type": "noteOn",
                "noteNumber": 74,
                "velocity": 50
            },
            {
                "deltaTime": 64,
                "channel": 0,
                "type": "noteOff",
                "noteNumber": 77,
                "velocity": 50
            },
            {
                "deltaTime": 64,
                "channel": 0,
                "type": "noteOn",
                "noteNumber": 70,
                "velocity": 50
            },
            {
                "deltaTime": 64,
                "channel": 0,
                "type": "noteOff",
                "noteNumber": 74,
                "velocity": 50
            },
            {
                "deltaTime": 64,
                "channel": 0,
                "type": "noteOn",
                "noteNumber": 80,
                "velocity": 50
            },
            {
                "deltaTime": 18,
                "channel": 0,
                "type": "noteOff",
                "noteNumber": 70,
                "velocity": 50
            },
            {
                "deltaTime": 88,
                "channel": 0,
                "type": "noteOff",
                "noteNumber": 80,
                "velocity": 50
            },
            {
                "deltaTime": 22,
                "channel": 0,
                "type": "noteOn",
                "noteNumber": 79,
                "velocity": 50
            },
            {
                "deltaTime": 128,
                "channel": 0,
                "type": "noteOn",
                "noteNumber": 79,
                "velocity": 50
            },
            {
                "deltaTime": 18,
                "channel": 0,
                "type": "noteOff",
                "noteNumber": 79,
                "velocity": 50
            },
            {
                "deltaTime": 46,
                "channel": 0,
                "type": "noteOn",
                "noteNumber": 77,
                "velocity": 50
            },
            {
                "deltaTime": 64,
                "channel": 0,
                "type": "noteOff",
                "noteNumber": 79,
                "velocity": 50
            },
            {
                "deltaTime": 0,
                "channel": 0,
                "type": "noteOn",
                "noteNumber": 75,
                "velocity": 50
            },
            {
                "deltaTime": 64,
                "channel": 0,
                "type": "noteOff",
                "noteNumber": 77,
                "velocity": 50
            },
            {
                "deltaTime": 0,
                "channel": 0,
                "type": "noteOn",
                "noteNumber": 77,
                "velocity": 50
            },
            {
                "deltaTime": 64,
                "channel": 0,
                "type": "noteOff",
                "noteNumber": 75,
                "velocity": 50
            },
            {
                "deltaTime": 0,
                "channel": 0,
                "type": "noteOn",
                "noteNumber": 79,
                "velocity": 50
            },
            {
                "deltaTime": 64,
                "channel": 0,
                "type": "noteOff",
                "noteNumber": 77,
                "velocity": 50
            },
            {
                "deltaTime": 82,
                "channel": 0,
                "type": "noteOff",
                "noteNumber": 79,
                "velocity": 50
            },
            {
                "deltaTime": 110,
                "channel": 0,
                "type": "noteOn",
                "noteNumber": 75,
                "velocity": 50
            },
            {
                "deltaTime": 106,
                "channel": 0,
                "type": "noteOff",
                "noteNumber": 75,
                "velocity": 50
            },
            {
                "deltaTime": 22,
                "channel": 0,
                "type": "noteOn",
                "noteNumber": 78,
                "velocity": 50
            },
            {
                "deltaTime": 128,
                "channel": 0,
                "type": "noteOn",
                "noteNumber": 74,
                "velocity": 50
            },
            {
                "deltaTime": 64,
                "channel": 0,
                "type": "noteOff",
                "noteNumber": 78,
                "velocity": 50
            },
            {
                "deltaTime": 64,
                "channel": 0,
                "type": "noteOn",
                "noteNumber": 72,
                "velocity": 50
            },
            {
                "deltaTime": 64,
                "channel": 0,
                "type": "noteOff",
                "noteNumber": 74,
                "velocity": 50
            },
            {
                "deltaTime": 64,
                "channel": 0,
                "type": "noteOn",
                "noteNumber": 66,
                "velocity": 50
            },
            {
                "deltaTime": 64,
                "channel": 0,
                "type": "noteOff",
                "noteNumber": 72,
                "velocity": 50
            },
            {
                "deltaTime": 128,
                "channel": 0,
                "type": "noteOff",
                "noteNumber": 66,
                "velocity": 50
            },
            {
                "deltaTime": 64,
                "channel": 0,
                "type": "noteOn",
                "noteNumber": 78,
                "velocity": 50
            },
            {
                "deltaTime": 128,
                "channel": 0,
                "type": "noteOn",
                "noteNumber": 79,
                "velocity": 50
            },
            {
                "deltaTime": 64,
                "channel": 0,
                "type": "noteOff",
                "noteNumber": 78,
                "velocity": 50
            },
            {
                "deltaTime": 256,
                "channel": 0,
                "type": "noteOff",
                "noteNumber": 79,
                "velocity": 50
            },
            {
                "deltaTime": 0,
                "meta": true,
                "type": "endOfTrack"
            }
        ],
        [
            {
                "deltaTime": 0,
                "meta": true,
                "type": "trackName",
                "text": "Harp"
            },
            {
                "deltaTime": 0,
                "meta": true,
                "type": "setTempo",
                "microsecondsPerBeat": 428571
            },
            {
                "deltaTime": 128,
                "channel": 0,
                "type": "noteOn",
                "noteNumber": 63,
                "velocity": 96
            },
            {
                "deltaTime": 0,
                "channel": 0,
                "type": "noteOn",
                "noteNumber": 60,
                "velocity": 96
            },
            {
                "deltaTime": 64,
                "channel": 0,
                "type": "noteOn",
                "noteNumber": 58,
                "velocity": 96
            },
            {
                "deltaTime": 0,
                "channel": 0,
                "type": "noteOn",
                "noteNumber": 62,
                "velocity": 96
            },
            {
                "deltaTime": 40,
                "channel": 0,
                "type": "noteOff",
                "noteNumber": 60,
                "velocity": 96
            },
            {
                "deltaTime": 0,
                "channel": 0,
                "type": "noteOff",
                "noteNumber": 63,
                "velocity": 96
            },
            {
                "deltaTime": 24,
                "channel": 0,
                "type": "noteOn",
                "noteNumber": 60,
                "velocity": 96
            },
            {
                "deltaTime": 0,
                "channel": 0,
                "type": "noteOn",
                "noteNumber": 63,
                "velocity": 96
            },
            {
                "deltaTime": 40,
                "channel": 0,
                "type": "noteOff",
                "noteNumber": 58,
                "velocity": 96
            },
            {
                "deltaTime": 0,
                "channel": 0,
                "type": "noteOff",
                "noteNumber": 62,
                "velocity": 96
            },
            {
                "deltaTime": 88,
                "channel": 0,
                "type": "noteOn",
                "noteNumber": 65,
                "velocity": 96
            },
            {
                "deltaTime": 18,
                "channel": 0,
                "type": "noteOff",
                "noteNumber": 63,
                "velocity": 96
            },
            {
                "deltaTime": 0,
                "channel": 0,
                "type": "noteOff",
                "noteNumber": 60,
                "velocity": 96
            },
            {
                "deltaTime": 174,
                "channel": 0,
                "type": "noteOff",
                "noteNumber": 65,
                "velocity": 96
            },
            {
                "deltaTime": 64,
                "channel": 0,
                "type": "noteOn",
                "noteNumber": 63,
                "velocity": 96
            },
            {
                "deltaTime": 128,
                "channel": 0,
                "type": "noteOn",
                "noteNumber": 65,
                "velocity": 96
            },
            {
                "deltaTime": 0,
                "channel": 0,
                "type": "noteOn",
                "noteNumber": 62,
                "velocity": 96
            },
            {
                "deltaTime": 21,
                "channel": 0,
                "type": "noteOff",
                "noteNumber": 63,
                "velocity": 96
            },
            {
                "deltaTime": 83,
                "channel": 0,
                "type": "noteOff",
                "noteNumber": 65,
                "velocity": 96
            },
            {
                "deltaTime": 0,
                "channel": 0,
                "type": "noteOff",
                "noteNumber": 62,
                "velocity": 96
            },
            {
                "deltaTime": 24,
                "channel": 0,
                "type": "noteOn",
                "noteNumber": 70,
                "velocity": 96
            },
            {
                "deltaTime": 0,
                "channel": 0,
                "type": "noteOn",
                "noteNumber": 62,
                "velocity": 96
            },
            {
                "deltaTime": 149,
                "channel": 0,
                "type": "noteOff",
                "noteNumber": 70,
                "velocity": 96
            },
            {
                "deltaTime": 0,
                "channel": 0,
                "type": "noteOff",
                "noteNumber": 62,
                "velocity": 96
            },
            {
                "deltaTime": 43,
                "channel": 0,
                "type": "noteOn",
                "noteNumber": 68,
                "velocity": 96
            },
            {
                "deltaTime": 64,
                "channel": 0,
                "type": "noteOn",
                "noteNumber": 67,
                "velocity": 96
            },
            {
                "deltaTime": 0,
                "channel": 0,
                "type": "noteOn",
                "noteNumber": 62,
                "velocity": 96
            },
            {
                "deltaTime": 42,
                "channel": 0,
                "type": "noteOff",
                "noteNumber": 68,
                "velocity": 96
            },
            {
                "deltaTime": 360,
                "channel": 0,
                "type": "noteOff",
                "noteNumber": 67,
                "velocity": 96
            },
            {
                "deltaTime": 0,
                "channel": 0,
                "type": "noteOff",
                "noteNumber": 62,
                "velocity": 96
            },
            {
                "deltaTime": 110,
                "channel": 0,
                "type": "noteOn",
                "noteNumber": 63,
                "velocity": 96
            },
            {
                "deltaTime": 0,
                "channel": 0,
                "type": "noteOn",
                "noteNumber": 67,
                "velocity": 96
            },
            {
                "deltaTime": 64,
                "channel": 0,
                "type": "noteOn",
                "noteNumber": 65,
                "velocity": 96
            },
            {
                "deltaTime": 0,
                "channel": 0,
                "type": "noteOn",
                "noteNumber": 62,
                "velocity": 96
            },
            {
                "deltaTime": 42,
                "channel": 0,
                "type": "noteOff",
                "noteNumber": 67,
                "velocity": 96
            },
            {
                "deltaTime": 0,
                "channel": 0,
                "type": "noteOff",
                "noteNumber": 63,
                "velocity": 96
            },
            {
                "deltaTime": 22,
                "channel": 0,
                "type": "noteOn",
                "noteNumber": 67,
                "velocity": 96
            },
            {
                "deltaTime": 42,
                "channel": 0,
                "type": "noteOff",
                "noteNumber": 65,
                "velocity": 96
            },
            {
                "deltaTime": 0,
                "channel": 0,
                "type": "noteOff",
                "noteNumber": 62,
                "velocity": 96
            },
            {
                "deltaTime": 64,
                "channel": 0,
                "type": "noteOff",
                "noteNumber": 67,
                "velocity": 96
            },
            {
                "deltaTime": 22,
                "channel": 0,
                "type": "noteOn",
                "noteNumber": 68,
                "velocity": 96
            },
            {
                "deltaTime": 0,
                "channel": 0,
                "type": "noteOn",
                "noteNumber": 65,
                "velocity": 96
            },
            {
                "deltaTime": 128,
                "channel": 0,
                "type": "noteOn",
                "noteNumber": 72,
                "velocity": 96
            },
            {
                "deltaTime": 0,
                "channel": 0,
                "type": "noteOn",
                "noteNumber": 75,
                "velocity": 96
            },
            {
                "deltaTime": 18,
                "channel": 0,
                "type": "noteOff",
                "noteNumber": 65,
                "velocity": 96
            },
            {
                "deltaTime": 0,
                "channel": 0,
                "type": "noteOff",
                "noteNumber": 68,
                "velocity": 96
            },
            {
                "deltaTime": 86,
                "channel": 0,
                "type": "noteOff",
                "noteNumber": 72,
                "velocity": 96
            },
            {
                "deltaTime": 0,
                "channel": 0,
                "type": "noteOff",
                "noteNumber": 75,
                "velocity": 96
            },
            {
                "deltaTime": 24,
                "channel": 0,
                "type": "noteOn",
                "noteNumber": 74,
                "velocity": 96
            },
            {
                "deltaTime": 104,
                "channel": 0,
                "type": "noteOff",
                "noteNumber": 74,
                "velocity": 96
            },
            {
                "deltaTime": 24,
                "channel": 0,
                "type": "noteOn",
                "noteNumber": 65,
                "velocity": 96
            },
            {
                "deltaTime": 0,
                "channel": 0,
                "type": "noteOn",
                "noteNumber": 74,
                "velocity": 96
            },
            {
                "deltaTime": 128,
                "channel": 0,
                "type": "noteOn",
                "noteNumber": 70,
                "velocity": 96
            },
            {
                "deltaTime": 0,
                "channel": 0,
                "type": "noteOn",
                "noteNumber": 62,
                "velocity": 96
            },
            {
                "deltaTime": 21,
                "channel": 0,
                "type": "noteOff",
                "noteNumber": 74,
                "velocity": 96
            },
            {
                "deltaTime": 0,
                "channel": 0,
                "type": "noteOff",
                "noteNumber": 65,
                "velocity": 96
            },
            {
                "deltaTime": 83,
                "channel": 0,
                "type": "noteOff",
                "noteNumber": 70,
                "velocity": 96
            },
            {
                "deltaTime": 0,
                "channel": 0,
                "type": "noteOff",
                "noteNumber": 62,
                "velocity": 96
            },
            {
                "deltaTime": 88,
                "channel": 0,
                "type": "noteOn",
                "noteNumber": 68,
                "velocity": 96
            },
            {
                "deltaTime": 0,
                "channel": 0,
                "type": "noteOn",
                "noteNumber": 60,
                "velocity": 96
            },
            {
                "deltaTime": 64,
                "channel": 0,
                "type": "noteOn",
                "noteNumber": 67,
                "velocity": 96
            },
            {
                "deltaTime": 0,
                "channel": 0,
                "type": "noteOn",
                "noteNumber": 58,
                "velocity": 96
            },
            {
                "deltaTime": 40,
                "channel": 0,
                "type": "noteOff",
                "noteNumber": 60,
                "velocity": 96
            },
            {
                "deltaTime": 0,
                "channel": 0,
                "type": "noteOff",
                "noteNumber": 68,
                "velocity": 96
            },
            {
                "deltaTime": 365,
                "channel": 0,
                "type": "noteOff",
                "noteNumber": 67,
                "velocity": 96
            },
            {
                "deltaTime": 0,
                "channel": 0,
                "type": "noteOff",
                "noteNumber": 58,
                "velocity": 96
            },
            {
                "deltaTime": 107,
                "channel": 0,
                "type": "noteOn",
                "noteNumber": 51,
                "velocity": 96
            },
            {
                "deltaTime": 0,
                "channel": 0,
                "type": "noteOn",
                "noteNumber": 55,
                "velocity": 96
            },
            {
                "deltaTime": 0,
                "channel": 0,
                "type": "noteOn",
                "noteNumber": 60,
                "velocity": 96
            },
            {
                "deltaTime": 0,
                "channel": 0,
                "type": "noteOn",
                "noteNumber": 63,
                "velocity": 96
            },
            {
                "deltaTime": 64,
                "channel": 0,
                "type": "noteOn",
                "noteNumber": 62,
                "velocity": 96
            },
            {
                "deltaTime": 0,
                "channel": 0,
                "type": "noteOn",
                "noteNumber": 58,
                "velocity": 96
            },
            {
                "deltaTime": 40,
                "channel": 0,
                "type": "noteOff",
                "noteNumber": 60,
                "velocity": 96
            },
            {
                "deltaTime": 0,
                "channel": 0,
                "type": "noteOff",
                "noteNumber": 63,
                "velocity": 96
            },
            {
                "deltaTime": 0,
                "channel": 0,
                "type": "noteOff",
                "noteNumber": 55,
                "velocity": 96
            },
            {
                "deltaTime": 0,
                "channel": 0,
                "type": "noteOff",
                "noteNumber": 51,
                "velocity": 96
            },
            {
                "deltaTime": 24,
                "channel": 0,
                "type": "noteOn",
                "noteNumber": 60,
                "velocity": 96
            },
            {
                "deltaTime": 0,
                "channel": 0,
                "type": "noteOn",
                "noteNumber": 51,
                "velocity": 96
            },
            {
                "deltaTime": 0,
                "channel": 0,
                "type": "noteOn",
                "noteNumber": 63,
                "velocity": 96
            },
            {
                "deltaTime": 0,
                "channel": 0,
                "type": "noteOn",
                "noteNumber": 55,
                "velocity": 96
            },
            {
                "deltaTime": 40,
                "channel": 0,
                "type": "noteOff",
                "noteNumber": 62,
                "velocity": 96
            },
            {
                "deltaTime": 0,
                "channel": 0,
                "type": "noteOff",
                "noteNumber": 58,
                "velocity": 96
            },
            {
                "deltaTime": 64,
                "channel": 0,
                "type": "noteOff",
                "noteNumber": 51,
                "velocity": 96
            },
            {
                "deltaTime": 0,
                "channel": 0,
                "type": "noteOff",
                "noteNumber": 55,
                "velocity": 96
            },
            {
                "deltaTime": 0,
                "channel": 0,
                "type": "noteOff",
                "noteNumber": 60,
                "velocity": 96
            },
            {
                "deltaTime": 0,
                "channel": 0,
                "type": "noteOff",
                "noteNumber": 63,
                "velocity": 96
            },
            {
                "deltaTime": 24,
                "channel": 0,
                "type": "noteOn",
                "noteNumber": 56,
                "velocity": 96
            },
            {
                "deltaTime": 0,
                "channel": 0,
                "type": "noteOn",
                "noteNumber": 65,
                "velocity": 96
            },
            {
                "deltaTime": 192,
                "channel": 0,
                "type": "noteOff",
                "noteNumber": 56,
                "velocity": 96
            },
            {
                "deltaTime": 0,
                "channel": 0,
                "type": "noteOff",
                "noteNumber": 65,
                "velocity": 96
            },
            {
                "deltaTime": 64,
                "channel": 0,
                "type": "noteOn",
                "noteNumber": 63,
                "velocity": 96
            },
            {
                "deltaTime": 0,
                "channel": 0,
                "type": "noteOn",
                "noteNumber": 56,
                "velocity": 96
            },
            {
                "deltaTime": 104,
                "channel": 0,
                "type": "noteOff",
                "noteNumber": 63,
                "velocity": 96
            },
            {
                "deltaTime": 0,
                "channel": 0,
                "type": "noteOff",
                "noteNumber": 56,
                "velocity": 96
            },
            {
                "deltaTime": 24,
                "channel": 0,
                "type": "noteOn",
                "noteNumber": 65,
                "velocity": 96
            },
            {
                "deltaTime": 0,
                "channel": 0,
                "type": "noteOn",
                "noteNumber": 62,
                "velocity": 96
            },
            {
                "deltaTime": 104,
                "channel": 0,
                "type": "noteOff",
                "noteNumber": 65,
                "velocity": 96
            },
            {
                "deltaTime": 0,
                "channel": 0,
                "type": "noteOff",
                "noteNumber": 62,
                "velocity": 96
            },
            {
                "deltaTime": 24,
                "channel": 0,
                "type": "noteOn",
                "noteNumber": 62,
                "velocity": 96
            },
            {
                "deltaTime": 0,
                "channel": 0,
                "type": "noteOn",
                "noteNumber": 70,
                "velocity": 96
            },
            {
                "deltaTime": 104,
                "channel": 0,
                "type": "noteOff",
                "noteNumber": 62,
                "velocity": 96
            },
            {
                "deltaTime": 0,
                "channel": 0,
                "type": "noteOff",
                "noteNumber": 70,
                "velocity": 96
            },
            {
                "deltaTime": 88,
                "channel": 0,
                "type": "noteOn",
                "noteNumber": 68,
                "velocity": 96
            },
            {
                "deltaTime": 64,
                "channel": 0,
                "type": "noteOn",
                "noteNumber": 67,
                "velocity": 96
            },
            {
                "deltaTime": 0,
                "channel": 0,
                "type": "noteOn",
                "noteNumber": 62,
                "velocity": 96
            },
            {
                "deltaTime": 42,
                "channel": 0,
                "type": "noteOff",
                "noteNumber": 68,
                "velocity": 96
            },
            {
                "deltaTime": 150,
                "channel": 0,
                "type": "noteOff",
                "noteNumber": 62,
                "velocity": 96
            },
            {
                "deltaTime": 0,
                "channel": 0,
                "type": "noteOff",
                "noteNumber": 67,
                "velocity": 96
            },
            {
                "deltaTime": 64,
                "channel": 0,
                "type": "noteOn",
                "noteNumber": 63,
                "velocity": 96
            },
            {
                "deltaTime": 128,
                "channel": 0,
                "type": "noteOn",
                "noteNumber": 60,
                "velocity": 96
            },
            {
                "deltaTime": 64,
                "channel": 0,
                "type": "noteOff",
                "noteNumber": 63,
                "velocity": 96
            },
            {
                "deltaTime": 64,
                "channel": 0,
                "type": "noteOn",
                "noteNumber": 63,
                "velocity": 96
            },
            {
                "deltaTime": 64,
                "channel": 0,
                "type": "noteOff",
                "noteNumber": 60,
                "velocity": 96
            },
            {
                "deltaTime": 64,
                "channel": 0,
                "type": "noteOn",
                "noteNumber": 67,
                "velocity": 96
            },
            {
                "deltaTime": 64,
                "channel": 0,
                "type": "noteOff",
                "noteNumber": 63,
                "velocity": 96
            },
            {
                "deltaTime": 64,
                "channel": 0,
                "type": "noteOn",
                "noteNumber": 75,
                "velocity": 96
            },
            {
                "deltaTime": 64,
                "channel": 0,
                "type": "noteOff",
                "noteNumber": 67,
                "velocity": 96
            },
            {
                "deltaTime": 128,
                "channel": 0,
                "type": "noteOff",
                "noteNumber": 75,
                "velocity": 96
            },
            {
                "deltaTime": 0,
                "channel": 0,
                "type": "noteOn",
                "noteNumber": 74,
                "velocity": 96
            },
            {
                "deltaTime": 64,
                "channel": 0,
                "type": "noteOn",
                "noteNumber": 70,
                "velocity": 96
            },
            {
                "deltaTime": 42,
                "channel": 0,
                "type": "noteOff",
                "noteNumber": 74,
                "velocity": 96
            },
            {
                "deltaTime": 86,
                "channel": 0,
                "type": "noteOn",
                "noteNumber": 72,
                "velocity": 96
            },
            {
                "deltaTime": 64,
                "channel": 0,
                "type": "noteOff",
                "noteNumber": 70,
                "velocity": 96
            },
            {
                "deltaTime": 42,
                "channel": 0,
                "type": "noteOff",
                "noteNumber": 72,
                "velocity": 96
            },
            {
                "deltaTime": 22,
                "channel": 0,
                "type": "noteOn",
                "noteNumber": 67,
                "velocity": 96
            },
            {
                "deltaTime": 192,
                "channel": 0,
                "type": "noteOff",
                "noteNumber": 67,
                "velocity": 96
            },
            {
                "deltaTime": 0,
                "channel": 0,
                "type": "noteOn",
                "noteNumber": 65,
                "velocity": 96
            },
            {
                "deltaTime": 64,
                "channel": 0,
                "type": "noteOn",
                "noteNumber": 67,
                "velocity": 96
            },
            {
                "deltaTime": 42,
                "channel": 0,
                "type": "noteOff",
                "noteNumber": 65,
                "velocity": 96
            },
            {
                "deltaTime": 75,
                "channel": 0,
                "type": "noteOn",
                "noteNumber": 62,
                "velocity": 96
            },
            {
                "deltaTime": 459,
                "channel": 0,
                "type": "noteOff",
                "noteNumber": 67,
                "velocity": 96
            },
            {
                "deltaTime": 0,
                "channel": 0,
                "type": "noteOff",
                "noteNumber": 62,
                "velocity": 96
            },
            {
                "deltaTime": 192,
                "channel": 0,
                "type": "noteOn",
                "noteNumber": 72,
                "velocity": 96
            },
            {
                "deltaTime": 0,
                "channel": 0,
                "type": "noteOn",
                "noteNumber": 63,
                "velocity": 96
            },
            {
                "deltaTime": 192,
                "channel": 0,
                "type": "noteOff",
                "noteNumber": 72,
                "velocity": 96
            },
            {
                "deltaTime": 0,
                "channel": 0,
                "type": "noteOff",
                "noteNumber": 63,
                "velocity": 96
            },
            {
                "deltaTime": 64,
                "channel": 0,
                "type": "noteOn",
                "noteNumber": 67,
                "velocity": 96
            },
            {
                "deltaTime": 0,
                "channel": 0,
                "type": "noteOn",
                "noteNumber": 75,
                "velocity": 96
            },
            {
                "deltaTime": 64,
                "channel": 0,
                "type": "noteOn",
                "noteNumber": 79,
                "velocity": 96
            },
            {
                "deltaTime": 42,
                "channel": 0,
                "type": "noteOff",
                "noteNumber": 67,
                "velocity": 96
            },
            {
                "deltaTime": 0,
                "channel": 0,
                "type": "noteOff",
                "noteNumber": 75,
                "velocity": 96
            },
            {
                "deltaTime": 22,
                "channel": 0,
                "type": "noteOn",
                "noteNumber": 79,
                "velocity": 96
            },
            {
                "deltaTime": 10,
                "channel": 0,
                "type": "noteOn",
                "noteNumber": 87,
                "velocity": 96
            },
            {
                "deltaTime": 32,
                "channel": 0,
                "type": "noteOff",
                "noteNumber": 79,
                "velocity": 96
            },
            {
                "deltaTime": 64,
                "channel": 0,
                "type": "noteOff",
                "noteNumber": 79,
                "velocity": 96
            },
            {
                "deltaTime": 8,
                "channel": 0,
                "type": "noteOff",
                "noteNumber": 87,
                "velocity": 96
            },
            {
                "deltaTime": 142,
                "channel": 0,
                "type": "noteOn",
                "noteNumber": 86,
                "velocity": 96
            },
            {
                "deltaTime": 0,
                "channel": 0,
                "type": "noteOn",
                "noteNumber": 77,
                "velocity": 96
            },
            {
                "deltaTime": 106,
                "channel": 0,
                "type": "noteOff",
                "noteNumber": 86,
                "velocity": 96
            },
            {
                "deltaTime": 0,
                "channel": 0,
                "type": "noteOff",
                "noteNumber": 77,
                "velocity": 96
            },
            {
                "deltaTime": 22,
                "channel": 0,
                "type": "noteOn",
                "noteNumber": 74,
                "velocity": 96
            },
            {
                "deltaTime": 0,
                "channel": 0,
                "type": "noteOn",
                "noteNumber": 82,
                "velocity": 96
            },
            {
                "deltaTime": 106,
                "channel": 0,
                "type": "noteOff",
                "noteNumber": 82,
                "velocity": 96
            },
            {
                "deltaTime": 0,
                "channel": 0,
                "type": "noteOff",
                "noteNumber": 74,
                "velocity": 96
            },
            {
                "deltaTime": 86,
                "channel": 0,
                "type": "noteOn",
                "noteNumber": 72,
                "velocity": 96
            },
            {
                "deltaTime": 64,
                "channel": 0,
                "type": "noteOn",
                "noteNumber": 74,
                "velocity": 96
            },
            {
                "deltaTime": 0,
                "channel": 0,
                "type": "noteOn",
                "noteNumber": 77,
                "velocity": 96
            },
            {
                "deltaTime": 42,
                "channel": 0,
                "type": "noteOff",
                "noteNumber": 72,
                "velocity": 96
            },
            {
                "deltaTime": 64,
                "channel": 0,
                "type": "noteOff",
                "noteNumber": 74,
                "velocity": 96
            },
            {
                "deltaTime": 0,
                "channel": 0,
                "type": "noteOff",
                "noteNumber": 77,
                "velocity": 96
            },
            {
                "deltaTime": 22,
                "channel": 0,
                "type": "noteOn",
                "noteNumber": 74,
                "velocity": 96
            },
            {
                "deltaTime": 0,
                "channel": 0,
                "type": "noteOn",
                "noteNumber": 79,
                "velocity": 96
            },
            {
                "deltaTime": 106,
                "channel": 0,
                "type": "noteOff",
                "noteNumber": 79,
                "velocity": 96
            },
            {
                "deltaTime": 0,
                "channel": 0,
                "type": "noteOff",
                "noteNumber": 74,
                "velocity": 96
            },
            {
                "deltaTime": 278,
                "channel": 0,
                "type": "noteOn",
                "noteNumber": 75,
                "velocity": 96
            },
            {
                "deltaTime": 0,
                "channel": 0,
                "type": "noteOn",
                "noteNumber": 79,
                "velocity": 96
            },
            {
                "deltaTime": 106,
                "channel": 0,
                "type": "noteOff",
                "noteNumber": 75,
                "velocity": 96
            },
            {
                "deltaTime": 0,
                "channel": 0,
                "type": "noteOff",
                "noteNumber": 79,
                "velocity": 96
            },
            {
                "deltaTime": 150,
                "channel": 0,
                "type": "noteOn",
                "noteNumber": 80,
                "velocity": 96
            },
            {
                "deltaTime": 0,
                "channel": 0,
                "type": "noteOn",
                "noteNumber": 77,
                "velocity": 96
            },
            {
                "deltaTime": 64,
                "channel": 0,
                "type": "noteOn",
                "noteNumber": 79,
                "velocity": 96
            },
            {
                "deltaTime": 0,
                "channel": 0,
                "type": "noteOn",
                "noteNumber": 82,
                "velocity": 96
            },
            {
                "deltaTime": 40,
                "channel": 0,
                "type": "noteOff",
                "noteNumber": 80,
                "velocity": 96
            },
            {
                "deltaTime": 0,
                "channel": 0,
                "type": "noteOff",
                "noteNumber": 77,
                "velocity": 96
            },
            {
                "deltaTime": 24,
                "channel": 0,
                "type": "noteOn",
                "noteNumber": 80,
                "velocity": 96
            },
            {
                "deltaTime": 0,
                "channel": 0,
                "type": "noteOn",
                "noteNumber": 77,
                "velocity": 96
            },
            {
                "deltaTime": 40,
                "channel": 0,
                "type": "noteOff",
                "noteNumber": 82,
                "velocity": 96
            },
            {
                "deltaTime": 0,
                "channel": 0,
                "type": "noteOff",
                "noteNumber": 79,
                "velocity": 96
            },
            {
                "deltaTime": 152,
                "channel": 0,
                "type": "noteOff",
                "noteNumber": 80,
                "velocity": 96
            },
            {
                "deltaTime": 0,
                "channel": 0,
                "type": "noteOff",
                "noteNumber": 77,
                "velocity": 96
            },
            {
                "deltaTime": 64,
                "channel": 0,
                "type": "noteOn",
                "noteNumber": 79,
                "velocity": 96
            },
            {
                "deltaTime": 0,
                "channel": 0,
                "type": "noteOn",
                "noteNumber": 75,
                "velocity": 96
            },
            {
                "deltaTime": 104,
                "channel": 0,
                "type": "noteOff",
                "noteNumber": 75,
                "velocity": 96
            },
            {
                "deltaTime": 0,
                "channel": 0,
                "type": "noteOff",
                "noteNumber": 79,
                "velocity": 96
            },
            {
                "deltaTime": 24,
                "channel": 0,
                "type": "noteOn",
                "noteNumber": 77,
                "velocity": 96
            },
            {
                "deltaTime": 0,
                "channel": 0,
                "type": "noteOn",
                "noteNumber": 74,
                "velocity": 96
            },
            {
                "deltaTime": 64,
                "channel": 0,
                "type": "noteOn",
                "noteNumber": 72,
                "velocity": 96
            },
            {
                "deltaTime": 64,
                "channel": 0,
                "type": "noteOff",
                "noteNumber": 74,
                "velocity": 96
            },
            {
                "deltaTime": 0,
                "channel": 0,
                "type": "noteOn",
                "noteNumber": 74,
                "velocity": 96
            },
            {
                "deltaTime": 64,
                "channel": 0,
                "type": "noteOff",
                "noteNumber": 77,
                "velocity": 96
            },
            {
                "deltaTime": 0,
                "channel": 0,
                "type": "noteOff",
                "noteNumber": 72,
                "velocity": 96
            },
            {
                "deltaTime": 0,
                "channel": 0,
                "type": "noteOn",
                "noteNumber": 75,
                "velocity": 96
            },
            {
                "deltaTime": 0,
                "channel": 0,
                "type": "noteOn",
                "noteNumber": 72,
                "velocity": 96
            },
            {
                "deltaTime": 64,
                "channel": 0,
                "type": "noteOff",
                "noteNumber": 74,
                "velocity": 96
            },
            {
                "deltaTime": 0,
                "channel": 0,
                "type": "noteOn",
                "noteNumber": 74,
                "velocity": 96
            },
            {
                "deltaTime": 0,
                "channel": 0,
                "type": "noteOn",
                "noteNumber": 70,
                "velocity": 96
            },
            {
                "deltaTime": 64,
                "channel": 0,
                "type": "noteOff",
                "noteNumber": 72,
                "velocity": 96
            },
            {
                "deltaTime": 0,
                "channel": 0,
                "type": "noteOff",
                "noteNumber": 75,
                "velocity": 96
            },
            {
                "deltaTime": 0,
                "channel": 0,
                "type": "noteOn",
                "noteNumber": 75,
                "velocity": 96
            },
            {
                "deltaTime": 53,
                "channel": 0,
                "type": "noteOn",
                "noteNumber": 70,
                "velocity": 96
            },
            {
                "deltaTime": 11,
                "channel": 0,
                "type": "noteOff",
                "noteNumber": 74,
                "velocity": 96
            },
            {
                "deltaTime": 0,
                "channel": 0,
                "type": "noteOff",
                "noteNumber": 70,
                "velocity": 96
            },
            {
                "deltaTime": 21,
                "channel": 0,
                "type": "noteOn",
                "noteNumber": 74,
                "velocity": 96
            },
            {
                "deltaTime": 11,
                "channel": 0,
                "type": "noteOn",
                "noteNumber": 79,
                "velocity": 96
            },
            {
                "deltaTime": 32,
                "channel": 0,
                "type": "noteOff",
                "noteNumber": 75,
                "velocity": 96
            },
            {
                "deltaTime": 253,
                "channel": 0,
                "type": "noteOff",
                "noteNumber": 70,
                "velocity": 96
            },
            {
                "deltaTime": 0,
                "channel": 0,
                "type": "noteOff",
                "noteNumber": 74,
                "velocity": 96
            },
            {
                "deltaTime": 3,
                "channel": 0,
                "type": "noteOff",
                "noteNumber": 79,
                "velocity": 96
            },
            {
                "deltaTime": 64,
                "channel": 0,
                "type": "noteOn",
                "noteNumber": 63,
                "velocity": 96
            },
            {
                "deltaTime": 0,
                "channel": 0,
                "type": "noteOn",
                "noteNumber": 72,
                "velocity": 96
            },
            {
                "deltaTime": 192,
                "channel": 0,
                "type": "noteOff",
                "noteNumber": 63,
                "velocity": 96
            },
            {
                "deltaTime": 0,
                "channel": 0,
                "type": "noteOff",
                "noteNumber": 72,
                "velocity": 96
            },
            {
                "deltaTime": 64,
                "channel": 0,
                "type": "noteOn",
                "noteNumber": 67,
                "velocity": 96
            },
            {
                "deltaTime": 0,
                "channel": 0,
                "type": "noteOn",
                "noteNumber": 75,
                "velocity": 96
            },
            {
                "deltaTime": 64,
                "channel": 0,
                "type": "noteOn",
                "noteNumber": 79,
                "velocity": 96
            },
            {
                "deltaTime": 40,
                "channel": 0,
                "type": "noteOff",
                "noteNumber": 67,
                "velocity": 96
            },
            {
                "deltaTime": 0,
                "channel": 0,
                "type": "noteOff",
                "noteNumber": 75,
                "velocity": 96
            },
            {
                "deltaTime": 24,
                "channel": 0,
                "type": "noteOn",
                "noteNumber": 79,
                "velocity": 96
            },
            {
                "deltaTime": 10,
                "channel": 0,
                "type": "noteOn",
                "noteNumber": 87,
                "velocity": 96
            },
            {
                "deltaTime": 30,
                "channel": 0,
                "type": "noteOff",
                "noteNumber": 79,
                "velocity": 96
            },
            {
                "deltaTime": 64,
                "channel": 0,
                "type": "noteOff",
                "noteNumber": 79,
                "velocity": 96
            },
            {
                "deltaTime": 13,
                "channel": 0,
                "type": "noteOff",
                "noteNumber": 87,
                "velocity": 96
            },
            {
                "deltaTime": 139,
                "channel": 0,
                "type": "noteOn",
                "noteNumber": 86,
                "velocity": 96
            },
            {
                "deltaTime": 0,
                "channel": 0,
                "type": "noteOn",
                "noteNumber": 77,
                "velocity": 96
            },
            {
                "deltaTime": 104,
                "channel": 0,
                "type": "noteOff",
                "noteNumber": 86,
                "velocity": 96
            },
            {
                "deltaTime": 0,
                "channel": 0,
                "type": "noteOff",
                "noteNumber": 77,
                "velocity": 96
            },
            {
                "deltaTime": 24,
                "channel": 0,
                "type": "noteOn",
                "noteNumber": 74,
                "velocity": 96
            },
            {
                "deltaTime": 0,
                "channel": 0,
                "type": "noteOn",
                "noteNumber": 82,
                "velocity": 96
            },
            {
                "deltaTime": 104,
                "channel": 0,
                "type": "noteOff",
                "noteNumber": 74,
                "velocity": 96
            },
            {
                "deltaTime": 0,
                "channel": 0,
                "type": "noteOff",
                "noteNumber": 82,
                "velocity": 96
            },
            {
                "deltaTime": 88,
                "channel": 0,
                "type": "noteOn",
                "noteNumber": 72,
                "velocity": 96
            },
            {
                "deltaTime": 64,
                "channel": 0,
                "type": "noteOn",
                "noteNumber": 74,
                "velocity": 96
            },
            {
                "deltaTime": 0,
                "channel": 0,
                "type": "noteOn",
                "noteNumber": 77,
                "velocity": 96
            },
            {
                "deltaTime": 0,
                "channel": 0,
                "type": "noteOn",
                "noteNumber": 70,
                "velocity": 96
            },
            {
                "deltaTime": 40,
                "channel": 0,
                "type": "noteOff",
                "noteNumber": 72,
                "velocity": 96
            },
            {
                "deltaTime": 24,
                "channel": 0,
                "type": "noteOn",
                "noteNumber": 68,
                "velocity": 96
            },
            {
                "deltaTime": 40,
                "channel": 0,
                "type": "noteOff",
                "noteNumber": 70,
                "velocity": 96
            },
            {
                "deltaTime": 0,
                "channel": 0,
                "type": "noteOff",
                "noteNumber": 77,
                "velocity": 96
            },
            {
                "deltaTime": 0,
                "channel": 0,
                "type": "noteOff",
                "noteNumber": 74,
                "velocity": 96
            },
            {
                "deltaTime": 24,
                "channel": 0,
                "type": "noteOn",
                "noteNumber": 79,
                "velocity": 96
            },
            {
                "deltaTime": 0,
                "channel": 0,
                "type": "noteOn",
                "noteNumber": 74,
                "velocity": 96
            },
            {
                "deltaTime": 0,
                "channel": 0,
                "type": "noteOn",
                "noteNumber": 70,
                "velocity": 96
            },
            {
                "deltaTime": 40,
                "channel": 0,
                "type": "noteOff",
                "noteNumber": 68,
                "velocity": 96
            },
            {
                "deltaTime": 280,
                "channel": 0,
                "type": "noteOff",
                "noteNumber": 79,
                "velocity": 96
            },
            {
                "deltaTime": 0,
                "channel": 0,
                "type": "noteOff",
                "noteNumber": 74,
                "velocity": 96
            },
            {
                "deltaTime": 0,
                "channel": 0,
                "type": "noteOff",
                "noteNumber": 70,
                "velocity": 96
            },
            {
                "deltaTime": 64,
                "channel": 0,
                "type": "noteOn",
                "noteNumber": 79,
                "velocity": 96
            },
            {
                "deltaTime": 0,
                "channel": 0,
                "type": "noteOn",
                "noteNumber": 75,
                "velocity": 96
            },
            {
                "deltaTime": 104,
                "channel": 0,
                "type": "noteOff",
                "noteNumber": 75,
                "velocity": 96
            },
            {
                "deltaTime": 0,
                "channel": 0,
                "type": "noteOff",
                "noteNumber": 79,
                "velocity": 96
            },
            {
                "deltaTime": 24,
                "channel": 0,
                "type": "noteOn",
                "noteNumber": 80,
                "velocity": 96
            },
            {
                "deltaTime": 0,
                "channel": 0,
                "type": "noteOn",
                "noteNumber": 77,
                "velocity": 96
            },
            {
                "deltaTime": 104,
                "channel": 0,
                "type": "noteOff",
                "noteNumber": 80,
                "velocity": 96
            },
            {
                "deltaTime": 0,
                "channel": 0,
                "type": "noteOff",
                "noteNumber": 77,
                "velocity": 96
            },
            {
                "deltaTime": 66,
                "channel": 0,
                "type": "noteOn",
                "noteNumber": 79,
                "velocity": 96
            },
            {
                "deltaTime": 0,
                "channel": 0,
                "type": "noteOn",
                "noteNumber": 82,
                "velocity": 96
            },
            {
                "deltaTime": 86,
                "channel": 0,
                "type": "noteOn",
                "noteNumber": 80,
                "velocity": 96
            },
            {
                "deltaTime": 0,
                "channel": 0,
                "type": "noteOn",
                "noteNumber": 77,
                "velocity": 96
            },
            {
                "deltaTime": 21,
                "channel": 0,
                "type": "noteOff",
                "noteNumber": 82,
                "velocity": 96
            },
            {
                "deltaTime": 0,
                "channel": 0,
                "type": "noteOff",
                "noteNumber": 79,
                "velocity": 96
            },
            {
                "deltaTime": 83,
                "channel": 0,
                "type": "noteOff",
                "noteNumber": 80,
                "velocity": 96
            },
            {
                "deltaTime": 0,
                "channel": 0,
                "type": "noteOff",
                "noteNumber": 77,
                "velocity": 96
            },
            {
                "deltaTime": 152,
                "channel": 0,
                "type": "noteOn",
                "noteNumber": 79,
                "velocity": 96
            },
            {
                "deltaTime": 0,
                "channel": 0,
                "type": "noteOn",
                "noteNumber": 75,
                "velocity": 96
            },
            {
                "deltaTime": 104,
                "channel": 0,
                "type": "noteOff",
                "noteNumber": 75,
                "velocity": 96
            },
            {
                "deltaTime": 0,
                "channel": 0,
                "type": "noteOff",
                "noteNumber": 79,
                "velocity": 96
            },
            {
                "deltaTime": 24,
                "channel": 0,
                "type": "noteOn",
                "noteNumber": 74,
                "velocity": 96
            },
            {
                "deltaTime": 0,
                "channel": 0,
                "type": "noteOn",
                "noteNumber": 77,
                "velocity": 96
            },
            {
                "deltaTime": 192,
                "channel": 0,
                "type": "noteOn",
                "noteNumber": 75,
                "velocity": 96
            },
            {
                "deltaTime": 0,
                "channel": 0,
                "type": "noteOn",
                "noteNumber": 72,
                "velocity": 96
            },
            {
                "deltaTime": 40,
                "channel": 0,
                "type": "noteOff",
                "noteNumber": 74,
                "velocity": 96
            },
            {
                "deltaTime": 0,
                "channel": 0,
                "type": "noteOff",
                "noteNumber": 77,
                "velocity": 96
            },
            {
                "deltaTime": 24,
                "channel": 0,
                "type": "noteOn",
                "noteNumber": 77,
                "velocity": 96
            },
            {
                "deltaTime": 0,
                "channel": 0,
                "type": "noteOn",
                "noteNumber": 74,
                "velocity": 96
            },
            {
                "deltaTime": 40,
                "channel": 0,
                "type": "noteOff",
                "noteNumber": 75,
                "velocity": 96
            },
            {
                "deltaTime": 0,
                "channel": 0,
                "type": "noteOff",
                "noteNumber": 72,
                "velocity": 96
            },
            {
                "deltaTime": 64,
                "channel": 0,
                "type": "noteOff",
                "noteNumber": 77,
                "velocity": 96
            },
            {
                "deltaTime": 0,
                "channel": 0,
                "type": "noteOff",
                "noteNumber": 74,
                "velocity": 96
            },
            {
                "deltaTime": 24,
                "channel": 0,
                "type": "noteOn",
                "noteNumber": 79,
                "velocity": 96
            },
            {
                "deltaTime": 0,
                "channel": 0,
                "type": "noteOn",
                "noteNumber": 74,
                "velocity": 96
            },
            {
                "deltaTime": 360,
                "channel": 0,
                "type": "noteOff",
                "noteNumber": 79,
                "velocity": 96
            },
            {
                "deltaTime": 0,
                "channel": 0,
                "type": "noteOff",
                "noteNumber": 74,
                "velocity": 96
            },
            {
                "deltaTime": 24,
                "channel": 0,
                "type": "noteOn",
                "noteNumber": 72,
                "velocity": 96
            },
            {
                "deltaTime": 192,
                "channel": 0,
                "type": "noteOff",
                "noteNumber": 72,
                "velocity": 96
            },
            {
                "deltaTime": 64,
                "channel": 0,
                "type": "noteOn",
                "noteNumber": 67,
                "velocity": 96
            },
            {
                "deltaTime": 0,
                "channel": 0,
                "type": "noteOn",
                "noteNumber": 75,
                "velocity": 96
            },
            {
                "deltaTime": 64,
                "channel": 0,
                "type": "noteOn",
                "noteNumber": 79,
                "velocity": 96
            },
            {
                "deltaTime": 40,
                "channel": 0,
                "type": "noteOff",
                "noteNumber": 75,
                "velocity": 96
            },
            {
                "deltaTime": 0,
                "channel": 0,
                "type": "noteOff",
                "noteNumber": 67,
                "velocity": 96
            },
            {
                "deltaTime": 24,
                "channel": 0,
                "type": "noteOn",
                "noteNumber": 79,
                "velocity": 96
            },
            {
                "deltaTime": 10,
                "channel": 0,
                "type": "noteOn",
                "noteNumber": 87,
                "velocity": 96
            },
            {
                "deltaTime": 30,
                "channel": 0,
                "type": "noteOff",
                "noteNumber": 79,
                "velocity": 96
            },
            {
                "deltaTime": 64,
                "channel": 0,
                "type": "noteOff",
                "noteNumber": 79,
                "velocity": 96
            },
            {
                "deltaTime": 13,
                "channel": 0,
                "type": "noteOff",
                "noteNumber": 87,
                "velocity": 96
            },
            {
                "deltaTime": 139,
                "channel": 0,
                "type": "noteOn",
                "noteNumber": 86,
                "velocity": 96
            },
            {
                "deltaTime": 0,
                "channel": 0,
                "type": "noteOn",
                "noteNumber": 77,
                "velocity": 96
            },
            {
                "deltaTime": 104,
                "channel": 0,
                "type": "noteOff",
                "noteNumber": 86,
                "velocity": 96
            },
            {
                "deltaTime": 0,
                "channel": 0,
                "type": "noteOff",
                "noteNumber": 77,
                "velocity": 96
            },
            {
                "deltaTime": 24,
                "channel": 0,
                "type": "noteOn",
                "noteNumber": 82,
                "velocity": 96
            },
            {
                "deltaTime": 0,
                "channel": 0,
                "type": "noteOn",
                "noteNumber": 74,
                "velocity": 96
            },
            {
                "deltaTime": 104,
                "channel": 0,
                "type": "noteOff",
                "noteNumber": 82,
                "velocity": 96
            },
            {
                "deltaTime": 0,
                "channel": 0,
                "type": "noteOff",
                "noteNumber": 74,
                "velocity": 96
            },
            {
                "deltaTime": 88,
                "channel": 0,
                "type": "noteOn",
                "noteNumber": 74,
                "velocity": 96
            },
            {
                "deltaTime": 64,
                "channel": 0,
                "type": "noteOn",
                "noteNumber": 72,
                "velocity": 96
            },
            {
                "deltaTime": 0,
                "channel": 0,
                "type": "noteOn",
                "noteNumber": 77,
                "velocity": 96
            },
            {
                "deltaTime": 40,
                "channel": 0,
                "type": "noteOff",
                "noteNumber": 74,
                "velocity": 96
            },
            {
                "deltaTime": 64,
                "channel": 0,
                "type": "noteOff",
                "noteNumber": 72,
                "velocity": 96
            },
            {
                "deltaTime": 0,
                "channel": 0,
                "type": "noteOff",
                "noteNumber": 77,
                "velocity": 96
            },
            {
                "deltaTime": 24,
                "channel": 0,
                "type": "noteOn",
                "noteNumber": 79,
                "velocity": 96
            },
            {
                "deltaTime": 0,
                "channel": 0,
                "type": "noteOn",
                "noteNumber": 74,
                "velocity": 96
            },
            {
                "deltaTime": 104,
                "channel": 0,
                "type": "noteOff",
                "noteNumber": 79,
                "velocity": 96
            },
            {
                "deltaTime": 0,
                "channel": 0,
                "type": "noteOff",
                "noteNumber": 74,
                "velocity": 96
            },
            {
                "deltaTime": 280,
                "channel": 0,
                "type": "noteOn",
                "noteNumber": 79,
                "velocity": 96
            },
            {
                "deltaTime": 0,
                "channel": 0,
                "type": "noteOn",
                "noteNumber": 75,
                "velocity": 96
            },
            {
                "deltaTime": 104,
                "channel": 0,
                "type": "noteOff",
                "noteNumber": 79,
                "velocity": 96
            },
            {
                "deltaTime": 0,
                "channel": 0,
                "type": "noteOff",
                "noteNumber": 75,
                "velocity": 96
            },
            {
                "deltaTime": 152,
                "channel": 0,
                "type": "noteOn",
                "noteNumber": 80,
                "velocity": 96
            },
            {
                "deltaTime": 0,
                "channel": 0,
                "type": "noteOn",
                "noteNumber": 77,
                "velocity": 96
            },
            {
                "deltaTime": 64,
                "channel": 0,
                "type": "noteOn",
                "noteNumber": 82,
                "velocity": 96
            },
            {
                "deltaTime": 0,
                "channel": 0,
                "type": "noteOn",
                "noteNumber": 79,
                "velocity": 96
            },
            {
                "deltaTime": 40,
                "channel": 0,
                "type": "noteOff",
                "noteNumber": 80,
                "velocity": 96
            },
            {
                "deltaTime": 0,
                "channel": 0,
                "type": "noteOff",
                "noteNumber": 77,
                "velocity": 96
            },
            {
                "deltaTime": 24,
                "channel": 0,
                "type": "noteOn",
                "noteNumber": 80,
                "velocity": 96
            },
            {
                "deltaTime": 0,
                "channel": 0,
                "type": "noteOn",
                "noteNumber": 77,
                "velocity": 96
            },
            {
                "deltaTime": 40,
                "channel": 0,
                "type": "noteOff",
                "noteNumber": 82,
                "velocity": 96
            },
            {
                "deltaTime": 0,
                "channel": 0,
                "type": "noteOff",
                "noteNumber": 79,
                "velocity": 96
            },
            {
                "deltaTime": 152,
                "channel": 0,
                "type": "noteOff",
                "noteNumber": 80,
                "velocity": 96
            },
            {
                "deltaTime": 0,
                "channel": 0,
                "type": "noteOff",
                "noteNumber": 77,
                "velocity": 96
            },
            {
                "deltaTime": 64,
                "channel": 0,
                "type": "noteOn",
                "noteNumber": 79,
                "velocity": 96
            },
            {
                "deltaTime": 0,
                "channel": 0,
                "type": "noteOn",
                "noteNumber": 75,
                "velocity": 96
            },
            {
                "deltaTime": 104,
                "channel": 0,
                "type": "noteOff",
                "noteNumber": 79,
                "velocity": 96
            },
            {
                "deltaTime": 0,
                "channel": 0,
                "type": "noteOff",
                "noteNumber": 75,
                "velocity": 96
            },
            {
                "deltaTime": 24,
                "channel": 0,
                "type": "noteOn",
                "noteNumber": 74,
                "velocity": 96
            },
            {
                "deltaTime": 0,
                "channel": 0,
                "type": "noteOn",
                "noteNumber": 77,
                "velocity": 96
            },
            {
                "deltaTime": 64,
                "channel": 0,
                "type": "noteOn",
                "noteNumber": 72,
                "velocity": 96
            },
            {
                "deltaTime": 64,
                "channel": 0,
                "type": "noteOff",
                "noteNumber": 74,
                "velocity": 96
            },
            {
                "deltaTime": 0,
                "channel": 0,
                "type": "noteOn",
                "noteNumber": 74,
                "velocity": 96
            },
            {
                "deltaTime": 64,
                "channel": 0,
                "type": "noteOff",
                "noteNumber": 77,
                "velocity": 96
            },
            {
                "deltaTime": 0,
                "channel": 0,
                "type": "noteOff",
                "noteNumber": 72,
                "velocity": 96
            },
            {
                "deltaTime": 0,
                "channel": 0,
                "type": "noteOn",
                "noteNumber": 75,
                "velocity": 96
            },
            {
                "deltaTime": 0,
                "channel": 0,
                "type": "noteOn",
                "noteNumber": 72,
                "velocity": 96
            },
            {
                "deltaTime": 64,
                "channel": 0,
                "type": "noteOff",
                "noteNumber": 74,
                "velocity": 96
            },
            {
                "deltaTime": 0,
                "channel": 0,
                "type": "noteOn",
                "noteNumber": 70,
                "velocity": 96
            },
            {
                "deltaTime": 0,
                "channel": 0,
                "type": "noteOn",
                "noteNumber": 74,
                "velocity": 96
            },
            {
                "deltaTime": 64,
                "channel": 0,
                "type": "noteOff",
                "noteNumber": 72,
                "velocity": 96
            },
            {
                "deltaTime": 0,
                "channel": 0,
                "type": "noteOff",
                "noteNumber": 75,
                "velocity": 96
            },
            {
                "deltaTime": 0,
                "channel": 0,
                "type": "noteOn",
                "noteNumber": 75,
                "velocity": 96
            },
            {
                "deltaTime": 53,
                "channel": 0,
                "type": "noteOn",
                "noteNumber": 70,
                "velocity": 96
            },
            {
                "deltaTime": 11,
                "channel": 0,
                "type": "noteOff",
                "noteNumber": 74,
                "velocity": 96
            },
            {
                "deltaTime": 0,
                "channel": 0,
                "type": "noteOff",
                "noteNumber": 70,
                "velocity": 96
            },
            {
                "deltaTime": 21,
                "channel": 0,
                "type": "noteOn",
                "noteNumber": 74,
                "velocity": 96
            },
            {
                "deltaTime": 11,
                "channel": 0,
                "type": "noteOn",
                "noteNumber": 79,
                "velocity": 96
            },
            {
                "deltaTime": 32,
                "channel": 0,
                "type": "noteOff",
                "noteNumber": 75,
                "velocity": 96
            },
            {
                "deltaTime": 253,
                "channel": 0,
                "type": "noteOff",
                "noteNumber": 70,
                "velocity": 96
            },
            {
                "deltaTime": 0,
                "channel": 0,
                "type": "noteOff",
                "noteNumber": 74,
                "velocity": 96
            },
            {
                "deltaTime": 3,
                "channel": 0,
                "type": "noteOff",
                "noteNumber": 79,
                "velocity": 96
            },
            {
                "deltaTime": 64,
                "channel": 0,
                "type": "noteOn",
                "noteNumber": 72,
                "velocity": 96
            },
            {
                "deltaTime": 192,
                "channel": 0,
                "type": "noteOff",
                "noteNumber": 72,
                "velocity": 96
            },
            {
                "deltaTime": 64,
                "channel": 0,
                "type": "noteOn",
                "noteNumber": 75,
                "velocity": 96
            },
            {
                "deltaTime": 0,
                "channel": 0,
                "type": "noteOn",
                "noteNumber": 67,
                "velocity": 96
            },
            {
                "deltaTime": 64,
                "channel": 0,
                "type": "noteOn",
                "noteNumber": 79,
                "velocity": 96
            },
            {
                "deltaTime": 40,
                "channel": 0,
                "type": "noteOff",
                "noteNumber": 75,
                "velocity": 96
            },
            {
                "deltaTime": 0,
                "channel": 0,
                "type": "noteOff",
                "noteNumber": 67,
                "velocity": 96
            },
            {
                "deltaTime": 24,
                "channel": 0,
                "type": "noteOn",
                "noteNumber": 79,
                "velocity": 96
            },
            {
                "deltaTime": 10,
                "channel": 0,
                "type": "noteOn",
                "noteNumber": 87,
                "velocity": 96
            },
            {
                "deltaTime": 30,
                "channel": 0,
                "type": "noteOff",
                "noteNumber": 79,
                "velocity": 96
            },
            {
                "deltaTime": 64,
                "channel": 0,
                "type": "noteOff",
                "noteNumber": 79,
                "velocity": 96
            },
            {
                "deltaTime": 13,
                "channel": 0,
                "type": "noteOff",
                "noteNumber": 87,
                "velocity": 96
            },
            {
                "deltaTime": 139,
                "channel": 0,
                "type": "noteOn",
                "noteNumber": 86,
                "velocity": 96
            },
            {
                "deltaTime": 0,
                "channel": 0,
                "type": "noteOn",
                "noteNumber": 77,
                "velocity": 96
            },
            {
                "deltaTime": 106,
                "channel": 0,
                "type": "noteOff",
                "noteNumber": 86,
                "velocity": 96
            },
            {
                "deltaTime": 0,
                "channel": 0,
                "type": "noteOff",
                "noteNumber": 77,
                "velocity": 96
            },
            {
                "deltaTime": 22,
                "channel": 0,
                "type": "noteOn",
                "noteNumber": 82,
                "velocity": 96
            },
            {
                "deltaTime": 0,
                "channel": 0,
                "type": "noteOn",
                "noteNumber": 74,
                "velocity": 96
            },
            {
                "deltaTime": 106,
                "channel": 0,
                "type": "noteOff",
                "noteNumber": 82,
                "velocity": 96
            },
            {
                "deltaTime": 0,
                "channel": 0,
                "type": "noteOff",
                "noteNumber": 74,
                "velocity": 96
            },
            {
                "deltaTime": 86,
                "channel": 0,
                "type": "noteOn",
                "noteNumber": 72,
                "velocity": 96
            },
            {
                "deltaTime": 64,
                "channel": 0,
                "type": "noteOn",
                "noteNumber": 70,
                "velocity": 96
            },
            {
                "deltaTime": 0,
                "channel": 0,
                "type": "noteOn",
                "noteNumber": 77,
                "velocity": 96
            },
            {
                "deltaTime": 42,
                "channel": 0,
                "type": "noteOff",
                "noteNumber": 72,
                "velocity": 96
            },
            {
                "deltaTime": 22,
                "channel": 0,
                "type": "noteOn",
                "noteNumber": 68,
                "velocity": 96
            },
            {
                "deltaTime": 42,
                "channel": 0,
                "type": "noteOff",
                "noteNumber": 70,
                "velocity": 96
            },
            {
                "deltaTime": 0,
                "channel": 0,
                "type": "noteOff",
                "noteNumber": 77,
                "velocity": 96
            },
            {
                "deltaTime": 22,
                "channel": 0,
                "type": "noteOn",
                "noteNumber": 79,
                "velocity": 96
            },
            {
                "deltaTime": 0,
                "channel": 0,
                "type": "noteOn",
                "noteNumber": 70,
                "velocity": 96
            },
            {
                "deltaTime": 42,
                "channel": 0,
                "type": "noteOff",
                "noteNumber": 68,
                "velocity": 96
            },
            {
                "deltaTime": 342,
                "channel": 0,
                "type": "noteOn",
                "noteNumber": 79,
                "velocity": 96
            },
            {
                "deltaTime": 0,
                "channel": 0,
                "type": "noteOn",
                "noteNumber": 75,
                "velocity": 96
            },
            {
                "deltaTime": 18,
                "channel": 0,
                "type": "noteOff",
                "noteNumber": 79,
                "velocity": 96
            },
            {
                "deltaTime": 0,
                "channel": 0,
                "type": "noteOff",
                "noteNumber": 70,
                "velocity": 96
            },
            {
                "deltaTime": 88,
                "channel": 0,
                "type": "noteOff",
                "noteNumber": 75,
                "velocity": 96
            },
            {
                "deltaTime": 0,
                "channel": 0,
                "type": "noteOff",
                "noteNumber": 79,
                "velocity": 96
            },
            {
                "deltaTime": 22,
                "channel": 0,
                "type": "noteOn",
                "noteNumber": 80,
                "velocity": 96
            },
            {
                "deltaTime": 0,
                "channel": 0,
                "type": "noteOn",
                "noteNumber": 77,
                "velocity": 96
            },
            {
                "deltaTime": 192,
                "channel": 0,
                "type": "noteOff",
                "noteNumber": 80,
                "velocity": 96
            },
            {
                "deltaTime": 0,
                "channel": 0,
                "type": "noteOff",
                "noteNumber": 77,
                "velocity": 96
            },
            {
                "deltaTime": 0,
                "channel": 0,
                "type": "noteOn",
                "noteNumber": 82,
                "velocity": 96
            },
            {
                "deltaTime": 0,
                "channel": 0,
                "type": "noteOn",
                "noteNumber": 79,
                "velocity": 96
            },
            {
                "deltaTime": 64,
                "channel": 0,
                "type": "noteOn",
                "noteNumber": 77,
                "velocity": 96
            },
            {
                "deltaTime": 0,
                "channel": 0,
                "type": "noteOn",
                "noteNumber": 80,
                "velocity": 96
            },
            {
                "deltaTime": 42,
                "channel": 0,
                "type": "noteOff",
                "noteNumber": 82,
                "velocity": 96
            },
            {
                "deltaTime": 0,
                "channel": 0,
                "type": "noteOff",
                "noteNumber": 79,
                "velocity": 96
            },
            {
                "deltaTime": 214,
                "channel": 0,
                "type": "noteOn",
                "noteNumber": 79,
                "velocity": 96
            },
            {
                "deltaTime": 0,
                "channel": 0,
                "type": "noteOn",
                "noteNumber": 75,
                "velocity": 96
            },
            {
                "deltaTime": 18,
                "channel": 0,
                "type": "noteOff",
                "noteNumber": 80,
                "velocity": 96
            },
            {
                "deltaTime": 0,
                "channel": 0,
                "type": "noteOff",
                "noteNumber": 77,
                "velocity": 96
            },
            {
                "deltaTime": 88,
                "channel": 0,
                "type": "noteOff",
                "noteNumber": 79,
                "velocity": 96
            },
            {
                "deltaTime": 0,
                "channel": 0,
                "type": "noteOff",
                "noteNumber": 75,
                "velocity": 96
            },
            {
                "deltaTime": 22,
                "channel": 0,
                "type": "noteOn",
                "noteNumber": 77,
                "velocity": 96
            },
            {
                "deltaTime": 0,
                "channel": 0,
                "type": "noteOn",
                "noteNumber": 74,
                "velocity": 96
            },
            {
                "deltaTime": 192,
                "channel": 0,
                "type": "noteOn",
                "noteNumber": 72,
                "velocity": 96
            },
            {
                "deltaTime": 0,
                "channel": 0,
                "type": "noteOn",
                "noteNumber": 75,
                "velocity": 96
            },
            {
                "deltaTime": 42,
                "channel": 0,
                "type": "noteOff",
                "noteNumber": 74,
                "velocity": 96
            },
            {
                "deltaTime": 0,
                "channel": 0,
                "type": "noteOff",
                "noteNumber": 77,
                "velocity": 96
            },
            {
                "deltaTime": 22,
                "channel": 0,
                "type": "noteOn",
                "noteNumber": 77,
                "velocity": 96
            },
            {
                "deltaTime": 0,
                "channel": 0,
                "type": "noteOn",
                "noteNumber": 74,
                "velocity": 96
            },
            {
                "deltaTime": 42,
                "channel": 0,
                "type": "noteOff",
                "noteNumber": 75,
                "velocity": 96
            },
            {
                "deltaTime": 0,
                "channel": 0,
                "type": "noteOff",
                "noteNumber": 72,
                "velocity": 96
            },
            {
                "deltaTime": 64,
                "channel": 0,
                "type": "noteOff",
                "noteNumber": 77,
                "velocity": 96
            },
            {
                "deltaTime": 0,
                "channel": 0,
                "type": "noteOff",
                "noteNumber": 74,
                "velocity": 96
            },
            {
                "deltaTime": 22,
                "channel": 0,
                "type": "noteOn",
                "noteNumber": 74,
                "velocity": 96
            },
            {
                "deltaTime": 0,
                "channel": 0,
                "type": "noteOn",
                "noteNumber": 79,
                "velocity": 96
            },
            {
                "deltaTime": 448,
                "channel": 0,
                "type": "noteOff",
                "noteNumber": 79,
                "velocity": 96
            },
            {
                "deltaTime": 0,
                "channel": 0,
                "type": "noteOff",
                "noteNumber": 74,
                "velocity": 96
            },
            {
                "deltaTime": 64,
                "channel": 0,
                "type": "noteOn",
                "noteNumber": 86,
                "velocity": 96
            },
            {
                "deltaTime": 64,
                "channel": 0,
                "type": "noteOn",
                "noteNumber": 87,
                "velocity": 96
            },
            {
                "deltaTime": 64,
                "channel": 0,
                "type": "noteOff",
                "noteNumber": 86,
                "velocity": 96
            },
            {
                "deltaTime": 0,
                "channel": 0,
                "type": "noteOn",
                "noteNumber": 86,
                "velocity": 96
            },
            {
                "deltaTime": 64,
                "channel": 0,
                "type": "noteOff",
                "noteNumber": 87,
                "velocity": 96
            },
            {
                "deltaTime": 0,
                "channel": 0,
                "type": "noteOn",
                "noteNumber": 84,
                "velocity": 96
            },
            {
                "deltaTime": 64,
                "channel": 0,
                "type": "noteOff",
                "noteNumber": 86,
                "velocity": 96
            },
            {
                "deltaTime": 0,
                "channel": 0,
                "type": "noteOn",
                "noteNumber": 79,
                "velocity": 96
            },
            {
                "deltaTime": 64,
                "channel": 0,
                "type": "noteOff",
                "noteNumber": 84,
                "velocity": 96
            },
            {
                "deltaTime": 64,
                "channel": 0,
                "type": "noteOn",
                "noteNumber": 75,
                "velocity": 96
            },
            {
                "deltaTime": 64,
                "channel": 0,
                "type": "noteOff",
                "noteNumber": 79,
                "velocity": 96
            },
            {
                "deltaTime": 64,
                "channel": 0,
                "type": "noteOn",
                "noteNumber": 79,
                "velocity": 96
            },
            {
                "deltaTime": 64,
                "channel": 0,
                "type": "noteOff",
                "noteNumber": 75,
                "velocity": 96
            },
            {
                "deltaTime": 82,
                "channel": 0,
                "type": "noteOff",
                "noteNumber": 79,
                "velocity": 96
            },
            {
                "deltaTime": 110,
                "channel": 0,
                "type": "noteOn",
                "noteNumber": 86,
                "velocity": 96
            },
            {
                "deltaTime": 64,
                "channel": 0,
                "type": "noteOn",
                "noteNumber": 87,
                "velocity": 96
            },
            {
                "deltaTime": 64,
                "channel": 0,
                "type": "noteOff",
                "noteNumber": 86,
                "velocity": 96
            },
            {
                "deltaTime": 0,
                "channel": 0,
                "type": "noteOn",
                "noteNumber": 86,
                "velocity": 96
            },
            {
                "deltaTime": 64,
                "channel": 0,
                "type": "noteOff",
                "noteNumber": 87,
                "velocity": 96
            },
            {
                "deltaTime": 0,
                "channel": 0,
                "type": "noteOn",
                "noteNumber": 84,
                "velocity": 96
            },
            {
                "deltaTime": 64,
                "channel": 0,
                "type": "noteOff",
                "noteNumber": 86,
                "velocity": 96
            },
            {
                "deltaTime": 0,
                "channel": 0,
                "type": "noteOn",
                "noteNumber": 89,
                "velocity": 96
            },
            {
                "deltaTime": 64,
                "channel": 0,
                "type": "noteOff",
                "noteNumber": 84,
                "velocity": 96
            },
            {
                "deltaTime": 338,
                "channel": 0,
                "type": "noteOff",
                "noteNumber": 89,
                "velocity": 96
            },
            {
                "deltaTime": 110,
                "channel": 0,
                "type": "noteOn",
                "noteNumber": 86,
                "velocity": 96
            },
            {
                "deltaTime": 64,
                "channel": 0,
                "type": "noteOn",
                "noteNumber": 87,
                "velocity": 96
            },
            {
                "deltaTime": 64,
                "channel": 0,
                "type": "noteOff",
                "noteNumber": 86,
                "velocity": 96
            },
            {
                "deltaTime": 0,
                "channel": 0,
                "type": "noteOn",
                "noteNumber": 86,
                "velocity": 96
            },
            {
                "deltaTime": 64,
                "channel": 0,
                "type": "noteOff",
                "noteNumber": 87,
                "velocity": 96
            },
            {
                "deltaTime": 0,
                "channel": 0,
                "type": "noteOn",
                "noteNumber": 84,
                "velocity": 96
            },
            {
                "deltaTime": 64,
                "channel": 0,
                "type": "noteOff",
                "noteNumber": 86,
                "velocity": 96
            },
            {
                "deltaTime": 0,
                "channel": 0,
                "type": "noteOn",
                "noteNumber": 86,
                "velocity": 96
            },
            {
                "deltaTime": 64,
                "channel": 0,
                "type": "noteOff",
                "noteNumber": 84,
                "velocity": 96
            },
            {
                "deltaTime": 192,
                "channel": 0,
                "type": "noteOn",
                "noteNumber": 87,
                "velocity": 96
            },
            {
                "deltaTime": 18,
                "channel": 0,
                "type": "noteOff",
                "noteNumber": 86,
                "velocity": 96
            },
            {
                "deltaTime": 88,
                "channel": 0,
                "type": "noteOff",
                "noteNumber": 87,
                "velocity": 96
            },
            {
                "deltaTime": 22,
                "channel": 0,
                "type": "noteOn",
                "noteNumber": 82,
                "velocity": 96
            },
            {
                "deltaTime": 106,
                "channel": 0,
                "type": "noteOff",
                "noteNumber": 82,
                "velocity": 96
            },
            {
                "deltaTime": 11,
                "channel": 0,
                "type": "noteOn",
                "noteNumber": 81,
                "velocity": 96
            },
            {
                "deltaTime": 11,
                "channel": 0,
                "type": "noteOn",
                "noteNumber": 82,
                "velocity": 96
            },
            {
                "deltaTime": 64,
                "channel": 0,
                "type": "noteOff",
                "noteNumber": 81,
                "velocity": 96
            },
            {
                "deltaTime": 0,
                "channel": 0,
                "type": "noteOn",
                "noteNumber": 80,
                "velocity": 96
            },
            {
                "deltaTime": 64,
                "channel": 0,
                "type": "noteOff",
                "noteNumber": 82,
                "velocity": 96
            },
            {
                "deltaTime": 0,
                "channel": 0,
                "type": "noteOn",
                "noteNumber": 79,
                "velocity": 96
            },
            {
                "deltaTime": 64,
                "channel": 0,
                "type": "noteOff",
                "noteNumber": 80,
                "velocity": 96
            },
            {
                "deltaTime": 0,
                "channel": 0,
                "type": "noteOn",
                "noteNumber": 80,
                "velocity": 96
            },
            {
                "deltaTime": 64,
                "channel": 0,
                "type": "noteOff",
                "noteNumber": 79,
                "velocity": 96
            },
            {
                "deltaTime": 0,
                "channel": 0,
                "type": "noteOn",
                "noteNumber": 79,
                "velocity": 96
            },
            {
                "deltaTime": 21,
                "channel": 0,
                "type": "noteOn",
                "noteNumber": 80,
                "velocity": 96
            },
            {
                "deltaTime": 21,
                "channel": 0,
                "type": "noteOn",
                "noteNumber": 79,
                "velocity": 96
            },
            {
                "deltaTime": 22,
                "channel": 0,
                "type": "noteOff",
                "noteNumber": 80,
                "velocity": 96
            },
            {
                "deltaTime": 18,
                "channel": 0,
                "type": "noteOff",
                "noteNumber": 79,
                "velocity": 96
            },
            {
                "deltaTime": 24,
                "channel": 0,
                "type": "noteOff",
                "noteNumber": 80,
                "velocity": 96
            },
            {
                "deltaTime": 296,
                "channel": 0,
                "type": "noteOff",
                "noteNumber": 79,
                "velocity": 96
            },
            {
                "deltaTime": 110,
                "channel": 0,
                "type": "noteOn",
                "noteNumber": 79,
                "velocity": 96
            },
            {
                "deltaTime": 64,
                "channel": 0,
                "type": "noteOn",
                "noteNumber": 80,
                "velocity": 96
            },
            {
                "deltaTime": 64,
                "channel": 0,
                "type": "noteOff",
                "noteNumber": 79,
                "velocity": 96
            },
            {
                "deltaTime": 0,
                "channel": 0,
                "type": "noteOn",
                "noteNumber": 79,
                "velocity": 96
            },
            {
                "deltaTime": 64,
                "channel": 0,
                "type": "noteOff",
                "noteNumber": 80,
                "velocity": 96
            },
            {
                "deltaTime": 0,
                "channel": 0,
                "type": "noteOn",
                "noteNumber": 77,
                "velocity": 96
            },
            {
                "deltaTime": 64,
                "channel": 0,
                "type": "noteOff",
                "noteNumber": 79,
                "velocity": 96
            },
            {
                "deltaTime": 0,
                "channel": 0,
                "type": "noteOn",
                "noteNumber": 74,
                "velocity": 96
            },
            {
                "deltaTime": 64,
                "channel": 0,
                "type": "noteOff",
                "noteNumber": 77,
                "velocity": 96
            },
            {
                "deltaTime": 64,
                "channel": 0,
                "type": "noteOn",
                "noteNumber": 70,
                "velocity": 96
            },
            {
                "deltaTime": 64,
                "channel": 0,
                "type": "noteOff",
                "noteNumber": 74,
                "velocity": 96
            },
            {
                "deltaTime": 64,
                "channel": 0,
                "type": "noteOn",
                "noteNumber": 80,
                "velocity": 96
            },
            {
                "deltaTime": 18,
                "channel": 0,
                "type": "noteOff",
                "noteNumber": 70,
                "velocity": 96
            },
            {
                "deltaTime": 88,
                "channel": 0,
                "type": "noteOff",
                "noteNumber": 80,
                "velocity": 96
            },
            {
                "deltaTime": 22,
                "channel": 0,
                "type": "noteOn",
                "noteNumber": 79,
                "velocity": 96
            },
            {
                "deltaTime": 128,
                "channel": 0,
                "type": "noteOn",
                "noteNumber": 79,
                "velocity": 96
            },
            {
                "deltaTime": 18,
                "channel": 0,
                "type": "noteOff",
                "noteNumber": 79,
                "velocity": 96
            },
            {
                "deltaTime": 46,
                "channel": 0,
                "type": "noteOn",
                "noteNumber": 77,
                "velocity": 96
            },
            {
                "deltaTime": 64,
                "channel": 0,
                "type": "noteOff",
                "noteNumber": 79,
                "velocity": 96
            },
            {
                "deltaTime": 0,
                "channel": 0,
                "type": "noteOn",
                "noteNumber": 75,
                "velocity": 96
            },
            {
                "deltaTime": 64,
                "channel": 0,
                "type": "noteOff",
                "noteNumber": 77,
                "velocity": 96
            },
            {
                "deltaTime": 0,
                "channel": 0,
                "type": "noteOn",
                "noteNumber": 77,
                "velocity": 96
            },
            {
                "deltaTime": 64,
                "channel": 0,
                "type": "noteOff",
                "noteNumber": 75,
                "velocity": 96
            },
            {
                "deltaTime": 0,
                "channel": 0,
                "type": "noteOn",
                "noteNumber": 79,
                "velocity": 96
            },
            {
                "deltaTime": 64,
                "channel": 0,
                "type": "noteOff",
                "noteNumber": 77,
                "velocity": 96
            },
            {
                "deltaTime": 82,
                "channel": 0,
                "type": "noteOff",
                "noteNumber": 79,
                "velocity": 96
            },
            {
                "deltaTime": 110,
                "channel": 0,
                "type": "noteOn",
                "noteNumber": 75,
                "velocity": 96
            },
            {
                "deltaTime": 106,
                "channel": 0,
                "type": "noteOff",
                "noteNumber": 75,
                "velocity": 96
            },
            {
                "deltaTime": 22,
                "channel": 0,
                "type": "noteOn",
                "noteNumber": 78,
                "velocity": 96
            },
            {
                "deltaTime": 128,
                "channel": 0,
                "type": "noteOn",
                "noteNumber": 74,
                "velocity": 96
            },
            {
                "deltaTime": 64,
                "channel": 0,
                "type": "noteOff",
                "noteNumber": 78,
                "velocity": 96
            },
            {
                "deltaTime": 64,
                "channel": 0,
                "type": "noteOn",
                "noteNumber": 72,
                "velocity": 96
            },
            {
                "deltaTime": 64,
                "channel": 0,
                "type": "noteOff",
                "noteNumber": 74,
                "velocity": 96
            },
            {
                "deltaTime": 128,
                "channel": 0,
                "type": "noteOff",
                "noteNumber": 72,
                "velocity": 96
            },
            {
                "deltaTime": 192,
                "channel": 0,
                "type": "noteOn",
                "noteNumber": 78,
                "velocity": 96
            },
            {
                "deltaTime": 128,
                "channel": 0,
                "type": "noteOn",
                "noteNumber": 79,
                "velocity": 96
            },
            {
                "deltaTime": 64,
                "channel": 0,
                "type": "noteOff",
                "noteNumber": 78,
                "velocity": 96
            },
            {
                "deltaTime": 256,
                "channel": 0,
                "type": "noteOff",
                "noteNumber": 79,
                "velocity": 96
            },
            {
                "deltaTime": 576,
                "channel": 0,
                "type": "noteOn",
                "noteNumber": 86,
                "velocity": 96
            },
            {
                "deltaTime": 64,
                "channel": 0,
                "type": "noteOn",
                "noteNumber": 87,
                "velocity": 96
            },
            {
                "deltaTime": 64,
                "channel": 0,
                "type": "noteOff",
                "noteNumber": 86,
                "velocity": 96
            },
            {
                "deltaTime": 0,
                "channel": 0,
                "type": "noteOn",
                "noteNumber": 86,
                "velocity": 96
            },
            {
                "deltaTime": 64,
                "channel": 0,
                "type": "noteOff",
                "noteNumber": 87,
                "velocity": 96
            },
            {
                "deltaTime": 0,
                "channel": 0,
                "type": "noteOn",
                "noteNumber": 84,
                "velocity": 96
            },
            {
                "deltaTime": 64,
                "channel": 0,
                "type": "noteOff",
                "noteNumber": 86,
                "velocity": 96
            },
            {
                "deltaTime": 0,
                "channel": 0,
                "type": "noteOn",
                "noteNumber": 79,
                "velocity": 96
            },
            {
                "deltaTime": 64,
                "channel": 0,
                "type": "noteOff",
                "noteNumber": 84,
                "velocity": 96
            },
            {
                "deltaTime": 64,
                "channel": 0,
                "type": "noteOn",
                "noteNumber": 75,
                "velocity": 96
            },
            {
                "deltaTime": 64,
                "channel": 0,
                "type": "noteOff",
                "noteNumber": 79,
                "velocity": 96
            },
            {
                "deltaTime": 64,
                "channel": 0,
                "type": "noteOn",
                "noteNumber": 79,
                "velocity": 96
            },
            {
                "deltaTime": 64,
                "channel": 0,
                "type": "noteOff",
                "noteNumber": 75,
                "velocity": 96
            },
            {
                "deltaTime": 82,
                "channel": 0,
                "type": "noteOff",
                "noteNumber": 79,
                "velocity": 96
            },
            {
                "deltaTime": 110,
                "channel": 0,
                "type": "noteOn",
                "noteNumber": 86,
                "velocity": 96
            },
            {
                "deltaTime": 64,
                "channel": 0,
                "type": "noteOn",
                "noteNumber": 87,
                "velocity": 96
            },
            {
                "deltaTime": 64,
                "channel": 0,
                "type": "noteOff",
                "noteNumber": 86,
                "velocity": 96
            },
            {
                "deltaTime": 0,
                "channel": 0,
                "type": "noteOn",
                "noteNumber": 86,
                "velocity": 96
            },
            {
                "deltaTime": 64,
                "channel": 0,
                "type": "noteOff",
                "noteNumber": 87,
                "velocity": 96
            },
            {
                "deltaTime": 0,
                "channel": 0,
                "type": "noteOn",
                "noteNumber": 84,
                "velocity": 96
            },
            {
                "deltaTime": 64,
                "channel": 0,
                "type": "noteOff",
                "noteNumber": 86,
                "velocity": 96
            },
            {
                "deltaTime": 0,
                "channel": 0,
                "type": "noteOn",
                "noteNumber": 89,
                "velocity": 96
            },
            {
                "deltaTime": 64,
                "channel": 0,
                "type": "noteOff",
                "noteNumber": 84,
                "velocity": 96
            },
            {
                "deltaTime": 338,
                "channel": 0,
                "type": "noteOff",
                "noteNumber": 89,
                "velocity": 96
            },
            {
                "deltaTime": 110,
                "channel": 0,
                "type": "noteOn",
                "noteNumber": 86,
                "velocity": 96
            },
            {
                "deltaTime": 64,
                "channel": 0,
                "type": "noteOn",
                "noteNumber": 87,
                "velocity": 96
            },
            {
                "deltaTime": 64,
                "channel": 0,
                "type": "noteOff",
                "noteNumber": 86,
                "velocity": 96
            },
            {
                "deltaTime": 0,
                "channel": 0,
                "type": "noteOn",
                "noteNumber": 86,
                "velocity": 96
            },
            {
                "deltaTime": 64,
                "channel": 0,
                "type": "noteOff",
                "noteNumber": 87,
                "velocity": 96
            },
            {
                "deltaTime": 0,
                "channel": 0,
                "type": "noteOn",
                "noteNumber": 84,
                "velocity": 96
            },
            {
                "deltaTime": 64,
                "channel": 0,
                "type": "noteOff",
                "noteNumber": 86,
                "velocity": 96
            },
            {
                "deltaTime": 0,
                "channel": 0,
                "type": "noteOn",
                "noteNumber": 86,
                "velocity": 96
            },
            {
                "deltaTime": 64,
                "channel": 0,
                "type": "noteOff",
                "noteNumber": 84,
                "velocity": 96
            },
            {
                "deltaTime": 192,
                "channel": 0,
                "type": "noteOn",
                "noteNumber": 87,
                "velocity": 96
            },
            {
                "deltaTime": 18,
                "channel": 0,
                "type": "noteOff",
                "noteNumber": 86,
                "velocity": 96
            },
            {
                "deltaTime": 88,
                "channel": 0,
                "type": "noteOff",
                "noteNumber": 87,
                "velocity": 96
            },
            {
                "deltaTime": 22,
                "channel": 0,
                "type": "noteOn",
                "noteNumber": 82,
                "velocity": 96
            },
            {
                "deltaTime": 106,
                "channel": 0,
                "type": "noteOff",
                "noteNumber": 82,
                "velocity": 96
            },
            {
                "deltaTime": 11,
                "channel": 0,
                "type": "noteOn",
                "noteNumber": 81,
                "velocity": 96
            },
            {
                "deltaTime": 11,
                "channel": 0,
                "type": "noteOn",
                "noteNumber": 82,
                "velocity": 96
            },
            {
                "deltaTime": 64,
                "channel": 0,
                "type": "noteOff",
                "noteNumber": 81,
                "velocity": 96
            },
            {
                "deltaTime": 0,
                "channel": 0,
                "type": "noteOn",
                "noteNumber": 80,
                "velocity": 96
            },
            {
                "deltaTime": 64,
                "channel": 0,
                "type": "noteOff",
                "noteNumber": 82,
                "velocity": 96
            },
            {
                "deltaTime": 0,
                "channel": 0,
                "type": "noteOn",
                "noteNumber": 79,
                "velocity": 96
            },
            {
                "deltaTime": 64,
                "channel": 0,
                "type": "noteOff",
                "noteNumber": 80,
                "velocity": 96
            },
            {
                "deltaTime": 0,
                "channel": 0,
                "type": "noteOn",
                "noteNumber": 80,
                "velocity": 96
            },
            {
                "deltaTime": 64,
                "channel": 0,
                "type": "noteOff",
                "noteNumber": 79,
                "velocity": 96
            },
            {
                "deltaTime": 0,
                "channel": 0,
                "type": "noteOn",
                "noteNumber": 79,
                "velocity": 96
            },
            {
                "deltaTime": 21,
                "channel": 0,
                "type": "noteOn",
                "noteNumber": 80,
                "velocity": 96
            },
            {
                "deltaTime": 21,
                "channel": 0,
                "type": "noteOn",
                "noteNumber": 79,
                "velocity": 96
            },
            {
                "deltaTime": 22,
                "channel": 0,
                "type": "noteOff",
                "noteNumber": 80,
                "velocity": 96
            },
            {
                "deltaTime": 18,
                "channel": 0,
                "type": "noteOff",
                "noteNumber": 79,
                "velocity": 96
            },
            {
                "deltaTime": 24,
                "channel": 0,
                "type": "noteOff",
                "noteNumber": 80,
                "velocity": 96
            },
            {
                "deltaTime": 296,
                "channel": 0,
                "type": "noteOff",
                "noteNumber": 79,
                "velocity": 96
            },
            {
                "deltaTime": 110,
                "channel": 0,
                "type": "noteOn",
                "noteNumber": 79,
                "velocity": 96
            },
            {
                "deltaTime": 64,
                "channel": 0,
                "type": "noteOn",
                "noteNumber": 80,
                "velocity": 96
            },
            {
                "deltaTime": 64,
                "channel": 0,
                "type": "noteOff",
                "noteNumber": 79,
                "velocity": 96
            },
            {
                "deltaTime": 0,
                "channel": 0,
                "type": "noteOn",
                "noteNumber": 79,
                "velocity": 96
            },
            {
                "deltaTime": 64,
                "channel": 0,
                "type": "noteOff",
                "noteNumber": 80,
                "velocity": 96
            },
            {
                "deltaTime": 0,
                "channel": 0,
                "type": "noteOn",
                "noteNumber": 77,
                "velocity": 96
            },
            {
                "deltaTime": 64,
                "channel": 0,
                "type": "noteOff",
                "noteNumber": 79,
                "velocity": 96
            },
            {
                "deltaTime": 0,
                "channel": 0,
                "type": "noteOn",
                "noteNumber": 74,
                "velocity": 96
            },
            {
                "deltaTime": 64,
                "channel": 0,
                "type": "noteOff",
                "noteNumber": 77,
                "velocity": 96
            },
            {
                "deltaTime": 64,
                "channel": 0,
                "type": "noteOn",
                "noteNumber": 70,
                "velocity": 96
            },
            {
                "deltaTime": 64,
                "channel": 0,
                "type": "noteOff",
                "noteNumber": 74,
                "velocity": 96
            },
            {
                "deltaTime": 64,
                "channel": 0,
                "type": "noteOn",
                "noteNumber": 80,
                "velocity": 96
            },
            {
                "deltaTime": 18,
                "channel": 0,
                "type": "noteOff",
                "noteNumber": 70,
                "velocity": 96
            },
            {
                "deltaTime": 88,
                "channel": 0,
                "type": "noteOff",
                "noteNumber": 80,
                "velocity": 96
            },
            {
                "deltaTime": 22,
                "channel": 0,
                "type": "noteOn",
                "noteNumber": 79,
                "velocity": 96
            },
            {
                "deltaTime": 128,
                "channel": 0,
                "type": "noteOn",
                "noteNumber": 79,
                "velocity": 96
            },
            {
                "deltaTime": 18,
                "channel": 0,
                "type": "noteOff",
                "noteNumber": 79,
                "velocity": 96
            },
            {
                "deltaTime": 46,
                "channel": 0,
                "type": "noteOn",
                "noteNumber": 77,
                "velocity": 96
            },
            {
                "deltaTime": 64,
                "channel": 0,
                "type": "noteOff",
                "noteNumber": 79,
                "velocity": 96
            },
            {
                "deltaTime": 0,
                "channel": 0,
                "type": "noteOn",
                "noteNumber": 75,
                "velocity": 96
            },
            {
                "deltaTime": 64,
                "channel": 0,
                "type": "noteOff",
                "noteNumber": 77,
                "velocity": 96
            },
            {
                "deltaTime": 0,
                "channel": 0,
                "type": "noteOn",
                "noteNumber": 77,
                "velocity": 96
            },
            {
                "deltaTime": 64,
                "channel": 0,
                "type": "noteOff",
                "noteNumber": 75,
                "velocity": 96
            },
            {
                "deltaTime": 0,
                "channel": 0,
                "type": "noteOn",
                "noteNumber": 79,
                "velocity": 96
            },
            {
                "deltaTime": 64,
                "channel": 0,
                "type": "noteOff",
                "noteNumber": 77,
                "velocity": 96
            },
            {
                "deltaTime": 82,
                "channel": 0,
                "type": "noteOff",
                "noteNumber": 79,
                "velocity": 96
            },
            {
                "deltaTime": 110,
                "channel": 0,
                "type": "noteOn",
                "noteNumber": 75,
                "velocity": 96
            },
            {
                "deltaTime": 106,
                "channel": 0,
                "type": "noteOff",
                "noteNumber": 75,
                "velocity": 96
            },
            {
                "deltaTime": 22,
                "channel": 0,
                "type": "noteOn",
                "noteNumber": 78,
                "velocity": 96
            },
            {
                "deltaTime": 128,
                "channel": 0,
                "type": "noteOn",
                "noteNumber": 74,
                "velocity": 96
            },
            {
                "deltaTime": 64,
                "channel": 0,
                "type": "noteOff",
                "noteNumber": 78,
                "velocity": 96
            },
            {
                "deltaTime": 64,
                "channel": 0,
                "type": "noteOn",
                "noteNumber": 72,
                "velocity": 96
            },
            {
                "deltaTime": 64,
                "channel": 0,
                "type": "noteOff",
                "noteNumber": 74,
                "velocity": 96
            },
            {
                "deltaTime": 128,
                "channel": 0,
                "type": "noteOff",
                "noteNumber": 72,
                "velocity": 96
            },
            {
                "deltaTime": 192,
                "channel": 0,
                "type": "noteOn",
                "noteNumber": 78,
                "velocity": 96
            },
            {
                "deltaTime": 128,
                "channel": 0,
                "type": "noteOn",
                "noteNumber": 79,
                "velocity": 96
            },
            {
                "deltaTime": 64,
                "channel": 0,
                "type": "noteOff",
                "noteNumber": 78,
                "velocity": 96
            },
            {
                "deltaTime": 256,
                "channel": 0,
                "type": "noteOff",
                "noteNumber": 79,
                "velocity": 96
            },
            {
                "deltaTime": 0,
                "meta": true,
                "type": "endOfTrack"
            }
        ],
        [
            {
                "deltaTime": 0,
                "meta": true,
                "type": "trackName",
                "text": "Harp 2"
            },
            {
                "deltaTime": 0,
                "meta": true,
                "type": "setTempo",
                "microsecondsPerBeat": 428571
            },
            {
                "deltaTime": 0,
                "channel": 0,
                "type": "noteOn",
                "noteNumber": 48,
                "velocity": 96
            },
            {
                "deltaTime": 128,
                "channel": 0,
                "type": "noteOn",
                "noteNumber": 55,
                "velocity": 96
            },
            {
                "deltaTime": 0,
                "channel": 0,
                "type": "noteOn",
                "noteNumber": 51,
                "velocity": 96
            },
            {
                "deltaTime": 64,
                "channel": 0,
                "type": "noteOff",
                "noteNumber": 48,
                "velocity": 96
            },
            {
                "deltaTime": 40,
                "channel": 0,
                "type": "noteOff",
                "noteNumber": 51,
                "velocity": 96
            },
            {
                "deltaTime": 0,
                "channel": 0,
                "type": "noteOff",
                "noteNumber": 55,
                "velocity": 96
            },
            {
                "deltaTime": 24,
                "channel": 0,
                "type": "noteOn",
                "noteNumber": 55,
                "velocity": 96
            },
            {
                "deltaTime": 0,
                "channel": 0,
                "type": "noteOn",
                "noteNumber": 51,
                "velocity": 96
            },
            {
                "deltaTime": 128,
                "channel": 0,
                "type": "noteOn",
                "noteNumber": 41,
                "velocity": 96
            },
            {
                "deltaTime": 18,
                "channel": 0,
                "type": "noteOff",
                "noteNumber": 55,
                "velocity": 96
            },
            {
                "deltaTime": 0,
                "channel": 0,
                "type": "noteOff",
                "noteNumber": 51,
                "velocity": 96
            },
            {
                "deltaTime": 110,
                "channel": 0,
                "type": "noteOn",
                "noteNumber": 44,
                "velocity": 96
            },
            {
                "deltaTime": 0,
                "channel": 0,
                "type": "noteOn",
                "noteNumber": 48,
                "velocity": 96
            },
            {
                "deltaTime": 64,
                "channel": 0,
                "type": "noteOff",
                "noteNumber": 41,
                "velocity": 96
            },
            {
                "deltaTime": 64,
                "channel": 0,
                "type": "noteOn",
                "noteNumber": 44,
                "velocity": 96
            },
            {
                "deltaTime": 0,
                "channel": 0,
                "type": "noteOn",
                "noteNumber": 48,
                "velocity": 96
            },
            {
                "deltaTime": 64,
                "channel": 0,
                "type": "noteOff",
                "noteNumber": 44,
                "velocity": 96
            },
            {
                "deltaTime": 0,
                "channel": 0,
                "type": "noteOff",
                "noteNumber": 48,
                "velocity": 96
            },
            {
                "deltaTime": 64,
                "channel": 0,
                "type": "noteOn",
                "noteNumber": 46,
                "velocity": 96
            },
            {
                "deltaTime": 64,
                "channel": 0,
                "type": "noteOff",
                "noteNumber": 44,
                "velocity": 96
            },
            {
                "deltaTime": 0,
                "channel": 0,
                "type": "noteOff",
                "noteNumber": 48,
                "velocity": 96
            },
            {
                "deltaTime": 64,
                "channel": 0,
                "type": "noteOn",
                "noteNumber": 50,
                "velocity": 96
            },
            {
                "deltaTime": 0,
                "channel": 0,
                "type": "noteOn",
                "noteNumber": 53,
                "velocity": 96
            },
            {
                "deltaTime": 64,
                "channel": 0,
                "type": "noteOff",
                "noteNumber": 46,
                "velocity": 96
            },
            {
                "deltaTime": 64,
                "channel": 0,
                "type": "noteOn",
                "noteNumber": 53,
                "velocity": 96
            },
            {
                "deltaTime": 0,
                "channel": 0,
                "type": "noteOn",
                "noteNumber": 50,
                "velocity": 96
            },
            {
                "deltaTime": 64,
                "channel": 0,
                "type": "noteOff",
                "noteNumber": 53,
                "velocity": 96
            },
            {
                "deltaTime": 0,
                "channel": 0,
                "type": "noteOff",
                "noteNumber": 50,
                "velocity": 96
            },
            {
                "deltaTime": 64,
                "channel": 0,
                "type": "noteOn",
                "noteNumber": 39,
                "velocity": 96
            },
            {
                "deltaTime": 64,
                "channel": 0,
                "type": "noteOff",
                "noteNumber": 50,
                "velocity": 96
            },
            {
                "deltaTime": 0,
                "channel": 0,
                "type": "noteOff",
                "noteNumber": 53,
                "velocity": 96
            },
            {
                "deltaTime": 64,
                "channel": 0,
                "type": "noteOn",
                "noteNumber": 51,
                "velocity": 96
            },
            {
                "deltaTime": 0,
                "channel": 0,
                "type": "noteOn",
                "noteNumber": 46,
                "velocity": 96
            },
            {
                "deltaTime": 0,
                "channel": 0,
                "type": "noteOn",
                "noteNumber": 43,
                "velocity": 96
            },
            {
                "deltaTime": 64,
                "channel": 0,
                "type": "noteOff",
                "noteNumber": 39,
                "velocity": 96
            },
            {
                "deltaTime": 64,
                "channel": 0,
                "type": "noteOn",
                "noteNumber": 51,
                "velocity": 96
            },
            {
                "deltaTime": 0,
                "channel": 0,
                "type": "noteOn",
                "noteNumber": 43,
                "velocity": 96
            },
            {
                "deltaTime": 0,
                "channel": 0,
                "type": "noteOn",
                "noteNumber": 46,
                "velocity": 96
            },
            {
                "deltaTime": 64,
                "channel": 0,
                "type": "noteOff",
                "noteNumber": 51,
                "velocity": 96
            },
            {
                "deltaTime": 0,
                "channel": 0,
                "type": "noteOff",
                "noteNumber": 43,
                "velocity": 96
            },
            {
                "deltaTime": 0,
                "channel": 0,
                "type": "noteOff",
                "noteNumber": 46,
                "velocity": 96
            },
            {
                "deltaTime": 64,
                "channel": 0,
                "type": "noteOn",
                "noteNumber": 48,
                "velocity": 96
            },
            {
                "deltaTime": 64,
                "channel": 0,
                "type": "noteOff",
                "noteNumber": 43,
                "velocity": 96
            },
            {
                "deltaTime": 0,
                "channel": 0,
                "type": "noteOff",
                "noteNumber": 51,
                "velocity": 96
            },
            {
                "deltaTime": 0,
                "channel": 0,
                "type": "noteOff",
                "noteNumber": 46,
                "velocity": 96
            },
            {
                "deltaTime": 64,
                "channel": 0,
                "type": "noteOn",
                "noteNumber": 55,
                "velocity": 96
            },
            {
                "deltaTime": 0,
                "channel": 0,
                "type": "noteOn",
                "noteNumber": 51,
                "velocity": 96
            },
            {
                "deltaTime": 64,
                "channel": 0,
                "type": "noteOff",
                "noteNumber": 48,
                "velocity": 96
            },
            {
                "deltaTime": 64,
                "channel": 0,
                "type": "noteOn",
                "noteNumber": 51,
                "velocity": 96
            },
            {
                "deltaTime": 0,
                "channel": 0,
                "type": "noteOn",
                "noteNumber": 55,
                "velocity": 96
            },
            {
                "deltaTime": 64,
                "channel": 0,
                "type": "noteOff",
                "noteNumber": 55,
                "velocity": 96
            },
            {
                "deltaTime": 0,
                "channel": 0,
                "type": "noteOff",
                "noteNumber": 51,
                "velocity": 96
            },
            {
                "deltaTime": 64,
                "channel": 0,
                "type": "noteOn",
                "noteNumber": 41,
                "velocity": 96
            },
            {
                "deltaTime": 64,
                "channel": 0,
                "type": "noteOff",
                "noteNumber": 55,
                "velocity": 96
            },
            {
                "deltaTime": 0,
                "channel": 0,
                "type": "noteOff",
                "noteNumber": 51,
                "velocity": 96
            },
            {
                "deltaTime": 64,
                "channel": 0,
                "type": "noteOn",
                "noteNumber": 44,
                "velocity": 96
            },
            {
                "deltaTime": 0,
                "channel": 0,
                "type": "noteOn",
                "noteNumber": 48,
                "velocity": 96
            },
            {
                "deltaTime": 64,
                "channel": 0,
                "type": "noteOff",
                "noteNumber": 41,
                "velocity": 96
            },
            {
                "deltaTime": 64,
                "channel": 0,
                "type": "noteOn",
                "noteNumber": 48,
                "velocity": 96
            },
            {
                "deltaTime": 0,
                "channel": 0,
                "type": "noteOn",
                "noteNumber": 44,
                "velocity": 96
            },
            {
                "deltaTime": 64,
                "channel": 0,
                "type": "noteOff",
                "noteNumber": 48,
                "velocity": 96
            },
            {
                "deltaTime": 0,
                "channel": 0,
                "type": "noteOff",
                "noteNumber": 44,
                "velocity": 96
            },
            {
                "deltaTime": 64,
                "channel": 0,
                "type": "noteOn",
                "noteNumber": 46,
                "velocity": 96
            },
            {
                "deltaTime": 64,
                "channel": 0,
                "type": "noteOff",
                "noteNumber": 48,
                "velocity": 96
            },
            {
                "deltaTime": 0,
                "channel": 0,
                "type": "noteOff",
                "noteNumber": 44,
                "velocity": 96
            },
            {
                "deltaTime": 64,
                "channel": 0,
                "type": "noteOn",
                "noteNumber": 50,
                "velocity": 96
            },
            {
                "deltaTime": 0,
                "channel": 0,
                "type": "noteOn",
                "noteNumber": 53,
                "velocity": 96
            },
            {
                "deltaTime": 64,
                "channel": 0,
                "type": "noteOff",
                "noteNumber": 46,
                "velocity": 96
            },
            {
                "deltaTime": 64,
                "channel": 0,
                "type": "noteOn",
                "noteNumber": 53,
                "velocity": 96
            },
            {
                "deltaTime": 0,
                "channel": 0,
                "type": "noteOn",
                "noteNumber": 50,
                "velocity": 96
            },
            {
                "deltaTime": 64,
                "channel": 0,
                "type": "noteOff",
                "noteNumber": 50,
                "velocity": 96
            },
            {
                "deltaTime": 0,
                "channel": 0,
                "type": "noteOff",
                "noteNumber": 53,
                "velocity": 96
            },
            {
                "deltaTime": 64,
                "channel": 0,
                "type": "noteOn",
                "noteNumber": 39,
                "velocity": 96
            },
            {
                "deltaTime": 64,
                "channel": 0,
                "type": "noteOff",
                "noteNumber": 53,
                "velocity": 96
            },
            {
                "deltaTime": 0,
                "channel": 0,
                "type": "noteOff",
                "noteNumber": 50,
                "velocity": 96
            },
            {
                "deltaTime": 64,
                "channel": 0,
                "type": "noteOn",
                "noteNumber": 51,
                "velocity": 96
            },
            {
                "deltaTime": 0,
                "channel": 0,
                "type": "noteOn",
                "noteNumber": 46,
                "velocity": 96
            },
            {
                "deltaTime": 0,
                "channel": 0,
                "type": "noteOn",
                "noteNumber": 43,
                "velocity": 96
            },
            {
                "deltaTime": 64,
                "channel": 0,
                "type": "noteOff",
                "noteNumber": 39,
                "velocity": 96
            },
            {
                "deltaTime": 64,
                "channel": 0,
                "type": "noteOn",
                "noteNumber": 51,
                "velocity": 96
            },
            {
                "deltaTime": 0,
                "channel": 0,
                "type": "noteOn",
                "noteNumber": 46,
                "velocity": 96
            },
            {
                "deltaTime": 0,
                "channel": 0,
                "type": "noteOn",
                "noteNumber": 43,
                "velocity": 96
            },
            {
                "deltaTime": 64,
                "channel": 0,
                "type": "noteOff",
                "noteNumber": 51,
                "velocity": 96
            },
            {
                "deltaTime": 0,
                "channel": 0,
                "type": "noteOff",
                "noteNumber": 46,
                "velocity": 96
            },
            {
                "deltaTime": 0,
                "channel": 0,
                "type": "noteOff",
                "noteNumber": 43,
                "velocity": 96
            },
            {
                "deltaTime": 64,
                "channel": 0,
                "type": "noteOn",
                "noteNumber": 48,
                "velocity": 96
            },
            {
                "deltaTime": 64,
                "channel": 0,
                "type": "noteOff",
                "noteNumber": 51,
                "velocity": 96
            },
            {
                "deltaTime": 0,
                "channel": 0,
                "type": "noteOff",
                "noteNumber": 46,
                "velocity": 96
            },
            {
                "deltaTime": 0,
                "channel": 0,
                "type": "noteOff",
                "noteNumber": 43,
                "velocity": 96
            },
            {
                "deltaTime": 64,
                "channel": 0,
                "type": "noteOn",
                "noteNumber": 55,
                "velocity": 96
            },
            {
                "deltaTime": 0,
                "channel": 0,
                "type": "noteOn",
                "noteNumber": 51,
                "velocity": 96
            },
            {
                "deltaTime": 64,
                "channel": 0,
                "type": "noteOff",
                "noteNumber": 48,
                "velocity": 96
            },
            {
                "deltaTime": 40,
                "channel": 0,
                "type": "noteOff",
                "noteNumber": 55,
                "velocity": 96
            },
            {
                "deltaTime": 0,
                "channel": 0,
                "type": "noteOff",
                "noteNumber": 51,
                "velocity": 96
            },
            {
                "deltaTime": 24,
                "channel": 0,
                "type": "noteOn",
                "noteNumber": 55,
                "velocity": 96
            },
            {
                "deltaTime": 0,
                "channel": 0,
                "type": "noteOn",
                "noteNumber": 51,
                "velocity": 96
            },
            {
                "deltaTime": 128,
                "channel": 0,
                "type": "noteOn",
                "noteNumber": 41,
                "velocity": 96
            },
            {
                "deltaTime": 18,
                "channel": 0,
                "type": "noteOff",
                "noteNumber": 51,
                "velocity": 96
            },
            {
                "deltaTime": 0,
                "channel": 0,
                "type": "noteOff",
                "noteNumber": 55,
                "velocity": 96
            },
            {
                "deltaTime": 110,
                "channel": 0,
                "type": "noteOn",
                "noteNumber": 48,
                "velocity": 96
            },
            {
                "deltaTime": 0,
                "channel": 0,
                "type": "noteOn",
                "noteNumber": 44,
                "velocity": 96
            },
            {
                "deltaTime": 64,
                "channel": 0,
                "type": "noteOff",
                "noteNumber": 41,
                "velocity": 96
            },
            {
                "deltaTime": 64,
                "channel": 0,
                "type": "noteOn",
                "noteNumber": 48,
                "velocity": 96
            },
            {
                "deltaTime": 0,
                "channel": 0,
                "type": "noteOn",
                "noteNumber": 44,
                "velocity": 96
            },
            {
                "deltaTime": 64,
                "channel": 0,
                "type": "noteOff",
                "noteNumber": 48,
                "velocity": 96
            },
            {
                "deltaTime": 0,
                "channel": 0,
                "type": "noteOff",
                "noteNumber": 44,
                "velocity": 96
            },
            {
                "deltaTime": 64,
                "channel": 0,
                "type": "noteOn",
                "noteNumber": 46,
                "velocity": 96
            },
            {
                "deltaTime": 64,
                "channel": 0,
                "type": "noteOff",
                "noteNumber": 48,
                "velocity": 96
            },
            {
                "deltaTime": 0,
                "channel": 0,
                "type": "noteOff",
                "noteNumber": 44,
                "velocity": 96
            },
            {
                "deltaTime": 64,
                "channel": 0,
                "type": "noteOn",
                "noteNumber": 50,
                "velocity": 96
            },
            {
                "deltaTime": 0,
                "channel": 0,
                "type": "noteOn",
                "noteNumber": 53,
                "velocity": 96
            },
            {
                "deltaTime": 64,
                "channel": 0,
                "type": "noteOff",
                "noteNumber": 46,
                "velocity": 96
            },
            {
                "deltaTime": 64,
                "channel": 0,
                "type": "noteOn",
                "noteNumber": 53,
                "velocity": 96
            },
            {
                "deltaTime": 0,
                "channel": 0,
                "type": "noteOn",
                "noteNumber": 50,
                "velocity": 96
            },
            {
                "deltaTime": 64,
                "channel": 0,
                "type": "noteOff",
                "noteNumber": 53,
                "velocity": 96
            },
            {
                "deltaTime": 0,
                "channel": 0,
                "type": "noteOff",
                "noteNumber": 50,
                "velocity": 96
            },
            {
                "deltaTime": 64,
                "channel": 0,
                "type": "noteOn",
                "noteNumber": 39,
                "velocity": 96
            },
            {
                "deltaTime": 64,
                "channel": 0,
                "type": "noteOff",
                "noteNumber": 50,
                "velocity": 96
            },
            {
                "deltaTime": 0,
                "channel": 0,
                "type": "noteOff",
                "noteNumber": 53,
                "velocity": 96
            },
            {
                "deltaTime": 64,
                "channel": 0,
                "type": "noteOn",
                "noteNumber": 46,
                "velocity": 96
            },
            {
                "deltaTime": 0,
                "channel": 0,
                "type": "noteOn",
                "noteNumber": 43,
                "velocity": 96
            },
            {
                "deltaTime": 0,
                "channel": 0,
                "type": "noteOn",
                "noteNumber": 51,
                "velocity": 96
            },
            {
                "deltaTime": 64,
                "channel": 0,
                "type": "noteOff",
                "noteNumber": 39,
                "velocity": 96
            },
            {
                "deltaTime": 64,
                "channel": 0,
                "type": "noteOn",
                "noteNumber": 43,
                "velocity": 96
            },
            {
                "deltaTime": 0,
                "channel": 0,
                "type": "noteOn",
                "noteNumber": 46,
                "velocity": 96
            },
            {
                "deltaTime": 0,
                "channel": 0,
                "type": "noteOn",
                "noteNumber": 51,
                "velocity": 96
            },
            {
                "deltaTime": 64,
                "channel": 0,
                "type": "noteOff",
                "noteNumber": 51,
                "velocity": 96
            },
            {
                "deltaTime": 0,
                "channel": 0,
                "type": "noteOff",
                "noteNumber": 43,
                "velocity": 96
            },
            {
                "deltaTime": 0,
                "channel": 0,
                "type": "noteOff",
                "noteNumber": 46,
                "velocity": 96
            },
            {
                "deltaTime": 64,
                "channel": 0,
                "type": "noteOn",
                "noteNumber": 41,
                "velocity": 96
            },
            {
                "deltaTime": 64,
                "channel": 0,
                "type": "noteOff",
                "noteNumber": 51,
                "velocity": 96
            },
            {
                "deltaTime": 0,
                "channel": 0,
                "type": "noteOff",
                "noteNumber": 46,
                "velocity": 96
            },
            {
                "deltaTime": 0,
                "channel": 0,
                "type": "noteOff",
                "noteNumber": 43,
                "velocity": 96
            },
            {
                "deltaTime": 64,
                "channel": 0,
                "type": "noteOn",
                "noteNumber": 44,
                "velocity": 96
            },
            {
                "deltaTime": 64,
                "channel": 0,
                "type": "noteOff",
                "noteNumber": 41,
                "velocity": 96
            },
            {
                "deltaTime": 64,
                "channel": 0,
                "type": "noteOn",
                "noteNumber": 48,
                "velocity": 96
            },
            {
                "deltaTime": 64,
                "channel": 0,
                "type": "noteOff",
                "noteNumber": 44,
                "velocity": 96
            },
            {
                "deltaTime": 64,
                "channel": 0,
                "type": "noteOn",
                "noteNumber": 43,
                "velocity": 96
            },
            {
                "deltaTime": 64,
                "channel": 0,
                "type": "noteOff",
                "noteNumber": 48,
                "velocity": 96
            },
            {
                "deltaTime": 64,
                "channel": 0,
                "type": "noteOn",
                "noteNumber": 46,
                "velocity": 96
            },
            {
                "deltaTime": 64,
                "channel": 0,
                "type": "noteOff",
                "noteNumber": 43,
                "velocity": 96
            },
            {
                "deltaTime": 64,
                "channel": 0,
                "type": "noteOn",
                "noteNumber": 50,
                "velocity": 96
            },
            {
                "deltaTime": 64,
                "channel": 0,
                "type": "noteOff",
                "noteNumber": 46,
                "velocity": 96
            },
            {
                "deltaTime": 64,
                "channel": 0,
                "type": "noteOn",
                "noteNumber": 44,
                "velocity": 96
            },
            {
                "deltaTime": 64,
                "channel": 0,
                "type": "noteOff",
                "noteNumber": 50,
                "velocity": 96
            },
            {
                "deltaTime": 64,
                "channel": 0,
                "type": "noteOn",
                "noteNumber": 48,
                "velocity": 96
            },
            {
                "deltaTime": 64,
                "channel": 0,
                "type": "noteOff",
                "noteNumber": 44,
                "velocity": 96
            },
            {
                "deltaTime": 64,
                "channel": 0,
                "type": "noteOn",
                "noteNumber": 51,
                "velocity": 96
            },
            {
                "deltaTime": 64,
                "channel": 0,
                "type": "noteOff",
                "noteNumber": 48,
                "velocity": 96
            },
            {
                "deltaTime": 85,
                "channel": 0,
                "type": "noteOn",
                "noteNumber": 47,
                "velocity": 96
            },
            {
                "deltaTime": 21,
                "channel": 0,
                "type": "noteOn",
                "noteNumber": 50,
                "velocity": 96
            },
            {
                "deltaTime": 22,
                "channel": 0,
                "type": "noteOff",
                "noteNumber": 51,
                "velocity": 96
            },
            {
                "deltaTime": 0,
                "channel": 0,
                "type": "noteOn",
                "noteNumber": 55,
                "velocity": 96
            },
            {
                "deltaTime": 21,
                "channel": 0,
                "type": "noteOn",
                "noteNumber": 59,
                "velocity": 96
            },
            {
                "deltaTime": 488,
                "channel": 0,
                "type": "noteOff",
                "noteNumber": 50,
                "velocity": 96
            },
            {
                "deltaTime": 3,
                "channel": 0,
                "type": "noteOff",
                "noteNumber": 47,
                "velocity": 96
            },
            {
                "deltaTime": 0,
                "channel": 0,
                "type": "noteOff",
                "noteNumber": 55,
                "velocity": 96
            },
            {
                "deltaTime": 0,
                "channel": 0,
                "type": "noteOff",
                "noteNumber": 59,
                "velocity": 96
            },
            {
                "deltaTime": 192,
                "channel": 0,
                "type": "noteOn",
                "noteNumber": 48,
                "velocity": 96
            },
            {
                "deltaTime": 128,
                "channel": 0,
                "type": "noteOn",
                "noteNumber": 55,
                "velocity": 96
            },
            {
                "deltaTime": 0,
                "channel": 0,
                "type": "noteOn",
                "noteNumber": 51,
                "velocity": 96
            },
            {
                "deltaTime": 64,
                "channel": 0,
                "type": "noteOff",
                "noteNumber": 48,
                "velocity": 96
            },
            {
                "deltaTime": 64,
                "channel": 0,
                "type": "noteOn",
                "noteNumber": 55,
                "velocity": 96
            },
            {
                "deltaTime": 0,
                "channel": 0,
                "type": "noteOn",
                "noteNumber": 51,
                "velocity": 96
            },
            {
                "deltaTime": 64,
                "channel": 0,
                "type": "noteOff",
                "noteNumber": 55,
                "velocity": 96
            },
            {
                "deltaTime": 0,
                "channel": 0,
                "type": "noteOff",
                "noteNumber": 51,
                "velocity": 96
            },
            {
                "deltaTime": 64,
                "channel": 0,
                "type": "noteOn",
                "noteNumber": 53,
                "velocity": 96
            },
            {
                "deltaTime": 64,
                "channel": 0,
                "type": "noteOff",
                "noteNumber": 55,
                "velocity": 96
            },
            {
                "deltaTime": 0,
                "channel": 0,
                "type": "noteOff",
                "noteNumber": 51,
                "velocity": 96
            },
            {
                "deltaTime": 64,
                "channel": 0,
                "type": "noteOn",
                "noteNumber": 56,
                "velocity": 96
            },
            {
                "deltaTime": 0,
                "channel": 0,
                "type": "noteOn",
                "noteNumber": 60,
                "velocity": 96
            },
            {
                "deltaTime": 64,
                "channel": 0,
                "type": "noteOff",
                "noteNumber": 53,
                "velocity": 96
            },
            {
                "deltaTime": 64,
                "channel": 0,
                "type": "noteOn",
                "noteNumber": 60,
                "velocity": 96
            },
            {
                "deltaTime": 0,
                "channel": 0,
                "type": "noteOn",
                "noteNumber": 56,
                "velocity": 96
            },
            {
                "deltaTime": 64,
                "channel": 0,
                "type": "noteOff",
                "noteNumber": 60,
                "velocity": 96
            },
            {
                "deltaTime": 0,
                "channel": 0,
                "type": "noteOff",
                "noteNumber": 56,
                "velocity": 96
            },
            {
                "deltaTime": 64,
                "channel": 0,
                "type": "noteOn",
                "noteNumber": 46,
                "velocity": 96
            },
            {
                "deltaTime": 64,
                "channel": 0,
                "type": "noteOff",
                "noteNumber": 60,
                "velocity": 96
            },
            {
                "deltaTime": 0,
                "channel": 0,
                "type": "noteOff",
                "noteNumber": 56,
                "velocity": 96
            },
            {
                "deltaTime": 64,
                "channel": 0,
                "type": "noteOn",
                "noteNumber": 53,
                "velocity": 96
            },
            {
                "deltaTime": 0,
                "channel": 0,
                "type": "noteOn",
                "noteNumber": 50,
                "velocity": 96
            },
            {
                "deltaTime": 64,
                "channel": 0,
                "type": "noteOff",
                "noteNumber": 46,
                "velocity": 96
            },
            {
                "deltaTime": 64,
                "channel": 0,
                "type": "noteOn",
                "noteNumber": 50,
                "velocity": 96
            },
            {
                "deltaTime": 0,
                "channel": 0,
                "type": "noteOn",
                "noteNumber": 53,
                "velocity": 96
            },
            {
                "deltaTime": 64,
                "channel": 0,
                "type": "noteOff",
                "noteNumber": 50,
                "velocity": 96
            },
            {
                "deltaTime": 0,
                "channel": 0,
                "type": "noteOff",
                "noteNumber": 53,
                "velocity": 96
            },
            {
                "deltaTime": 64,
                "channel": 0,
                "type": "noteOn",
                "noteNumber": 51,
                "velocity": 96
            },
            {
                "deltaTime": 64,
                "channel": 0,
                "type": "noteOff",
                "noteNumber": 53,
                "velocity": 96
            },
            {
                "deltaTime": 0,
                "channel": 0,
                "type": "noteOff",
                "noteNumber": 50,
                "velocity": 96
            },
            {
                "deltaTime": 64,
                "channel": 0,
                "type": "noteOn",
                "noteNumber": 58,
                "velocity": 96
            },
            {
                "deltaTime": 0,
                "channel": 0,
                "type": "noteOn",
                "noteNumber": 55,
                "velocity": 96
            },
            {
                "deltaTime": 64,
                "channel": 0,
                "type": "noteOff",
                "noteNumber": 51,
                "velocity": 96
            },
            {
                "deltaTime": 64,
                "channel": 0,
                "type": "noteOn",
                "noteNumber": 58,
                "velocity": 96
            },
            {
                "deltaTime": 0,
                "channel": 0,
                "type": "noteOn",
                "noteNumber": 55,
                "velocity": 96
            },
            {
                "deltaTime": 64,
                "channel": 0,
                "type": "noteOff",
                "noteNumber": 58,
                "velocity": 96
            },
            {
                "deltaTime": 0,
                "channel": 0,
                "type": "noteOff",
                "noteNumber": 55,
                "velocity": 96
            },
            {
                "deltaTime": 64,
                "channel": 0,
                "type": "noteOn",
                "noteNumber": 48,
                "velocity": 96
            },
            {
                "deltaTime": 64,
                "channel": 0,
                "type": "noteOff",
                "noteNumber": 55,
                "velocity": 96
            },
            {
                "deltaTime": 0,
                "channel": 0,
                "type": "noteOff",
                "noteNumber": 58,
                "velocity": 96
            },
            {
                "deltaTime": 64,
                "channel": 0,
                "type": "noteOn",
                "noteNumber": 55,
                "velocity": 96
            },
            {
                "deltaTime": 0,
                "channel": 0,
                "type": "noteOn",
                "noteNumber": 51,
                "velocity": 96
            },
            {
                "deltaTime": 64,
                "channel": 0,
                "type": "noteOff",
                "noteNumber": 48,
                "velocity": 96
            },
            {
                "deltaTime": 64,
                "channel": 0,
                "type": "noteOn",
                "noteNumber": 55,
                "velocity": 96
            },
            {
                "deltaTime": 0,
                "channel": 0,
                "type": "noteOn",
                "noteNumber": 51,
                "velocity": 96
            },
            {
                "deltaTime": 64,
                "channel": 0,
                "type": "noteOff",
                "noteNumber": 55,
                "velocity": 96
            },
            {
                "deltaTime": 0,
                "channel": 0,
                "type": "noteOff",
                "noteNumber": 51,
                "velocity": 96
            },
            {
                "deltaTime": 64,
                "channel": 0,
                "type": "noteOn",
                "noteNumber": 53,
                "velocity": 96
            },
            {
                "deltaTime": 64,
                "channel": 0,
                "type": "noteOff",
                "noteNumber": 51,
                "velocity": 96
            },
            {
                "deltaTime": 0,
                "channel": 0,
                "type": "noteOff",
                "noteNumber": 55,
                "velocity": 96
            },
            {
                "deltaTime": 64,
                "channel": 0,
                "type": "noteOn",
                "noteNumber": 60,
                "velocity": 96
            },
            {
                "deltaTime": 0,
                "channel": 0,
                "type": "noteOn",
                "noteNumber": 56,
                "velocity": 96
            },
            {
                "deltaTime": 64,
                "channel": 0,
                "type": "noteOff",
                "noteNumber": 53,
                "velocity": 96
            },
            {
                "deltaTime": 64,
                "channel": 0,
                "type": "noteOn",
                "noteNumber": 60,
                "velocity": 96
            },
            {
                "deltaTime": 0,
                "channel": 0,
                "type": "noteOn",
                "noteNumber": 56,
                "velocity": 96
            },
            {
                "deltaTime": 64,
                "channel": 0,
                "type": "noteOff",
                "noteNumber": 60,
                "velocity": 96
            },
            {
                "deltaTime": 0,
                "channel": 0,
                "type": "noteOff",
                "noteNumber": 56,
                "velocity": 96
            },
            {
                "deltaTime": 64,
                "channel": 0,
                "type": "noteOn",
                "noteNumber": 46,
                "velocity": 96
            },
            {
                "deltaTime": 64,
                "channel": 0,
                "type": "noteOff",
                "noteNumber": 60,
                "velocity": 96
            },
            {
                "deltaTime": 0,
                "channel": 0,
                "type": "noteOff",
                "noteNumber": 56,
                "velocity": 96
            },
            {
                "deltaTime": 64,
                "channel": 0,
                "type": "noteOn",
                "noteNumber": 53,
                "velocity": 96
            },
            {
                "deltaTime": 0,
                "channel": 0,
                "type": "noteOn",
                "noteNumber": 50,
                "velocity": 96
            },
            {
                "deltaTime": 64,
                "channel": 0,
                "type": "noteOff",
                "noteNumber": 46,
                "velocity": 96
            },
            {
                "deltaTime": 64,
                "channel": 0,
                "type": "noteOn",
                "noteNumber": 50,
                "velocity": 96
            },
            {
                "deltaTime": 0,
                "channel": 0,
                "type": "noteOn",
                "noteNumber": 53,
                "velocity": 96
            },
            {
                "deltaTime": 64,
                "channel": 0,
                "type": "noteOff",
                "noteNumber": 50,
                "velocity": 96
            },
            {
                "deltaTime": 0,
                "channel": 0,
                "type": "noteOff",
                "noteNumber": 53,
                "velocity": 96
            },
            {
                "deltaTime": 64,
                "channel": 0,
                "type": "noteOn",
                "noteNumber": 51,
                "velocity": 96
            },
            {
                "deltaTime": 64,
                "channel": 0,
                "type": "noteOff",
                "noteNumber": 53,
                "velocity": 96
            },
            {
                "deltaTime": 0,
                "channel": 0,
                "type": "noteOff",
                "noteNumber": 50,
                "velocity": 96
            },
            {
                "deltaTime": 64,
                "channel": 0,
                "type": "noteOn",
                "noteNumber": 55,
                "velocity": 96
            },
            {
                "deltaTime": 0,
                "channel": 0,
                "type": "noteOn",
                "noteNumber": 58,
                "velocity": 96
            },
            {
                "deltaTime": 64,
                "channel": 0,
                "type": "noteOff",
                "noteNumber": 51,
                "velocity": 96
            },
            {
                "deltaTime": 64,
                "channel": 0,
                "type": "noteOn",
                "noteNumber": 55,
                "velocity": 96
            },
            {
                "deltaTime": 0,
                "channel": 0,
                "type": "noteOn",
                "noteNumber": 58,
                "velocity": 96
            },
            {
                "deltaTime": 64,
                "channel": 0,
                "type": "noteOff",
                "noteNumber": 58,
                "velocity": 96
            },
            {
                "deltaTime": 0,
                "channel": 0,
                "type": "noteOff",
                "noteNumber": 55,
                "velocity": 96
            },
            {
                "deltaTime": 64,
                "channel": 0,
                "type": "noteOn",
                "noteNumber": 48,
                "velocity": 96
            },
            {
                "deltaTime": 64,
                "channel": 0,
                "type": "noteOff",
                "noteNumber": 58,
                "velocity": 96
            },
            {
                "deltaTime": 0,
                "channel": 0,
                "type": "noteOff",
                "noteNumber": 55,
                "velocity": 96
            },
            {
                "deltaTime": 64,
                "channel": 0,
                "type": "noteOn",
                "noteNumber": 55,
                "velocity": 96
            },
            {
                "deltaTime": 0,
                "channel": 0,
                "type": "noteOn",
                "noteNumber": 51,
                "velocity": 96
            },
            {
                "deltaTime": 64,
                "channel": 0,
                "type": "noteOff",
                "noteNumber": 48,
                "velocity": 96
            },
            {
                "deltaTime": 64,
                "channel": 0,
                "type": "noteOn",
                "noteNumber": 51,
                "velocity": 96
            },
            {
                "deltaTime": 0,
                "channel": 0,
                "type": "noteOn",
                "noteNumber": 55,
                "velocity": 96
            },
            {
                "deltaTime": 64,
                "channel": 0,
                "type": "noteOff",
                "noteNumber": 55,
                "velocity": 96
            },
            {
                "deltaTime": 0,
                "channel": 0,
                "type": "noteOff",
                "noteNumber": 51,
                "velocity": 96
            },
            {
                "deltaTime": 64,
                "channel": 0,
                "type": "noteOn",
                "noteNumber": 53,
                "velocity": 96
            },
            {
                "deltaTime": 64,
                "channel": 0,
                "type": "noteOff",
                "noteNumber": 55,
                "velocity": 96
            },
            {
                "deltaTime": 0,
                "channel": 0,
                "type": "noteOff",
                "noteNumber": 51,
                "velocity": 96
            },
            {
                "deltaTime": 64,
                "channel": 0,
                "type": "noteOn",
                "noteNumber": 60,
                "velocity": 96
            },
            {
                "deltaTime": 0,
                "channel": 0,
                "type": "noteOn",
                "noteNumber": 56,
                "velocity": 96
            },
            {
                "deltaTime": 64,
                "channel": 0,
                "type": "noteOff",
                "noteNumber": 53,
                "velocity": 96
            },
            {
                "deltaTime": 64,
                "channel": 0,
                "type": "noteOn",
                "noteNumber": 60,
                "velocity": 96
            },
            {
                "deltaTime": 0,
                "channel": 0,
                "type": "noteOn",
                "noteNumber": 56,
                "velocity": 96
            },
            {
                "deltaTime": 64,
                "channel": 0,
                "type": "noteOff",
                "noteNumber": 56,
                "velocity": 96
            },
            {
                "deltaTime": 0,
                "channel": 0,
                "type": "noteOff",
                "noteNumber": 60,
                "velocity": 96
            },
            {
                "deltaTime": 64,
                "channel": 0,
                "type": "noteOn",
                "noteNumber": 46,
                "velocity": 96
            },
            {
                "deltaTime": 64,
                "channel": 0,
                "type": "noteOff",
                "noteNumber": 60,
                "velocity": 96
            },
            {
                "deltaTime": 0,
                "channel": 0,
                "type": "noteOff",
                "noteNumber": 56,
                "velocity": 96
            },
            {
                "deltaTime": 64,
                "channel": 0,
                "type": "noteOn",
                "noteNumber": 53,
                "velocity": 96
            },
            {
                "deltaTime": 0,
                "channel": 0,
                "type": "noteOn",
                "noteNumber": 50,
                "velocity": 96
            },
            {
                "deltaTime": 64,
                "channel": 0,
                "type": "noteOff",
                "noteNumber": 46,
                "velocity": 96
            },
            {
                "deltaTime": 64,
                "channel": 0,
                "type": "noteOn",
                "noteNumber": 50,
                "velocity": 96
            },
            {
                "deltaTime": 0,
                "channel": 0,
                "type": "noteOn",
                "noteNumber": 53,
                "velocity": 96
            },
            {
                "deltaTime": 64,
                "channel": 0,
                "type": "noteOff",
                "noteNumber": 50,
                "velocity": 96
            },
            {
                "deltaTime": 0,
                "channel": 0,
                "type": "noteOff",
                "noteNumber": 53,
                "velocity": 96
            },
            {
                "deltaTime": 64,
                "channel": 0,
                "type": "noteOn",
                "noteNumber": 51,
                "velocity": 96
            },
            {
                "deltaTime": 64,
                "channel": 0,
                "type": "noteOff",
                "noteNumber": 53,
                "velocity": 96
            },
            {
                "deltaTime": 0,
                "channel": 0,
                "type": "noteOff",
                "noteNumber": 50,
                "velocity": 96
            },
            {
                "deltaTime": 64,
                "channel": 0,
                "type": "noteOn",
                "noteNumber": 58,
                "velocity": 96
            },
            {
                "deltaTime": 0,
                "channel": 0,
                "type": "noteOn",
                "noteNumber": 55,
                "velocity": 96
            },
            {
                "deltaTime": 64,
                "channel": 0,
                "type": "noteOff",
                "noteNumber": 51,
                "velocity": 96
            },
            {
                "deltaTime": 64,
                "channel": 0,
                "type": "noteOn",
                "noteNumber": 58,
                "velocity": 96
            },
            {
                "deltaTime": 0,
                "channel": 0,
                "type": "noteOn",
                "noteNumber": 55,
                "velocity": 96
            },
            {
                "deltaTime": 64,
                "channel": 0,
                "type": "noteOff",
                "noteNumber": 58,
                "velocity": 96
            },
            {
                "deltaTime": 0,
                "channel": 0,
                "type": "noteOff",
                "noteNumber": 55,
                "velocity": 96
            },
            {
                "deltaTime": 64,
                "channel": 0,
                "type": "noteOn",
                "noteNumber": 53,
                "velocity": 96
            },
            {
                "deltaTime": 64,
                "channel": 0,
                "type": "noteOff",
                "noteNumber": 55,
                "velocity": 96
            },
            {
                "deltaTime": 0,
                "channel": 0,
                "type": "noteOff",
                "noteNumber": 58,
                "velocity": 96
            },
            {
                "deltaTime": 64,
                "channel": 0,
                "type": "noteOn",
                "noteNumber": 60,
                "velocity": 96
            },
            {
                "deltaTime": 0,
                "channel": 0,
                "type": "noteOn",
                "noteNumber": 56,
                "velocity": 96
            },
            {
                "deltaTime": 64,
                "channel": 0,
                "type": "noteOff",
                "noteNumber": 53,
                "velocity": 96
            },
            {
                "deltaTime": 64,
                "channel": 0,
                "type": "noteOn",
                "noteNumber": 60,
                "velocity": 96
            },
            {
                "deltaTime": 0,
                "channel": 0,
                "type": "noteOn",
                "noteNumber": 56,
                "velocity": 96
            },
            {
                "deltaTime": 64,
                "channel": 0,
                "type": "noteOff",
                "noteNumber": 56,
                "velocity": 96
            },
            {
                "deltaTime": 0,
                "channel": 0,
                "type": "noteOff",
                "noteNumber": 60,
                "velocity": 96
            },
            {
                "deltaTime": 64,
                "channel": 0,
                "type": "noteOn",
                "noteNumber": 58,
                "velocity": 96
            },
            {
                "deltaTime": 64,
                "channel": 0,
                "type": "noteOff",
                "noteNumber": 60,
                "velocity": 96
            },
            {
                "deltaTime": 0,
                "channel": 0,
                "type": "noteOff",
                "noteNumber": 56,
                "velocity": 96
            },
            {
                "deltaTime": 64,
                "channel": 0,
                "type": "noteOn",
                "noteNumber": 65,
                "velocity": 96
            },
            {
                "deltaTime": 0,
                "channel": 0,
                "type": "noteOn",
                "noteNumber": 62,
                "velocity": 96
            },
            {
                "deltaTime": 64,
                "channel": 0,
                "type": "noteOff",
                "noteNumber": 58,
                "velocity": 96
            },
            {
                "deltaTime": 64,
                "channel": 0,
                "type": "noteOn",
                "noteNumber": 62,
                "velocity": 96
            },
            {
                "deltaTime": 0,
                "channel": 0,
                "type": "noteOn",
                "noteNumber": 65,
                "velocity": 96
            },
            {
                "deltaTime": 64,
                "channel": 0,
                "type": "noteOff",
                "noteNumber": 62,
                "velocity": 96
            },
            {
                "deltaTime": 0,
                "channel": 0,
                "type": "noteOff",
                "noteNumber": 65,
                "velocity": 96
            },
            {
                "deltaTime": 64,
                "channel": 0,
                "type": "noteOn",
                "noteNumber": 50,
                "velocity": 96
            },
            {
                "deltaTime": 64,
                "channel": 0,
                "type": "noteOff",
                "noteNumber": 65,
                "velocity": 96
            },
            {
                "deltaTime": 0,
                "channel": 0,
                "type": "noteOff",
                "noteNumber": 62,
                "velocity": 96
            },
            {
                "deltaTime": 64,
                "channel": 0,
                "type": "noteOn",
                "noteNumber": 57,
                "velocity": 96
            },
            {
                "deltaTime": 0,
                "channel": 0,
                "type": "noteOn",
                "noteNumber": 53,
                "velocity": 96
            },
            {
                "deltaTime": 64,
                "channel": 0,
                "type": "noteOff",
                "noteNumber": 50,
                "velocity": 96
            },
            {
                "deltaTime": 64,
                "channel": 0,
                "type": "noteOn",
                "noteNumber": 53,
                "velocity": 96
            },
            {
                "deltaTime": 0,
                "channel": 0,
                "type": "noteOn",
                "noteNumber": 57,
                "velocity": 96
            },
            {
                "deltaTime": 64,
                "channel": 0,
                "type": "noteOff",
                "noteNumber": 57,
                "velocity": 96
            },
            {
                "deltaTime": 0,
                "channel": 0,
                "type": "noteOff",
                "noteNumber": 53,
                "velocity": 96
            },
            {
                "deltaTime": 64,
                "channel": 0,
                "type": "noteOn",
                "noteNumber": 59,
                "velocity": 96
            },
            {
                "deltaTime": 0,
                "channel": 0,
                "type": "noteOn",
                "noteNumber": 55,
                "velocity": 96
            },
            {
                "deltaTime": 64,
                "channel": 0,
                "type": "noteOff",
                "noteNumber": 57,
                "velocity": 96
            },
            {
                "deltaTime": 0,
                "channel": 0,
                "type": "noteOff",
                "noteNumber": 53,
                "velocity": 96
            },
            {
                "deltaTime": 64,
                "channel": 0,
                "type": "noteOn",
                "noteNumber": 60,
                "velocity": 96
            },
            {
                "deltaTime": 0,
                "channel": 0,
                "type": "noteOn",
                "noteNumber": 57,
                "velocity": 96
            },
            {
                "deltaTime": 64,
                "channel": 0,
                "type": "noteOff",
                "noteNumber": 55,
                "velocity": 96
            },
            {
                "deltaTime": 0,
                "channel": 0,
                "type": "noteOff",
                "noteNumber": 59,
                "velocity": 96
            },
            {
                "deltaTime": 64,
                "channel": 0,
                "type": "noteOn",
                "noteNumber": 62,
                "velocity": 96
            },
            {
                "deltaTime": 0,
                "channel": 0,
                "type": "noteOn",
                "noteNumber": 59,
                "velocity": 96
            },
            {
                "deltaTime": 64,
                "channel": 0,
                "type": "noteOff",
                "noteNumber": 60,
                "velocity": 96
            },
            {
                "deltaTime": 0,
                "channel": 0,
                "type": "noteOff",
                "noteNumber": 57,
                "velocity": 96
            },
            {
                "deltaTime": 64,
                "channel": 0,
                "type": "noteOn",
                "noteNumber": 48,
                "velocity": 96
            },
            {
                "deltaTime": 0,
                "channel": 0,
                "type": "noteOn",
                "noteNumber": 63,
                "velocity": 96
            },
            {
                "deltaTime": 64,
                "channel": 0,
                "type": "noteOff",
                "noteNumber": 62,
                "velocity": 96
            },
            {
                "deltaTime": 0,
                "channel": 0,
                "type": "noteOff",
                "noteNumber": 59,
                "velocity": 96
            },
            {
                "deltaTime": 64,
                "channel": 0,
                "type": "noteOn",
                "noteNumber": 60,
                "velocity": 96
            },
            {
                "deltaTime": 0,
                "channel": 0,
                "type": "noteOn",
                "noteNumber": 55,
                "velocity": 96
            },
            {
                "deltaTime": 0,
                "channel": 0,
                "type": "noteOn",
                "noteNumber": 51,
                "velocity": 96
            },
            {
                "deltaTime": 64,
                "channel": 0,
                "type": "noteOff",
                "noteNumber": 63,
                "velocity": 96
            },
            {
                "deltaTime": 0,
                "channel": 0,
                "type": "noteOff",
                "noteNumber": 48,
                "velocity": 96
            },
            {
                "deltaTime": 64,
                "channel": 0,
                "type": "noteOn",
                "noteNumber": 60,
                "velocity": 96
            },
            {
                "deltaTime": 0,
                "channel": 0,
                "type": "noteOn",
                "noteNumber": 55,
                "velocity": 96
            },
            {
                "deltaTime": 0,
                "channel": 0,
                "type": "noteOn",
                "noteNumber": 51,
                "velocity": 96
            },
            {
                "deltaTime": 64,
                "channel": 0,
                "type": "noteOff",
                "noteNumber": 55,
                "velocity": 96
            },
            {
                "deltaTime": 0,
                "channel": 0,
                "type": "noteOff",
                "noteNumber": 60,
                "velocity": 96
            },
            {
                "deltaTime": 0,
                "channel": 0,
                "type": "noteOff",
                "noteNumber": 51,
                "velocity": 96
            },
            {
                "deltaTime": 64,
                "channel": 0,
                "type": "noteOn",
                "noteNumber": 41,
                "velocity": 96
            },
            {
                "deltaTime": 64,
                "channel": 0,
                "type": "noteOff",
                "noteNumber": 51,
                "velocity": 96
            },
            {
                "deltaTime": 0,
                "channel": 0,
                "type": "noteOff",
                "noteNumber": 55,
                "velocity": 96
            },
            {
                "deltaTime": 0,
                "channel": 0,
                "type": "noteOff",
                "noteNumber": 60,
                "velocity": 96
            },
            {
                "deltaTime": 64,
                "channel": 0,
                "type": "noteOn",
                "noteNumber": 53,
                "velocity": 96
            },
            {
                "deltaTime": 0,
                "channel": 0,
                "type": "noteOn",
                "noteNumber": 48,
                "velocity": 96
            },
            {
                "deltaTime": 0,
                "channel": 0,
                "type": "noteOn",
                "noteNumber": 41,
                "velocity": 96
            },
            {
                "deltaTime": 64,
                "channel": 0,
                "type": "noteOff",
                "noteNumber": 41,
                "velocity": 96
            },
            {
                "deltaTime": 64,
                "channel": 0,
                "type": "noteOn",
                "noteNumber": 53,
                "velocity": 96
            },
            {
                "deltaTime": 0,
                "channel": 0,
                "type": "noteOn",
                "noteNumber": 48,
                "velocity": 96
            },
            {
                "deltaTime": 64,
                "channel": 0,
                "type": "noteOff",
                "noteNumber": 41,
                "velocity": 96
            },
            {
                "deltaTime": 0,
                "channel": 0,
                "type": "noteOff",
                "noteNumber": 48,
                "velocity": 96
            },
            {
                "deltaTime": 0,
                "channel": 0,
                "type": "noteOff",
                "noteNumber": 53,
                "velocity": 96
            },
            {
                "deltaTime": 64,
                "channel": 0,
                "type": "noteOn",
                "noteNumber": 46,
                "velocity": 96
            },
            {
                "deltaTime": 64,
                "channel": 0,
                "type": "noteOff",
                "noteNumber": 53,
                "velocity": 96
            },
            {
                "deltaTime": 0,
                "channel": 0,
                "type": "noteOff",
                "noteNumber": 48,
                "velocity": 96
            },
            {
                "deltaTime": 64,
                "channel": 0,
                "type": "noteOn",
                "noteNumber": 58,
                "velocity": 96
            },
            {
                "deltaTime": 0,
                "channel": 0,
                "type": "noteOn",
                "noteNumber": 53,
                "velocity": 96
            },
            {
                "deltaTime": 64,
                "channel": 0,
                "type": "noteOff",
                "noteNumber": 46,
                "velocity": 96
            },
            {
                "deltaTime": 64,
                "channel": 0,
                "type": "noteOn",
                "noteNumber": 58,
                "velocity": 96
            },
            {
                "deltaTime": 0,
                "channel": 0,
                "type": "noteOn",
                "noteNumber": 53,
                "velocity": 96
            },
            {
                "deltaTime": 0,
                "channel": 0,
                "type": "noteOn",
                "noteNumber": 50,
                "velocity": 96
            },
            {
                "deltaTime": 64,
                "channel": 0,
                "type": "noteOff",
                "noteNumber": 58,
                "velocity": 96
            },
            {
                "deltaTime": 0,
                "channel": 0,
                "type": "noteOff",
                "noteNumber": 53,
                "velocity": 96
            },
            {
                "deltaTime": 64,
                "channel": 0,
                "type": "noteOn",
                "noteNumber": 51,
                "velocity": 96
            },
            {
                "deltaTime": 64,
                "channel": 0,
                "type": "noteOff",
                "noteNumber": 53,
                "velocity": 96
            },
            {
                "deltaTime": 0,
                "channel": 0,
                "type": "noteOff",
                "noteNumber": 50,
                "velocity": 96
            },
            {
                "deltaTime": 0,
                "channel": 0,
                "type": "noteOff",
                "noteNumber": 58,
                "velocity": 96
            },
            {
                "deltaTime": 64,
                "channel": 0,
                "type": "noteOn",
                "noteNumber": 63,
                "velocity": 96
            },
            {
                "deltaTime": 0,
                "channel": 0,
                "type": "noteOn",
                "noteNumber": 55,
                "velocity": 96
            },
            {
                "deltaTime": 0,
                "channel": 0,
                "type": "noteOn",
                "noteNumber": 58,
                "velocity": 96
            },
            {
                "deltaTime": 64,
                "channel": 0,
                "type": "noteOff",
                "noteNumber": 51,
                "velocity": 96
            },
            {
                "deltaTime": 64,
                "channel": 0,
                "type": "noteOn",
                "noteNumber": 63,
                "velocity": 96
            },
            {
                "deltaTime": 0,
                "channel": 0,
                "type": "noteOn",
                "noteNumber": 58,
                "velocity": 96
            },
            {
                "deltaTime": 64,
                "channel": 0,
                "type": "noteOff",
                "noteNumber": 63,
                "velocity": 96
            },
            {
                "deltaTime": 0,
                "channel": 0,
                "type": "noteOff",
                "noteNumber": 55,
                "velocity": 96
            },
            {
                "deltaTime": 0,
                "channel": 0,
                "type": "noteOff",
                "noteNumber": 58,
                "velocity": 96
            },
            {
                "deltaTime": 64,
                "channel": 0,
                "type": "noteOn",
                "noteNumber": 48,
                "velocity": 96
            },
            {
                "deltaTime": 64,
                "channel": 0,
                "type": "noteOff",
                "noteNumber": 63,
                "velocity": 96
            },
            {
                "deltaTime": 0,
                "channel": 0,
                "type": "noteOff",
                "noteNumber": 58,
                "velocity": 96
            },
            {
                "deltaTime": 64,
                "channel": 0,
                "type": "noteOn",
                "noteNumber": 60,
                "velocity": 96
            },
            {
                "deltaTime": 0,
                "channel": 0,
                "type": "noteOn",
                "noteNumber": 55,
                "velocity": 96
            },
            {
                "deltaTime": 0,
                "channel": 0,
                "type": "noteOn",
                "noteNumber": 51,
                "velocity": 96
            },
            {
                "deltaTime": 64,
                "channel": 0,
                "type": "noteOff",
                "noteNumber": 48,
                "velocity": 96
            },
            {
                "deltaTime": 64,
                "channel": 0,
                "type": "noteOn",
                "noteNumber": 51,
                "velocity": 96
            },
            {
                "deltaTime": 0,
                "channel": 0,
                "type": "noteOn",
                "noteNumber": 55,
                "velocity": 96
            },
            {
                "deltaTime": 0,
                "channel": 0,
                "type": "noteOn",
                "noteNumber": 60,
                "velocity": 96
            },
            {
                "deltaTime": 64,
                "channel": 0,
                "type": "noteOff",
                "noteNumber": 51,
                "velocity": 96
            },
            {
                "deltaTime": 0,
                "channel": 0,
                "type": "noteOff",
                "noteNumber": 55,
                "velocity": 96
            },
            {
                "deltaTime": 0,
                "channel": 0,
                "type": "noteOff",
                "noteNumber": 60,
                "velocity": 96
            },
            {
                "deltaTime": 64,
                "channel": 0,
                "type": "noteOn",
                "noteNumber": 53,
                "velocity": 96
            },
            {
                "deltaTime": 64,
                "channel": 0,
                "type": "noteOff",
                "noteNumber": 51,
                "velocity": 96
            },
            {
                "deltaTime": 0,
                "channel": 0,
                "type": "noteOff",
                "noteNumber": 60,
                "velocity": 96
            },
            {
                "deltaTime": 0,
                "channel": 0,
                "type": "noteOff",
                "noteNumber": 55,
                "velocity": 96
            },
            {
                "deltaTime": 64,
                "channel": 0,
                "type": "noteOn",
                "noteNumber": 65,
                "velocity": 96
            },
            {
                "deltaTime": 0,
                "channel": 0,
                "type": "noteOn",
                "noteNumber": 56,
                "velocity": 96
            },
            {
                "deltaTime": 0,
                "channel": 0,
                "type": "noteOn",
                "noteNumber": 60,
                "velocity": 96
            },
            {
                "deltaTime": 64,
                "channel": 0,
                "type": "noteOff",
                "noteNumber": 53,
                "velocity": 96
            },
            {
                "deltaTime": 64,
                "channel": 0,
                "type": "noteOn",
                "noteNumber": 56,
                "velocity": 96
            },
            {
                "deltaTime": 0,
                "channel": 0,
                "type": "noteOn",
                "noteNumber": 60,
                "velocity": 96
            },
            {
                "deltaTime": 0,
                "channel": 0,
                "type": "noteOn",
                "noteNumber": 65,
                "velocity": 96
            },
            {
                "deltaTime": 64,
                "channel": 0,
                "type": "noteOff",
                "noteNumber": 56,
                "velocity": 96
            },
            {
                "deltaTime": 0,
                "channel": 0,
                "type": "noteOff",
                "noteNumber": 65,
                "velocity": 96
            },
            {
                "deltaTime": 0,
                "channel": 0,
                "type": "noteOff",
                "noteNumber": 60,
                "velocity": 96
            },
            {
                "deltaTime": 64,
                "channel": 0,
                "type": "noteOn",
                "noteNumber": 46,
                "velocity": 96
            },
            {
                "deltaTime": 64,
                "channel": 0,
                "type": "noteOff",
                "noteNumber": 65,
                "velocity": 96
            },
            {
                "deltaTime": 0,
                "channel": 0,
                "type": "noteOff",
                "noteNumber": 60,
                "velocity": 96
            },
            {
                "deltaTime": 0,
                "channel": 0,
                "type": "noteOff",
                "noteNumber": 56,
                "velocity": 96
            },
            {
                "deltaTime": 64,
                "channel": 0,
                "type": "noteOn",
                "noteNumber": 58,
                "velocity": 96
            },
            {
                "deltaTime": 0,
                "channel": 0,
                "type": "noteOn",
                "noteNumber": 50,
                "velocity": 96
            },
            {
                "deltaTime": 0,
                "channel": 0,
                "type": "noteOn",
                "noteNumber": 53,
                "velocity": 96
            },
            {
                "deltaTime": 64,
                "channel": 0,
                "type": "noteOff",
                "noteNumber": 46,
                "velocity": 96
            },
            {
                "deltaTime": 64,
                "channel": 0,
                "type": "noteOn",
                "noteNumber": 58,
                "velocity": 96
            },
            {
                "deltaTime": 0,
                "channel": 0,
                "type": "noteOn",
                "noteNumber": 53,
                "velocity": 96
            },
            {
                "deltaTime": 64,
                "channel": 0,
                "type": "noteOff",
                "noteNumber": 58,
                "velocity": 96
            },
            {
                "deltaTime": 0,
                "channel": 0,
                "type": "noteOff",
                "noteNumber": 53,
                "velocity": 96
            },
            {
                "deltaTime": 0,
                "channel": 0,
                "type": "noteOff",
                "noteNumber": 50,
                "velocity": 96
            },
            {
                "deltaTime": 64,
                "channel": 0,
                "type": "noteOn",
                "noteNumber": 51,
                "velocity": 96
            },
            {
                "deltaTime": 64,
                "channel": 0,
                "type": "noteOff",
                "noteNumber": 58,
                "velocity": 96
            },
            {
                "deltaTime": 0,
                "channel": 0,
                "type": "noteOff",
                "noteNumber": 53,
                "velocity": 96
            },
            {
                "deltaTime": 64,
                "channel": 0,
                "type": "noteOn",
                "noteNumber": 58,
                "velocity": 96
            },
            {
                "deltaTime": 0,
                "channel": 0,
                "type": "noteOn",
                "noteNumber": 55,
                "velocity": 96
            },
            {
                "deltaTime": 0,
                "channel": 0,
                "type": "noteOn",
                "noteNumber": 63,
                "velocity": 96
            },
            {
                "deltaTime": 64,
                "channel": 0,
                "type": "noteOff",
                "noteNumber": 51,
                "velocity": 96
            },
            {
                "deltaTime": 64,
                "channel": 0,
                "type": "noteOn",
                "noteNumber": 63,
                "velocity": 96
            },
            {
                "deltaTime": 0,
                "channel": 0,
                "type": "noteOn",
                "noteNumber": 58,
                "velocity": 96
            },
            {
                "deltaTime": 0,
                "channel": 0,
                "type": "noteOn",
                "noteNumber": 55,
                "velocity": 96
            },
            {
                "deltaTime": 64,
                "channel": 0,
                "type": "noteOff",
                "noteNumber": 58,
                "velocity": 96
            },
            {
                "deltaTime": 0,
                "channel": 0,
                "type": "noteOff",
                "noteNumber": 55,
                "velocity": 96
            },
            {
                "deltaTime": 0,
                "channel": 0,
                "type": "noteOff",
                "noteNumber": 63,
                "velocity": 96
            },
            {
                "deltaTime": 64,
                "channel": 0,
                "type": "noteOn",
                "noteNumber": 48,
                "velocity": 96
            },
            {
                "deltaTime": 0,
                "channel": 0,
                "type": "noteOn",
                "noteNumber": 63,
                "velocity": 96
            },
            {
                "deltaTime": 64,
                "channel": 0,
                "type": "noteOff",
                "noteNumber": 55,
                "velocity": 96
            },
            {
                "deltaTime": 0,
                "channel": 0,
                "type": "noteOff",
                "noteNumber": 58,
                "velocity": 96
            },
            {
                "deltaTime": 0,
                "channel": 0,
                "type": "noteOff",
                "noteNumber": 63,
                "velocity": 96
            },
            {
                "deltaTime": 64,
                "channel": 0,
                "type": "noteOn",
                "noteNumber": 60,
                "velocity": 96
            },
            {
                "deltaTime": 0,
                "channel": 0,
                "type": "noteOn",
                "noteNumber": 55,
                "velocity": 96
            },
            {
                "deltaTime": 0,
                "channel": 0,
                "type": "noteOn",
                "noteNumber": 51,
                "velocity": 96
            },
            {
                "deltaTime": 64,
                "channel": 0,
                "type": "noteOff",
                "noteNumber": 63,
                "velocity": 96
            },
            {
                "deltaTime": 0,
                "channel": 0,
                "type": "noteOff",
                "noteNumber": 48,
                "velocity": 96
            },
            {
                "deltaTime": 64,
                "channel": 0,
                "type": "noteOn",
                "noteNumber": 60,
                "velocity": 96
            },
            {
                "deltaTime": 0,
                "channel": 0,
                "type": "noteOn",
                "noteNumber": 51,
                "velocity": 96
            },
            {
                "deltaTime": 64,
                "channel": 0,
                "type": "noteOff",
                "noteNumber": 60,
                "velocity": 96
            },
            {
                "deltaTime": 0,
                "channel": 0,
                "type": "noteOff",
                "noteNumber": 55,
                "velocity": 96
            },
            {
                "deltaTime": 0,
                "channel": 0,
                "type": "noteOff",
                "noteNumber": 51,
                "velocity": 96
            },
            {
                "deltaTime": 64,
                "channel": 0,
                "type": "noteOn",
                "noteNumber": 53,
                "velocity": 96
            },
            {
                "deltaTime": 64,
                "channel": 0,
                "type": "noteOff",
                "noteNumber": 51,
                "velocity": 96
            },
            {
                "deltaTime": 0,
                "channel": 0,
                "type": "noteOff",
                "noteNumber": 60,
                "velocity": 96
            },
            {
                "deltaTime": 64,
                "channel": 0,
                "type": "noteOn",
                "noteNumber": 56,
                "velocity": 96
            },
            {
                "deltaTime": 0,
                "channel": 0,
                "type": "noteOn",
                "noteNumber": 60,
                "velocity": 96
            },
            {
                "deltaTime": 64,
                "channel": 0,
                "type": "noteOff",
                "noteNumber": 53,
                "velocity": 96
            },
            {
                "deltaTime": 64,
                "channel": 0,
                "type": "noteOn",
                "noteNumber": 56,
                "velocity": 96
            },
            {
                "deltaTime": 0,
                "channel": 0,
                "type": "noteOn",
                "noteNumber": 60,
                "velocity": 96
            },
            {
                "deltaTime": 64,
                "channel": 0,
                "type": "noteOff",
                "noteNumber": 56,
                "velocity": 96
            },
            {
                "deltaTime": 0,
                "channel": 0,
                "type": "noteOff",
                "noteNumber": 60,
                "velocity": 96
            },
            {
                "deltaTime": 64,
                "channel": 0,
                "type": "noteOn",
                "noteNumber": 46,
                "velocity": 96
            },
            {
                "deltaTime": 64,
                "channel": 0,
                "type": "noteOff",
                "noteNumber": 56,
                "velocity": 96
            },
            {
                "deltaTime": 0,
                "channel": 0,
                "type": "noteOff",
                "noteNumber": 60,
                "velocity": 96
            },
            {
                "deltaTime": 64,
                "channel": 0,
                "type": "noteOn",
                "noteNumber": 53,
                "velocity": 96
            },
            {
                "deltaTime": 0,
                "channel": 0,
                "type": "noteOn",
                "noteNumber": 50,
                "velocity": 96
            },
            {
                "deltaTime": 0,
                "channel": 0,
                "type": "noteOn",
                "noteNumber": 58,
                "velocity": 96
            },
            {
                "deltaTime": 64,
                "channel": 0,
                "type": "noteOff",
                "noteNumber": 46,
                "velocity": 96
            },
            {
                "deltaTime": 64,
                "channel": 0,
                "type": "noteOn",
                "noteNumber": 50,
                "velocity": 96
            },
            {
                "deltaTime": 0,
                "channel": 0,
                "type": "noteOn",
                "noteNumber": 53,
                "velocity": 96
            },
            {
                "deltaTime": 0,
                "channel": 0,
                "type": "noteOn",
                "noteNumber": 58,
                "velocity": 96
            },
            {
                "deltaTime": 64,
                "channel": 0,
                "type": "noteOff",
                "noteNumber": 53,
                "velocity": 96
            },
            {
                "deltaTime": 0,
                "channel": 0,
                "type": "noteOff",
                "noteNumber": 58,
                "velocity": 96
            },
            {
                "deltaTime": 0,
                "channel": 0,
                "type": "noteOff",
                "noteNumber": 50,
                "velocity": 96
            },
            {
                "deltaTime": 64,
                "channel": 0,
                "type": "noteOn",
                "noteNumber": 51,
                "velocity": 96
            },
            {
                "deltaTime": 64,
                "channel": 0,
                "type": "noteOff",
                "noteNumber": 58,
                "velocity": 96
            },
            {
                "deltaTime": 0,
                "channel": 0,
                "type": "noteOff",
                "noteNumber": 53,
                "velocity": 96
            },
            {
                "deltaTime": 0,
                "channel": 0,
                "type": "noteOff",
                "noteNumber": 50,
                "velocity": 96
            },
            {
                "deltaTime": 64,
                "channel": 0,
                "type": "noteOn",
                "noteNumber": 63,
                "velocity": 96
            },
            {
                "deltaTime": 0,
                "channel": 0,
                "type": "noteOn",
                "noteNumber": 58,
                "velocity": 96
            },
            {
                "deltaTime": 0,
                "channel": 0,
                "type": "noteOn",
                "noteNumber": 55,
                "velocity": 96
            },
            {
                "deltaTime": 64,
                "channel": 0,
                "type": "noteOff",
                "noteNumber": 51,
                "velocity": 96
            },
            {
                "deltaTime": 64,
                "channel": 0,
                "type": "noteOn",
                "noteNumber": 58,
                "velocity": 96
            },
            {
                "deltaTime": 0,
                "channel": 0,
                "type": "noteOn",
                "noteNumber": 63,
                "velocity": 96
            },
            {
                "deltaTime": 64,
                "channel": 0,
                "type": "noteOff",
                "noteNumber": 63,
                "velocity": 96
            },
            {
                "deltaTime": 0,
                "channel": 0,
                "type": "noteOff",
                "noteNumber": 58,
                "velocity": 96
            },
            {
                "deltaTime": 0,
                "channel": 0,
                "type": "noteOff",
                "noteNumber": 55,
                "velocity": 96
            },
            {
                "deltaTime": 64,
                "channel": 0,
                "type": "noteOn",
                "noteNumber": 53,
                "velocity": 96
            },
            {
                "deltaTime": 64,
                "channel": 0,
                "type": "noteOff",
                "noteNumber": 63,
                "velocity": 96
            },
            {
                "deltaTime": 0,
                "channel": 0,
                "type": "noteOff",
                "noteNumber": 58,
                "velocity": 96
            },
            {
                "deltaTime": 64,
                "channel": 0,
                "type": "noteOn",
                "noteNumber": 60,
                "velocity": 96
            },
            {
                "deltaTime": 0,
                "channel": 0,
                "type": "noteOn",
                "noteNumber": 56,
                "velocity": 96
            },
            {
                "deltaTime": 64,
                "channel": 0,
                "type": "noteOff",
                "noteNumber": 53,
                "velocity": 96
            },
            {
                "deltaTime": 64,
                "channel": 0,
                "type": "noteOn",
                "noteNumber": 60,
                "velocity": 96
            },
            {
                "deltaTime": 0,
                "channel": 0,
                "type": "noteOn",
                "noteNumber": 56,
                "velocity": 96
            },
            {
                "deltaTime": 64,
                "channel": 0,
                "type": "noteOff",
                "noteNumber": 60,
                "velocity": 96
            },
            {
                "deltaTime": 0,
                "channel": 0,
                "type": "noteOff",
                "noteNumber": 56,
                "velocity": 96
            },
            {
                "deltaTime": 64,
                "channel": 0,
                "type": "noteOn",
                "noteNumber": 58,
                "velocity": 96
            },
            {
                "deltaTime": 64,
                "channel": 0,
                "type": "noteOff",
                "noteNumber": 60,
                "velocity": 96
            },
            {
                "deltaTime": 0,
                "channel": 0,
                "type": "noteOff",
                "noteNumber": 56,
                "velocity": 96
            },
            {
                "deltaTime": 64,
                "channel": 0,
                "type": "noteOn",
                "noteNumber": 65,
                "velocity": 96
            },
            {
                "deltaTime": 0,
                "channel": 0,
                "type": "noteOn",
                "noteNumber": 62,
                "velocity": 96
            },
            {
                "deltaTime": 64,
                "channel": 0,
                "type": "noteOff",
                "noteNumber": 58,
                "velocity": 96
            },
            {
                "deltaTime": 64,
                "channel": 0,
                "type": "noteOn",
                "noteNumber": 65,
                "velocity": 96
            },
            {
                "deltaTime": 0,
                "channel": 0,
                "type": "noteOn",
                "noteNumber": 62,
                "velocity": 96
            },
            {
                "deltaTime": 64,
                "channel": 0,
                "type": "noteOff",
                "noteNumber": 65,
                "velocity": 96
            },
            {
                "deltaTime": 0,
                "channel": 0,
                "type": "noteOff",
                "noteNumber": 62,
                "velocity": 96
            },
            {
                "deltaTime": 64,
                "channel": 0,
                "type": "noteOn",
                "noteNumber": 50,
                "velocity": 96
            },
            {
                "deltaTime": 64,
                "channel": 0,
                "type": "noteOff",
                "noteNumber": 62,
                "velocity": 96
            },
            {
                "deltaTime": 0,
                "channel": 0,
                "type": "noteOff",
                "noteNumber": 65,
                "velocity": 96
            },
            {
                "deltaTime": 64,
                "channel": 0,
                "type": "noteOn",
                "noteNumber": 53,
                "velocity": 96
            },
            {
                "deltaTime": 0,
                "channel": 0,
                "type": "noteOn",
                "noteNumber": 57,
                "velocity": 96
            },
            {
                "deltaTime": 64,
                "channel": 0,
                "type": "noteOff",
                "noteNumber": 50,
                "velocity": 96
            },
            {
                "deltaTime": 64,
                "channel": 0,
                "type": "noteOn",
                "noteNumber": 57,
                "velocity": 96
            },
            {
                "deltaTime": 0,
                "channel": 0,
                "type": "noteOn",
                "noteNumber": 53,
                "velocity": 96
            },
            {
                "deltaTime": 64,
                "channel": 0,
                "type": "noteOff",
                "noteNumber": 53,
                "velocity": 96
            },
            {
                "deltaTime": 0,
                "channel": 0,
                "type": "noteOff",
                "noteNumber": 57,
                "velocity": 96
            },
            {
                "deltaTime": 64,
                "channel": 0,
                "type": "noteOn",
                "noteNumber": 59,
                "velocity": 96
            },
            {
                "deltaTime": 0,
                "channel": 0,
                "type": "noteOn",
                "noteNumber": 55,
                "velocity": 96
            },
            {
                "deltaTime": 64,
                "channel": 0,
                "type": "noteOff",
                "noteNumber": 53,
                "velocity": 96
            },
            {
                "deltaTime": 0,
                "channel": 0,
                "type": "noteOff",
                "noteNumber": 57,
                "velocity": 96
            },
            {
                "deltaTime": 64,
                "channel": 0,
                "type": "noteOn",
                "noteNumber": 60,
                "velocity": 96
            },
            {
                "deltaTime": 0,
                "channel": 0,
                "type": "noteOn",
                "noteNumber": 57,
                "velocity": 96
            },
            {
                "deltaTime": 64,
                "channel": 0,
                "type": "noteOff",
                "noteNumber": 59,
                "velocity": 96
            },
            {
                "deltaTime": 0,
                "channel": 0,
                "type": "noteOff",
                "noteNumber": 55,
                "velocity": 96
            },
            {
                "deltaTime": 64,
                "channel": 0,
                "type": "noteOn",
                "noteNumber": 59,
                "velocity": 96
            },
            {
                "deltaTime": 0,
                "channel": 0,
                "type": "noteOn",
                "noteNumber": 62,
                "velocity": 96
            },
            {
                "deltaTime": 64,
                "channel": 0,
                "type": "noteOff",
                "noteNumber": 60,
                "velocity": 96
            },
            {
                "deltaTime": 0,
                "channel": 0,
                "type": "noteOff",
                "noteNumber": 57,
                "velocity": 96
            },
            {
                "deltaTime": 64,
                "channel": 0,
                "type": "noteOn",
                "noteNumber": 60,
                "velocity": 96
            },
            {
                "deltaTime": 64,
                "channel": 0,
                "type": "noteOff",
                "noteNumber": 62,
                "velocity": 96
            },
            {
                "deltaTime": 0,
                "channel": 0,
                "type": "noteOff",
                "noteNumber": 59,
                "velocity": 96
            },
            {
                "deltaTime": 64,
                "channel": 0,
                "type": "noteOn",
                "noteNumber": 67,
                "velocity": 96
            },
            {
                "deltaTime": 0,
                "channel": 0,
                "type": "noteOn",
                "noteNumber": 63,
                "velocity": 96
            },
            {
                "deltaTime": 64,
                "channel": 0,
                "type": "noteOff",
                "noteNumber": 60,
                "velocity": 96
            },
            {
                "deltaTime": 64,
                "channel": 0,
                "type": "noteOn",
                "noteNumber": 67,
                "velocity": 96
            },
            {
                "deltaTime": 0,
                "channel": 0,
                "type": "noteOn",
                "noteNumber": 63,
                "velocity": 96
            },
            {
                "deltaTime": 64,
                "channel": 0,
                "type": "noteOff",
                "noteNumber": 63,
                "velocity": 96
            },
            {
                "deltaTime": 0,
                "channel": 0,
                "type": "noteOff",
                "noteNumber": 67,
                "velocity": 96
            },
            {
                "deltaTime": 64,
                "channel": 0,
                "type": "noteOn",
                "noteNumber": 60,
                "velocity": 96
            },
            {
                "deltaTime": 64,
                "channel": 0,
                "type": "noteOff",
                "noteNumber": 67,
                "velocity": 96
            },
            {
                "deltaTime": 0,
                "channel": 0,
                "type": "noteOff",
                "noteNumber": 63,
                "velocity": 96
            },
            {
                "deltaTime": 64,
                "channel": 0,
                "type": "noteOn",
                "noteNumber": 67,
                "velocity": 96
            },
            {
                "deltaTime": 0,
                "channel": 0,
                "type": "noteOn",
                "noteNumber": 63,
                "velocity": 96
            },
            {
                "deltaTime": 64,
                "channel": 0,
                "type": "noteOff",
                "noteNumber": 60,
                "velocity": 96
            },
            {
                "deltaTime": 64,
                "channel": 0,
                "type": "noteOn",
                "noteNumber": 67,
                "velocity": 96
            },
            {
                "deltaTime": 0,
                "channel": 0,
                "type": "noteOn",
                "noteNumber": 63,
                "velocity": 96
            },
            {
                "deltaTime": 64,
                "channel": 0,
                "type": "noteOff",
                "noteNumber": 67,
                "velocity": 96
            },
            {
                "deltaTime": 0,
                "channel": 0,
                "type": "noteOff",
                "noteNumber": 63,
                "velocity": 96
            },
            {
                "deltaTime": 64,
                "channel": 0,
                "type": "noteOn",
                "noteNumber": 58,
                "velocity": 96
            },
            {
                "deltaTime": 64,
                "channel": 0,
                "type": "noteOff",
                "noteNumber": 63,
                "velocity": 96
            },
            {
                "deltaTime": 0,
                "channel": 0,
                "type": "noteOff",
                "noteNumber": 67,
                "velocity": 96
            },
            {
                "deltaTime": 64,
                "channel": 0,
                "type": "noteOn",
                "noteNumber": 67,
                "velocity": 96
            },
            {
                "deltaTime": 0,
                "channel": 0,
                "type": "noteOn",
                "noteNumber": 62,
                "velocity": 96
            },
            {
                "deltaTime": 64,
                "channel": 0,
                "type": "noteOff",
                "noteNumber": 58,
                "velocity": 96
            },
            {
                "deltaTime": 64,
                "channel": 0,
                "type": "noteOn",
                "noteNumber": 67,
                "velocity": 96
            },
            {
                "deltaTime": 0,
                "channel": 0,
                "type": "noteOn",
                "noteNumber": 62,
                "velocity": 96
            },
            {
                "deltaTime": 64,
                "channel": 0,
                "type": "noteOff",
                "noteNumber": 67,
                "velocity": 96
            },
            {
                "deltaTime": 0,
                "channel": 0,
                "type": "noteOff",
                "noteNumber": 62,
                "velocity": 96
            },
            {
                "deltaTime": 64,
                "channel": 0,
                "type": "noteOn",
                "noteNumber": 58,
                "velocity": 96
            },
            {
                "deltaTime": 64,
                "channel": 0,
                "type": "noteOff",
                "noteNumber": 67,
                "velocity": 96
            },
            {
                "deltaTime": 0,
                "channel": 0,
                "type": "noteOff",
                "noteNumber": 62,
                "velocity": 96
            },
            {
                "deltaTime": 64,
                "channel": 0,
                "type": "noteOn",
                "noteNumber": 67,
                "velocity": 96
            },
            {
                "deltaTime": 0,
                "channel": 0,
                "type": "noteOn",
                "noteNumber": 62,
                "velocity": 96
            },
            {
                "deltaTime": 64,
                "channel": 0,
                "type": "noteOff",
                "noteNumber": 58,
                "velocity": 96
            },
            {
                "deltaTime": 64,
                "channel": 0,
                "type": "noteOn",
                "noteNumber": 67,
                "velocity": 96
            },
            {
                "deltaTime": 0,
                "channel": 0,
                "type": "noteOn",
                "noteNumber": 62,
                "velocity": 96
            },
            {
                "deltaTime": 64,
                "channel": 0,
                "type": "noteOff",
                "noteNumber": 67,
                "velocity": 96
            },
            {
                "deltaTime": 0,
                "channel": 0,
                "type": "noteOff",
                "noteNumber": 62,
                "velocity": 96
            },
            {
                "deltaTime": 64,
                "channel": 0,
                "type": "noteOn",
                "noteNumber": 53,
                "velocity": 96
            },
            {
                "deltaTime": 64,
                "channel": 0,
                "type": "noteOff",
                "noteNumber": 67,
                "velocity": 96
            },
            {
                "deltaTime": 0,
                "channel": 0,
                "type": "noteOff",
                "noteNumber": 62,
                "velocity": 96
            },
            {
                "deltaTime": 64,
                "channel": 0,
                "type": "noteOn",
                "noteNumber": 60,
                "velocity": 96
            },
            {
                "deltaTime": 0,
                "channel": 0,
                "type": "noteOn",
                "noteNumber": 56,
                "velocity": 96
            },
            {
                "deltaTime": 64,
                "channel": 0,
                "type": "noteOff",
                "noteNumber": 53,
                "velocity": 96
            },
            {
                "deltaTime": 64,
                "channel": 0,
                "type": "noteOn",
                "noteNumber": 56,
                "velocity": 96
            },
            {
                "deltaTime": 0,
                "channel": 0,
                "type": "noteOn",
                "noteNumber": 60,
                "velocity": 96
            },
            {
                "deltaTime": 64,
                "channel": 0,
                "type": "noteOff",
                "noteNumber": 60,
                "velocity": 96
            },
            {
                "deltaTime": 0,
                "channel": 0,
                "type": "noteOff",
                "noteNumber": 56,
                "velocity": 96
            },
            {
                "deltaTime": 64,
                "channel": 0,
                "type": "noteOn",
                "noteNumber": 58,
                "velocity": 96
            },
            {
                "deltaTime": 64,
                "channel": 0,
                "type": "noteOff",
                "noteNumber": 60,
                "velocity": 96
            },
            {
                "deltaTime": 0,
                "channel": 0,
                "type": "noteOff",
                "noteNumber": 56,
                "velocity": 96
            },
            {
                "deltaTime": 64,
                "channel": 0,
                "type": "noteOn",
                "noteNumber": 62,
                "velocity": 96
            },
            {
                "deltaTime": 0,
                "channel": 0,
                "type": "noteOn",
                "noteNumber": 65,
                "velocity": 96
            },
            {
                "deltaTime": 64,
                "channel": 0,
                "type": "noteOff",
                "noteNumber": 58,
                "velocity": 96
            },
            {
                "deltaTime": 64,
                "channel": 0,
                "type": "noteOn",
                "noteNumber": 65,
                "velocity": 96
            },
            {
                "deltaTime": 0,
                "channel": 0,
                "type": "noteOn",
                "noteNumber": 62,
                "velocity": 96
            },
            {
                "deltaTime": 64,
                "channel": 0,
                "type": "noteOff",
                "noteNumber": 65,
                "velocity": 96
            },
            {
                "deltaTime": 0,
                "channel": 0,
                "type": "noteOff",
                "noteNumber": 62,
                "velocity": 96
            },
            {
                "deltaTime": 64,
                "channel": 0,
                "type": "noteOn",
                "noteNumber": 51,
                "velocity": 96
            },
            {
                "deltaTime": 64,
                "channel": 0,
                "type": "noteOff",
                "noteNumber": 65,
                "velocity": 96
            },
            {
                "deltaTime": 0,
                "channel": 0,
                "type": "noteOff",
                "noteNumber": 62,
                "velocity": 96
            },
            {
                "deltaTime": 64,
                "channel": 0,
                "type": "noteOn",
                "noteNumber": 58,
                "velocity": 96
            },
            {
                "deltaTime": 0,
                "channel": 0,
                "type": "noteOn",
                "noteNumber": 55,
                "velocity": 96
            },
            {
                "deltaTime": 64,
                "channel": 0,
                "type": "noteOff",
                "noteNumber": 51,
                "velocity": 96
            },
            {
                "deltaTime": 64,
                "channel": 0,
                "type": "noteOn",
                "noteNumber": 58,
                "velocity": 96
            },
            {
                "deltaTime": 0,
                "channel": 0,
                "type": "noteOn",
                "noteNumber": 55,
                "velocity": 96
            },
            {
                "deltaTime": 64,
                "channel": 0,
                "type": "noteOff",
                "noteNumber": 58,
                "velocity": 96
            },
            {
                "deltaTime": 0,
                "channel": 0,
                "type": "noteOff",
                "noteNumber": 55,
                "velocity": 96
            },
            {
                "deltaTime": 64,
                "channel": 0,
                "type": "noteOn",
                "noteNumber": 52,
                "velocity": 96
            },
            {
                "deltaTime": 64,
                "channel": 0,
                "type": "noteOff",
                "noteNumber": 58,
                "velocity": 96
            },
            {
                "deltaTime": 0,
                "channel": 0,
                "type": "noteOff",
                "noteNumber": 55,
                "velocity": 96
            },
            {
                "deltaTime": 64,
                "channel": 0,
                "type": "noteOn",
                "noteNumber": 60,
                "velocity": 96
            },
            {
                "deltaTime": 0,
                "channel": 0,
                "type": "noteOn",
                "noteNumber": 55,
                "velocity": 96
            },
            {
                "deltaTime": 64,
                "channel": 0,
                "type": "noteOff",
                "noteNumber": 52,
                "velocity": 96
            },
            {
                "deltaTime": 64,
                "channel": 0,
                "type": "noteOn",
                "noteNumber": 60,
                "velocity": 96
            },
            {
                "deltaTime": 0,
                "channel": 0,
                "type": "noteOn",
                "noteNumber": 55,
                "velocity": 96
            },
            {
                "deltaTime": 64,
                "channel": 0,
                "type": "noteOff",
                "noteNumber": 55,
                "velocity": 96
            },
            {
                "deltaTime": 0,
                "channel": 0,
                "type": "noteOff",
                "noteNumber": 60,
                "velocity": 96
            },
            {
                "deltaTime": 64,
                "channel": 0,
                "type": "noteOn",
                "noteNumber": 53,
                "velocity": 96
            },
            {
                "deltaTime": 64,
                "channel": 0,
                "type": "noteOff",
                "noteNumber": 60,
                "velocity": 96
            },
            {
                "deltaTime": 0,
                "channel": 0,
                "type": "noteOff",
                "noteNumber": 55,
                "velocity": 96
            },
            {
                "deltaTime": 64,
                "channel": 0,
                "type": "noteOn",
                "noteNumber": 60,
                "velocity": 96
            },
            {
                "deltaTime": 0,
                "channel": 0,
                "type": "noteOn",
                "noteNumber": 56,
                "velocity": 96
            },
            {
                "deltaTime": 64,
                "channel": 0,
                "type": "noteOff",
                "noteNumber": 53,
                "velocity": 96
            },
            {
                "deltaTime": 64,
                "channel": 0,
                "type": "noteOn",
                "noteNumber": 56,
                "velocity": 96
            },
            {
                "deltaTime": 0,
                "channel": 0,
                "type": "noteOn",
                "noteNumber": 60,
                "velocity": 96
            },
            {
                "deltaTime": 64,
                "channel": 0,
                "type": "noteOff",
                "noteNumber": 60,
                "velocity": 96
            },
            {
                "deltaTime": 0,
                "channel": 0,
                "type": "noteOff",
                "noteNumber": 56,
                "velocity": 96
            },
            {
                "deltaTime": 64,
                "channel": 0,
                "type": "noteOn",
                "noteNumber": 46,
                "velocity": 96
            },
            {
                "deltaTime": 64,
                "channel": 0,
                "type": "noteOff",
                "noteNumber": 56,
                "velocity": 96
            },
            {
                "deltaTime": 0,
                "channel": 0,
                "type": "noteOff",
                "noteNumber": 60,
                "velocity": 96
            },
            {
                "deltaTime": 64,
                "channel": 0,
                "type": "noteOn",
                "noteNumber": 58,
                "velocity": 96
            },
            {
                "deltaTime": 0,
                "channel": 0,
                "type": "noteOn",
                "noteNumber": 50,
                "velocity": 96
            },
            {
                "deltaTime": 0,
                "channel": 0,
                "type": "noteOn",
                "noteNumber": 53,
                "velocity": 96
            },
            {
                "deltaTime": 64,
                "channel": 0,
                "type": "noteOff",
                "noteNumber": 46,
                "velocity": 96
            },
            {
                "deltaTime": 64,
                "channel": 0,
                "type": "noteOn",
                "noteNumber": 58,
                "velocity": 96
            },
            {
                "deltaTime": 0,
                "channel": 0,
                "type": "noteOn",
                "noteNumber": 53,
                "velocity": 96
            },
            {
                "deltaTime": 0,
                "channel": 0,
                "type": "noteOn",
                "noteNumber": 50,
                "velocity": 96
            },
            {
                "deltaTime": 64,
                "channel": 0,
                "type": "noteOff",
                "noteNumber": 58,
                "velocity": 96
            },
            {
                "deltaTime": 0,
                "channel": 0,
                "type": "noteOff",
                "noteNumber": 50,
                "velocity": 96
            },
            {
                "deltaTime": 0,
                "channel": 0,
                "type": "noteOff",
                "noteNumber": 53,
                "velocity": 96
            },
            {
                "deltaTime": 64,
                "channel": 0,
                "type": "noteOn",
                "noteNumber": 51,
                "velocity": 96
            },
            {
                "deltaTime": 64,
                "channel": 0,
                "type": "noteOff",
                "noteNumber": 58,
                "velocity": 96
            },
            {
                "deltaTime": 0,
                "channel": 0,
                "type": "noteOff",
                "noteNumber": 53,
                "velocity": 96
            },
            {
                "deltaTime": 0,
                "channel": 0,
                "type": "noteOff",
                "noteNumber": 50,
                "velocity": 96
            },
            {
                "deltaTime": 64,
                "channel": 0,
                "type": "noteOn",
                "noteNumber": 63,
                "velocity": 96
            },
            {
                "deltaTime": 0,
                "channel": 0,
                "type": "noteOn",
                "noteNumber": 55,
                "velocity": 96
            },
            {
                "deltaTime": 0,
                "channel": 0,
                "type": "noteOn",
                "noteNumber": 58,
                "velocity": 96
            },
            {
                "deltaTime": 64,
                "channel": 0,
                "type": "noteOff",
                "noteNumber": 51,
                "velocity": 96
            },
            {
                "deltaTime": 64,
                "channel": 0,
                "type": "noteOn",
                "noteNumber": 58,
                "velocity": 96
            },
            {
                "deltaTime": 0,
                "channel": 0,
                "type": "noteOn",
                "noteNumber": 63,
                "velocity": 96
            },
            {
                "deltaTime": 64,
                "channel": 0,
                "type": "noteOff",
                "noteNumber": 58,
                "velocity": 96
            },
            {
                "deltaTime": 0,
                "channel": 0,
                "type": "noteOff",
                "noteNumber": 63,
                "velocity": 96
            },
            {
                "deltaTime": 0,
                "channel": 0,
                "type": "noteOff",
                "noteNumber": 55,
                "velocity": 96
            },
            {
                "deltaTime": 64,
                "channel": 0,
                "type": "noteOn",
                "noteNumber": 48,
                "velocity": 96
            },
            {
                "deltaTime": 64,
                "channel": 0,
                "type": "noteOff",
                "noteNumber": 63,
                "velocity": 96
            },
            {
                "deltaTime": 0,
                "channel": 0,
                "type": "noteOff",
                "noteNumber": 58,
                "velocity": 96
            },
            {
                "deltaTime": 64,
                "channel": 0,
                "type": "noteOn",
                "noteNumber": 60,
                "velocity": 96
            },
            {
                "deltaTime": 0,
                "channel": 0,
                "type": "noteOn",
                "noteNumber": 55,
                "velocity": 96
            },
            {
                "deltaTime": 0,
                "channel": 0,
                "type": "noteOn",
                "noteNumber": 51,
                "velocity": 96
            },
            {
                "deltaTime": 64,
                "channel": 0,
                "type": "noteOff",
                "noteNumber": 48,
                "velocity": 96
            },
            {
                "deltaTime": 64,
                "channel": 0,
                "type": "noteOn",
                "noteNumber": 60,
                "velocity": 96
            },
            {
                "deltaTime": 64,
                "channel": 0,
                "type": "noteOff",
                "noteNumber": 60,
                "velocity": 96
            },
            {
                "deltaTime": 0,
                "channel": 0,
                "type": "noteOff",
                "noteNumber": 55,
                "velocity": 96
            },
            {
                "deltaTime": 0,
                "channel": 0,
                "type": "noteOff",
                "noteNumber": 51,
                "velocity": 96
            },
            {
                "deltaTime": 64,
                "channel": 0,
                "type": "noteOn",
                "noteNumber": 54,
                "velocity": 96
            },
            {
                "deltaTime": 64,
                "channel": 0,
                "type": "noteOff",
                "noteNumber": 60,
                "velocity": 96
            },
            {
                "deltaTime": 64,
                "channel": 0,
                "type": "noteOn",
                "noteNumber": 62,
                "velocity": 96
            },
            {
                "deltaTime": 0,
                "channel": 0,
                "type": "noteOn",
                "noteNumber": 57,
                "velocity": 96
            },
            {
                "deltaTime": 64,
                "channel": 0,
                "type": "noteOff",
                "noteNumber": 54,
                "velocity": 96
            },
            {
                "deltaTime": 64,
                "channel": 0,
                "type": "noteOn",
                "noteNumber": 62,
                "velocity": 96
            },
            {
                "deltaTime": 0,
                "channel": 0,
                "type": "noteOn",
                "noteNumber": 57,
                "velocity": 96
            },
            {
                "deltaTime": 64,
                "channel": 0,
                "type": "noteOff",
                "noteNumber": 62,
                "velocity": 96
            },
            {
                "deltaTime": 0,
                "channel": 0,
                "type": "noteOff",
                "noteNumber": 57,
                "velocity": 96
            },
            {
                "deltaTime": 64,
                "channel": 0,
                "type": "noteOn",
                "noteNumber": 66,
                "velocity": 96
            },
            {
                "deltaTime": 0,
                "channel": 0,
                "type": "noteOn",
                "noteNumber": 54,
                "velocity": 96
            },
            {
                "deltaTime": 64,
                "channel": 0,
                "type": "noteOff",
                "noteNumber": 62,
                "velocity": 96
            },
            {
                "deltaTime": 0,
                "channel": 0,
                "type": "noteOff",
                "noteNumber": 57,
                "velocity": 96
            },
            {
                "deltaTime": 64,
                "channel": 0,
                "type": "noteOn",
                "noteNumber": 62,
                "velocity": 96
            },
            {
                "deltaTime": 0,
                "channel": 0,
                "type": "noteOn",
                "noteNumber": 57,
                "velocity": 96
            },
            {
                "deltaTime": 64,
                "channel": 0,
                "type": "noteOff",
                "noteNumber": 54,
                "velocity": 96
            },
            {
                "deltaTime": 0,
                "channel": 0,
                "type": "noteOff",
                "noteNumber": 66,
                "velocity": 96
            },
            {
                "deltaTime": 64,
                "channel": 0,
                "type": "noteOn",
                "noteNumber": 62,
                "velocity": 96
            },
            {
                "deltaTime": 64,
                "channel": 0,
                "type": "noteOff",
                "noteNumber": 57,
                "velocity": 96
            },
            {
                "deltaTime": 0,
                "channel": 0,
                "type": "noteOff",
                "noteNumber": 62,
                "velocity": 96
            },
            {
                "deltaTime": 64,
                "channel": 0,
                "type": "noteOn",
                "noteNumber": 55,
                "velocity": 96
            },
            {
                "deltaTime": 64,
                "channel": 0,
                "type": "noteOff",
                "noteNumber": 62,
                "velocity": 96
            },
            {
                "deltaTime": 64,
                "channel": 0,
                "type": "noteOn",
                "noteNumber": 67,
                "velocity": 96
            },
            {
                "deltaTime": 0,
                "channel": 0,
                "type": "noteOn",
                "noteNumber": 59,
                "velocity": 96
            },
            {
                "deltaTime": 64,
                "channel": 0,
                "type": "noteOff",
                "noteNumber": 55,
                "velocity": 96
            },
            {
                "deltaTime": 64,
                "channel": 0,
                "type": "noteOn",
                "noteNumber": 67,
                "velocity": 96
            },
            {
                "deltaTime": 0,
                "channel": 0,
                "type": "noteOn",
                "noteNumber": 62,
                "velocity": 96
            },
            {
                "deltaTime": 64,
                "channel": 0,
                "type": "noteOff",
                "noteNumber": 59,
                "velocity": 96
            },
            {
                "deltaTime": 0,
                "channel": 0,
                "type": "noteOff",
                "noteNumber": 67,
                "velocity": 96
            },
            {
                "deltaTime": 64,
                "channel": 0,
                "type": "noteOn",
                "noteNumber": 67,
                "velocity": 96
            },
            {
                "deltaTime": 0,
                "channel": 0,
                "type": "noteOn",
                "noteNumber": 59,
                "velocity": 96
            },
            {
                "deltaTime": 64,
                "channel": 0,
                "type": "noteOff",
                "noteNumber": 67,
                "velocity": 96
            },
            {
                "deltaTime": 0,
                "channel": 0,
                "type": "noteOff",
                "noteNumber": 62,
                "velocity": 96
            },
            {
                "deltaTime": 64,
                "channel": 0,
                "type": "noteOn",
                "noteNumber": 62,
                "velocity": 96
            },
            {
                "deltaTime": 0,
                "channel": 0,
                "type": "noteOn",
                "noteNumber": 69,
                "velocity": 96
            },
            {
                "deltaTime": 64,
                "channel": 0,
                "type": "noteOff",
                "noteNumber": 67,
                "velocity": 96
            },
            {
                "deltaTime": 0,
                "channel": 0,
                "type": "noteOff",
                "noteNumber": 59,
                "velocity": 96
            },
            {
                "deltaTime": 64,
                "channel": 0,
                "type": "noteOn",
                "noteNumber": 71,
                "velocity": 96
            },
            {
                "deltaTime": 0,
                "channel": 0,
                "type": "noteOn",
                "noteNumber": 67,
                "velocity": 96
            },
            {
                "deltaTime": 64,
                "channel": 0,
                "type": "noteOff",
                "noteNumber": 69,
                "velocity": 96
            },
            {
                "deltaTime": 0,
                "channel": 0,
                "type": "noteOff",
                "noteNumber": 62,
                "velocity": 96
            },
            {
                "deltaTime": 64,
                "channel": 0,
                "type": "noteOn",
                "noteNumber": 48,
                "velocity": 96
            },
            {
                "deltaTime": 64,
                "channel": 0,
                "type": "noteOff",
                "noteNumber": 71,
                "velocity": 96
            },
            {
                "deltaTime": 0,
                "channel": 0,
                "type": "noteOff",
                "noteNumber": 67,
                "velocity": 96
            },
            {
                "deltaTime": 64,
                "channel": 0,
                "type": "noteOn",
                "noteNumber": 55,
                "velocity": 96
            },
            {
                "deltaTime": 0,
                "channel": 0,
                "type": "noteOn",
                "noteNumber": 51,
                "velocity": 96
            },
            {
                "deltaTime": 0,
                "channel": 0,
                "type": "noteOn",
                "noteNumber": 60,
                "velocity": 96
            },
            {
                "deltaTime": 64,
                "channel": 0,
                "type": "noteOff",
                "noteNumber": 48,
                "velocity": 96
            },
            {
                "deltaTime": 64,
                "channel": 0,
                "type": "noteOn",
                "noteNumber": 55,
                "velocity": 96
            },
            {
                "deltaTime": 0,
                "channel": 0,
                "type": "noteOn",
                "noteNumber": 51,
                "velocity": 96
            },
            {
                "deltaTime": 0,
                "channel": 0,
                "type": "noteOn",
                "noteNumber": 60,
                "velocity": 96
            },
            {
                "deltaTime": 64,
                "channel": 0,
                "type": "noteOff",
                "noteNumber": 60,
                "velocity": 96
            },
            {
                "deltaTime": 0,
                "channel": 0,
                "type": "noteOff",
                "noteNumber": 51,
                "velocity": 96
            },
            {
                "deltaTime": 0,
                "channel": 0,
                "type": "noteOff",
                "noteNumber": 55,
                "velocity": 96
            },
            {
                "deltaTime": 64,
                "channel": 0,
                "type": "noteOn",
                "noteNumber": 48,
                "velocity": 96
            },
            {
                "deltaTime": 64,
                "channel": 0,
                "type": "noteOff",
                "noteNumber": 51,
                "velocity": 96
            },
            {
                "deltaTime": 0,
                "channel": 0,
                "type": "noteOff",
                "noteNumber": 55,
                "velocity": 96
            },
            {
                "deltaTime": 0,
                "channel": 0,
                "type": "noteOff",
                "noteNumber": 60,
                "velocity": 96
            },
            {
                "deltaTime": 64,
                "channel": 0,
                "type": "noteOn",
                "noteNumber": 60,
                "velocity": 96
            },
            {
                "deltaTime": 0,
                "channel": 0,
                "type": "noteOn",
                "noteNumber": 55,
                "velocity": 96
            },
            {
                "deltaTime": 0,
                "channel": 0,
                "type": "noteOn",
                "noteNumber": 51,
                "velocity": 96
            },
            {
                "deltaTime": 64,
                "channel": 0,
                "type": "noteOff",
                "noteNumber": 48,
                "velocity": 96
            },
            {
                "deltaTime": 64,
                "channel": 0,
                "type": "noteOn",
                "noteNumber": 51,
                "velocity": 96
            },
            {
                "deltaTime": 0,
                "channel": 0,
                "type": "noteOn",
                "noteNumber": 55,
                "velocity": 96
            },
            {
                "deltaTime": 0,
                "channel": 0,
                "type": "noteOn",
                "noteNumber": 60,
                "velocity": 96
            },
            {
                "deltaTime": 64,
                "channel": 0,
                "type": "noteOff",
                "noteNumber": 55,
                "velocity": 96
            },
            {
                "deltaTime": 0,
                "channel": 0,
                "type": "noteOff",
                "noteNumber": 51,
                "velocity": 96
            },
            {
                "deltaTime": 0,
                "channel": 0,
                "type": "noteOff",
                "noteNumber": 60,
                "velocity": 96
            },
            {
                "deltaTime": 64,
                "channel": 0,
                "type": "noteOn",
                "noteNumber": 46,
                "velocity": 96
            },
            {
                "deltaTime": 64,
                "channel": 0,
                "type": "noteOff",
                "noteNumber": 60,
                "velocity": 96
            },
            {
                "deltaTime": 0,
                "channel": 0,
                "type": "noteOff",
                "noteNumber": 55,
                "velocity": 96
            },
            {
                "deltaTime": 0,
                "channel": 0,
                "type": "noteOff",
                "noteNumber": 51,
                "velocity": 96
            },
            {
                "deltaTime": 64,
                "channel": 0,
                "type": "noteOn",
                "noteNumber": 55,
                "velocity": 96
            },
            {
                "deltaTime": 0,
                "channel": 0,
                "type": "noteOn",
                "noteNumber": 58,
                "velocity": 96
            },
            {
                "deltaTime": 0,
                "channel": 0,
                "type": "noteOn",
                "noteNumber": 50,
                "velocity": 96
            },
            {
                "deltaTime": 64,
                "channel": 0,
                "type": "noteOff",
                "noteNumber": 46,
                "velocity": 96
            },
            {
                "deltaTime": 64,
                "channel": 0,
                "type": "noteOn",
                "noteNumber": 50,
                "velocity": 96
            },
            {
                "deltaTime": 0,
                "channel": 0,
                "type": "noteOn",
                "noteNumber": 58,
                "velocity": 96
            },
            {
                "deltaTime": 0,
                "channel": 0,
                "type": "noteOn",
                "noteNumber": 55,
                "velocity": 96
            },
            {
                "deltaTime": 64,
                "channel": 0,
                "type": "noteOff",
                "noteNumber": 55,
                "velocity": 96
            },
            {
                "deltaTime": 0,
                "channel": 0,
                "type": "noteOff",
                "noteNumber": 50,
                "velocity": 96
            },
            {
                "deltaTime": 0,
                "channel": 0,
                "type": "noteOff",
                "noteNumber": 58,
                "velocity": 96
            },
            {
                "deltaTime": 64,
                "channel": 0,
                "type": "noteOn",
                "noteNumber": 46,
                "velocity": 96
            },
            {
                "deltaTime": 64,
                "channel": 0,
                "type": "noteOff",
                "noteNumber": 55,
                "velocity": 96
            },
            {
                "deltaTime": 0,
                "channel": 0,
                "type": "noteOff",
                "noteNumber": 50,
                "velocity": 96
            },
            {
                "deltaTime": 0,
                "channel": 0,
                "type": "noteOff",
                "noteNumber": 58,
                "velocity": 96
            },
            {
                "deltaTime": 64,
                "channel": 0,
                "type": "noteOn",
                "noteNumber": 50,
                "velocity": 96
            },
            {
                "deltaTime": 0,
                "channel": 0,
                "type": "noteOn",
                "noteNumber": 55,
                "velocity": 96
            },
            {
                "deltaTime": 0,
                "channel": 0,
                "type": "noteOn",
                "noteNumber": 58,
                "velocity": 96
            },
            {
                "deltaTime": 64,
                "channel": 0,
                "type": "noteOff",
                "noteNumber": 46,
                "velocity": 96
            },
            {
                "deltaTime": 64,
                "channel": 0,
                "type": "noteOn",
                "noteNumber": 58,
                "velocity": 96
            },
            {
                "deltaTime": 0,
                "channel": 0,
                "type": "noteOn",
                "noteNumber": 55,
                "velocity": 96
            },
            {
                "deltaTime": 0,
                "channel": 0,
                "type": "noteOn",
                "noteNumber": 50,
                "velocity": 96
            },
            {
                "deltaTime": 64,
                "channel": 0,
                "type": "noteOff",
                "noteNumber": 58,
                "velocity": 96
            },
            {
                "deltaTime": 0,
                "channel": 0,
                "type": "noteOff",
                "noteNumber": 55,
                "velocity": 96
            },
            {
                "deltaTime": 0,
                "channel": 0,
                "type": "noteOff",
                "noteNumber": 50,
                "velocity": 96
            },
            {
                "deltaTime": 64,
                "channel": 0,
                "type": "noteOn",
                "noteNumber": 53,
                "velocity": 96
            },
            {
                "deltaTime": 64,
                "channel": 0,
                "type": "noteOff",
                "noteNumber": 58,
                "velocity": 96
            },
            {
                "deltaTime": 0,
                "channel": 0,
                "type": "noteOff",
                "noteNumber": 55,
                "velocity": 96
            },
            {
                "deltaTime": 0,
                "channel": 0,
                "type": "noteOff",
                "noteNumber": 50,
                "velocity": 96
            },
            {
                "deltaTime": 64,
                "channel": 0,
                "type": "noteOn",
                "noteNumber": 60,
                "velocity": 96
            },
            {
                "deltaTime": 0,
                "channel": 0,
                "type": "noteOn",
                "noteNumber": 56,
                "velocity": 96
            },
            {
                "deltaTime": 64,
                "channel": 0,
                "type": "noteOff",
                "noteNumber": 53,
                "velocity": 96
            },
            {
                "deltaTime": 64,
                "channel": 0,
                "type": "noteOn",
                "noteNumber": 60,
                "velocity": 96
            },
            {
                "deltaTime": 0,
                "channel": 0,
                "type": "noteOn",
                "noteNumber": 56,
                "velocity": 96
            },
            {
                "deltaTime": 64,
                "channel": 0,
                "type": "noteOff",
                "noteNumber": 60,
                "velocity": 96
            },
            {
                "deltaTime": 0,
                "channel": 0,
                "type": "noteOff",
                "noteNumber": 56,
                "velocity": 96
            },
            {
                "deltaTime": 64,
                "channel": 0,
                "type": "noteOn",
                "noteNumber": 58,
                "velocity": 96
            },
            {
                "deltaTime": 64,
                "channel": 0,
                "type": "noteOff",
                "noteNumber": 60,
                "velocity": 96
            },
            {
                "deltaTime": 0,
                "channel": 0,
                "type": "noteOff",
                "noteNumber": 56,
                "velocity": 96
            },
            {
                "deltaTime": 64,
                "channel": 0,
                "type": "noteOn",
                "noteNumber": 65,
                "velocity": 96
            },
            {
                "deltaTime": 0,
                "channel": 0,
                "type": "noteOn",
                "noteNumber": 62,
                "velocity": 96
            },
            {
                "deltaTime": 64,
                "channel": 0,
                "type": "noteOff",
                "noteNumber": 58,
                "velocity": 96
            },
            {
                "deltaTime": 64,
                "channel": 0,
                "type": "noteOn",
                "noteNumber": 62,
                "velocity": 96
            },
            {
                "deltaTime": 0,
                "channel": 0,
                "type": "noteOn",
                "noteNumber": 65,
                "velocity": 96
            },
            {
                "deltaTime": 64,
                "channel": 0,
                "type": "noteOff",
                "noteNumber": 62,
                "velocity": 96
            },
            {
                "deltaTime": 0,
                "channel": 0,
                "type": "noteOff",
                "noteNumber": 65,
                "velocity": 96
            },
            {
                "deltaTime": 64,
                "channel": 0,
                "type": "noteOn",
                "noteNumber": 51,
                "velocity": 96
            },
            {
                "deltaTime": 64,
                "channel": 0,
                "type": "noteOff",
                "noteNumber": 65,
                "velocity": 96
            },
            {
                "deltaTime": 0,
                "channel": 0,
                "type": "noteOff",
                "noteNumber": 62,
                "velocity": 96
            },
            {
                "deltaTime": 64,
                "channel": 0,
                "type": "noteOn",
                "noteNumber": 63,
                "velocity": 96
            },
            {
                "deltaTime": 0,
                "channel": 0,
                "type": "noteOn",
                "noteNumber": 58,
                "velocity": 96
            },
            {
                "deltaTime": 0,
                "channel": 0,
                "type": "noteOn",
                "noteNumber": 55,
                "velocity": 96
            },
            {
                "deltaTime": 64,
                "channel": 0,
                "type": "noteOff",
                "noteNumber": 51,
                "velocity": 96
            },
            {
                "deltaTime": 64,
                "channel": 0,
                "type": "noteOn",
                "noteNumber": 58,
                "velocity": 96
            },
            {
                "deltaTime": 0,
                "channel": 0,
                "type": "noteOn",
                "noteNumber": 63,
                "velocity": 96
            },
            {
                "deltaTime": 64,
                "channel": 0,
                "type": "noteOff",
                "noteNumber": 55,
                "velocity": 96
            },
            {
                "deltaTime": 0,
                "channel": 0,
                "type": "noteOff",
                "noteNumber": 63,
                "velocity": 96
            },
            {
                "deltaTime": 0,
                "channel": 0,
                "type": "noteOff",
                "noteNumber": 58,
                "velocity": 96
            },
            {
                "deltaTime": 64,
                "channel": 0,
                "type": "noteOn",
                "noteNumber": 52,
                "velocity": 96
            },
            {
                "deltaTime": 64,
                "channel": 0,
                "type": "noteOff",
                "noteNumber": 63,
                "velocity": 96
            },
            {
                "deltaTime": 0,
                "channel": 0,
                "type": "noteOff",
                "noteNumber": 58,
                "velocity": 96
            },
            {
                "deltaTime": 64,
                "channel": 0,
                "type": "noteOn",
                "noteNumber": 55,
                "velocity": 96
            },
            {
                "deltaTime": 0,
                "channel": 0,
                "type": "noteOn",
                "noteNumber": 64,
                "velocity": 96
            },
            {
                "deltaTime": 0,
                "channel": 0,
                "type": "noteOn",
                "noteNumber": 60,
                "velocity": 96
            },
            {
                "deltaTime": 64,
                "channel": 0,
                "type": "noteOff",
                "noteNumber": 52,
                "velocity": 96
            },
            {
                "deltaTime": 64,
                "channel": 0,
                "type": "noteOn",
                "noteNumber": 64,
                "velocity": 96
            },
            {
                "deltaTime": 0,
                "channel": 0,
                "type": "noteOn",
                "noteNumber": 60,
                "velocity": 96
            },
            {
                "deltaTime": 0,
                "channel": 0,
                "type": "noteOn",
                "noteNumber": 55,
                "velocity": 96
            },
            {
                "deltaTime": 64,
                "channel": 0,
                "type": "noteOff",
                "noteNumber": 60,
                "velocity": 96
            },
            {
                "deltaTime": 0,
                "channel": 0,
                "type": "noteOff",
                "noteNumber": 55,
                "velocity": 96
            },
            {
                "deltaTime": 0,
                "channel": 0,
                "type": "noteOff",
                "noteNumber": 64,
                "velocity": 96
            },
            {
                "deltaTime": 64,
                "channel": 0,
                "type": "noteOn",
                "noteNumber": 53,
                "velocity": 96
            },
            {
                "deltaTime": 64,
                "channel": 0,
                "type": "noteOff",
                "noteNumber": 60,
                "velocity": 96
            },
            {
                "deltaTime": 0,
                "channel": 0,
                "type": "noteOff",
                "noteNumber": 55,
                "velocity": 96
            },
            {
                "deltaTime": 0,
                "channel": 0,
                "type": "noteOff",
                "noteNumber": 64,
                "velocity": 96
            },
            {
                "deltaTime": 64,
                "channel": 0,
                "type": "noteOn",
                "noteNumber": 65,
                "velocity": 96
            },
            {
                "deltaTime": 0,
                "channel": 0,
                "type": "noteOn",
                "noteNumber": 60,
                "velocity": 96
            },
            {
                "deltaTime": 0,
                "channel": 0,
                "type": "noteOn",
                "noteNumber": 56,
                "velocity": 96
            },
            {
                "deltaTime": 64,
                "channel": 0,
                "type": "noteOff",
                "noteNumber": 53,
                "velocity": 96
            },
            {
                "deltaTime": 64,
                "channel": 0,
                "type": "noteOn",
                "noteNumber": 56,
                "velocity": 96
            },
            {
                "deltaTime": 0,
                "channel": 0,
                "type": "noteOn",
                "noteNumber": 60,
                "velocity": 96
            },
            {
                "deltaTime": 0,
                "channel": 0,
                "type": "noteOn",
                "noteNumber": 65,
                "velocity": 96
            },
            {
                "deltaTime": 64,
                "channel": 0,
                "type": "noteOff",
                "noteNumber": 65,
                "velocity": 96
            },
            {
                "deltaTime": 0,
                "channel": 0,
                "type": "noteOff",
                "noteNumber": 60,
                "velocity": 96
            },
            {
                "deltaTime": 0,
                "channel": 0,
                "type": "noteOff",
                "noteNumber": 56,
                "velocity": 96
            },
            {
                "deltaTime": 64,
                "channel": 0,
                "type": "noteOn",
                "noteNumber": 46,
                "velocity": 96
            },
            {
                "deltaTime": 64,
                "channel": 0,
                "type": "noteOff",
                "noteNumber": 60,
                "velocity": 96
            },
            {
                "deltaTime": 0,
                "channel": 0,
                "type": "noteOff",
                "noteNumber": 65,
                "velocity": 96
            },
            {
                "deltaTime": 0,
                "channel": 0,
                "type": "noteOff",
                "noteNumber": 56,
                "velocity": 96
            },
            {
                "deltaTime": 64,
                "channel": 0,
                "type": "noteOn",
                "noteNumber": 58,
                "velocity": 96
            },
            {
                "deltaTime": 0,
                "channel": 0,
                "type": "noteOn",
                "noteNumber": 53,
                "velocity": 96
            },
            {
                "deltaTime": 0,
                "channel": 0,
                "type": "noteOn",
                "noteNumber": 50,
                "velocity": 96
            },
            {
                "deltaTime": 64,
                "channel": 0,
                "type": "noteOff",
                "noteNumber": 46,
                "velocity": 96
            },
            {
                "deltaTime": 64,
                "channel": 0,
                "type": "noteOn",
                "noteNumber": 50,
                "velocity": 96
            },
            {
                "deltaTime": 0,
                "channel": 0,
                "type": "noteOn",
                "noteNumber": 53,
                "velocity": 96
            },
            {
                "deltaTime": 0,
                "channel": 0,
                "type": "noteOn",
                "noteNumber": 58,
                "velocity": 96
            },
            {
                "deltaTime": 64,
                "channel": 0,
                "type": "noteOff",
                "noteNumber": 53,
                "velocity": 96
            },
            {
                "deltaTime": 0,
                "channel": 0,
                "type": "noteOff",
                "noteNumber": 58,
                "velocity": 96
            },
            {
                "deltaTime": 0,
                "channel": 0,
                "type": "noteOff",
                "noteNumber": 50,
                "velocity": 96
            },
            {
                "deltaTime": 64,
                "channel": 0,
                "type": "noteOn",
                "noteNumber": 51,
                "velocity": 96
            },
            {
                "deltaTime": 64,
                "channel": 0,
                "type": "noteOff",
                "noteNumber": 58,
                "velocity": 96
            },
            {
                "deltaTime": 0,
                "channel": 0,
                "type": "noteOff",
                "noteNumber": 53,
                "velocity": 96
            },
            {
                "deltaTime": 0,
                "channel": 0,
                "type": "noteOff",
                "noteNumber": 50,
                "velocity": 96
            },
            {
                "deltaTime": 64,
                "channel": 0,
                "type": "noteOn",
                "noteNumber": 63,
                "velocity": 96
            },
            {
                "deltaTime": 0,
                "channel": 0,
                "type": "noteOn",
                "noteNumber": 55,
                "velocity": 96
            },
            {
                "deltaTime": 0,
                "channel": 0,
                "type": "noteOn",
                "noteNumber": 58,
                "velocity": 96
            },
            {
                "deltaTime": 64,
                "channel": 0,
                "type": "noteOff",
                "noteNumber": 51,
                "velocity": 96
            },
            {
                "deltaTime": 64,
                "channel": 0,
                "type": "noteOn",
                "noteNumber": 58,
                "velocity": 96
            },
            {
                "deltaTime": 0,
                "channel": 0,
                "type": "noteOn",
                "noteNumber": 63,
                "velocity": 96
            },
            {
                "deltaTime": 64,
                "channel": 0,
                "type": "noteOff",
                "noteNumber": 63,
                "velocity": 96
            },
            {
                "deltaTime": 0,
                "channel": 0,
                "type": "noteOff",
                "noteNumber": 58,
                "velocity": 96
            },
            {
                "deltaTime": 0,
                "channel": 0,
                "type": "noteOff",
                "noteNumber": 55,
                "velocity": 96
            },
            {
                "deltaTime": 64,
                "channel": 0,
                "type": "noteOn",
                "noteNumber": 48,
                "velocity": 96
            },
            {
                "deltaTime": 64,
                "channel": 0,
                "type": "noteOff",
                "noteNumber": 58,
                "velocity": 96
            },
            {
                "deltaTime": 0,
                "channel": 0,
                "type": "noteOff",
                "noteNumber": 63,
                "velocity": 96
            },
            {
                "deltaTime": 64,
                "channel": 0,
                "type": "noteOn",
                "noteNumber": 60,
                "velocity": 96
            },
            {
                "deltaTime": 0,
                "channel": 0,
                "type": "noteOn",
                "noteNumber": 55,
                "velocity": 96
            },
            {
                "deltaTime": 0,
                "channel": 0,
                "type": "noteOn",
                "noteNumber": 51,
                "velocity": 96
            },
            {
                "deltaTime": 64,
                "channel": 0,
                "type": "noteOff",
                "noteNumber": 48,
                "velocity": 96
            },
            {
                "deltaTime": 64,
                "channel": 0,
                "type": "noteOn",
                "noteNumber": 60,
                "velocity": 96
            },
            {
                "deltaTime": 64,
                "channel": 0,
                "type": "noteOff",
                "noteNumber": 60,
                "velocity": 96
            },
            {
                "deltaTime": 0,
                "channel": 0,
                "type": "noteOff",
                "noteNumber": 55,
                "velocity": 96
            },
            {
                "deltaTime": 0,
                "channel": 0,
                "type": "noteOff",
                "noteNumber": 51,
                "velocity": 96
            },
            {
                "deltaTime": 64,
                "channel": 0,
                "type": "noteOn",
                "noteNumber": 54,
                "velocity": 96
            },
            {
                "deltaTime": 64,
                "channel": 0,
                "type": "noteOff",
                "noteNumber": 60,
                "velocity": 96
            },
            {
                "deltaTime": 64,
                "channel": 0,
                "type": "noteOn",
                "noteNumber": 62,
                "velocity": 96
            },
            {
                "deltaTime": 0,
                "channel": 0,
                "type": "noteOn",
                "noteNumber": 57,
                "velocity": 96
            },
            {
                "deltaTime": 64,
                "channel": 0,
                "type": "noteOff",
                "noteNumber": 54,
                "velocity": 96
            },
            {
                "deltaTime": 64,
                "channel": 0,
                "type": "noteOn",
                "noteNumber": 62,
                "velocity": 96
            },
            {
                "deltaTime": 0,
                "channel": 0,
                "type": "noteOn",
                "noteNumber": 57,
                "velocity": 96
            },
            {
                "deltaTime": 64,
                "channel": 0,
                "type": "noteOff",
                "noteNumber": 62,
                "velocity": 96
            },
            {
                "deltaTime": 0,
                "channel": 0,
                "type": "noteOff",
                "noteNumber": 57,
                "velocity": 96
            },
            {
                "deltaTime": 64,
                "channel": 0,
                "type": "noteOn",
                "noteNumber": 66,
                "velocity": 96
            },
            {
                "deltaTime": 0,
                "channel": 0,
                "type": "noteOn",
                "noteNumber": 54,
                "velocity": 96
            },
            {
                "deltaTime": 64,
                "channel": 0,
                "type": "noteOff",
                "noteNumber": 62,
                "velocity": 96
            },
            {
                "deltaTime": 0,
                "channel": 0,
                "type": "noteOff",
                "noteNumber": 57,
                "velocity": 96
            },
            {
                "deltaTime": 64,
                "channel": 0,
                "type": "noteOn",
                "noteNumber": 57,
                "velocity": 96
            },
            {
                "deltaTime": 0,
                "channel": 0,
                "type": "noteOn",
                "noteNumber": 62,
                "velocity": 96
            },
            {
                "deltaTime": 64,
                "channel": 0,
                "type": "noteOff",
                "noteNumber": 66,
                "velocity": 96
            },
            {
                "deltaTime": 0,
                "channel": 0,
                "type": "noteOff",
                "noteNumber": 54,
                "velocity": 96
            },
            {
                "deltaTime": 64,
                "channel": 0,
                "type": "noteOn",
                "noteNumber": 62,
                "velocity": 96
            },
            {
                "deltaTime": 64,
                "channel": 0,
                "type": "noteOff",
                "noteNumber": 62,
                "velocity": 96
            },
            {
                "deltaTime": 0,
                "channel": 0,
                "type": "noteOff",
                "noteNumber": 57,
                "velocity": 96
            },
            {
                "deltaTime": 64,
                "channel": 0,
                "type": "noteOn",
                "noteNumber": 55,
                "velocity": 96
            },
            {
                "deltaTime": 64,
                "channel": 0,
                "type": "noteOff",
                "noteNumber": 62,
                "velocity": 96
            },
            {
                "deltaTime": 64,
                "channel": 0,
                "type": "noteOn",
                "noteNumber": 67,
                "velocity": 96
            },
            {
                "deltaTime": 0,
                "channel": 0,
                "type": "noteOn",
                "noteNumber": 59,
                "velocity": 96
            },
            {
                "deltaTime": 64,
                "channel": 0,
                "type": "noteOff",
                "noteNumber": 55,
                "velocity": 96
            },
            {
                "deltaTime": 64,
                "channel": 0,
                "type": "noteOn",
                "noteNumber": 62,
                "velocity": 96
            },
            {
                "deltaTime": 0,
                "channel": 0,
                "type": "noteOn",
                "noteNumber": 67,
                "velocity": 96
            },
            {
                "deltaTime": 64,
                "channel": 0,
                "type": "noteOff",
                "noteNumber": 59,
                "velocity": 96
            },
            {
                "deltaTime": 0,
                "channel": 0,
                "type": "noteOff",
                "noteNumber": 67,
                "velocity": 96
            },
            {
                "deltaTime": 64,
                "channel": 0,
                "type": "noteOn",
                "noteNumber": 67,
                "velocity": 96
            },
            {
                "deltaTime": 0,
                "channel": 0,
                "type": "noteOn",
                "noteNumber": 59,
                "velocity": 96
            },
            {
                "deltaTime": 64,
                "channel": 0,
                "type": "noteOff",
                "noteNumber": 67,
                "velocity": 96
            },
            {
                "deltaTime": 0,
                "channel": 0,
                "type": "noteOff",
                "noteNumber": 62,
                "velocity": 96
            },
            {
                "deltaTime": 64,
                "channel": 0,
                "type": "noteOn",
                "noteNumber": 69,
                "velocity": 96
            },
            {
                "deltaTime": 0,
                "channel": 0,
                "type": "noteOn",
                "noteNumber": 62,
                "velocity": 96
            },
            {
                "deltaTime": 64,
                "channel": 0,
                "type": "noteOff",
                "noteNumber": 67,
                "velocity": 96
            },
            {
                "deltaTime": 0,
                "channel": 0,
                "type": "noteOff",
                "noteNumber": 59,
                "velocity": 96
            },
            {
                "deltaTime": 64,
                "channel": 0,
                "type": "noteOn",
                "noteNumber": 71,
                "velocity": 96
            },
            {
                "deltaTime": 0,
                "channel": 0,
                "type": "noteOn",
                "noteNumber": 67,
                "velocity": 96
            },
            {
                "deltaTime": 64,
                "channel": 0,
                "type": "noteOff",
                "noteNumber": 69,
                "velocity": 96
            },
            {
                "deltaTime": 0,
                "channel": 0,
                "type": "noteOff",
                "noteNumber": 62,
                "velocity": 96
            },
            {
                "deltaTime": 128,
                "channel": 0,
                "type": "noteOff",
                "noteNumber": 71,
                "velocity": 96
            },
            {
                "deltaTime": 0,
                "channel": 0,
                "type": "noteOff",
                "noteNumber": 67,
                "velocity": 96
            },
            {
                "deltaTime": 0,
                "meta": true,
                "type": "endOfTrack"
            }
        ]
    ]
}